SplineFontDB: 1.0
FontName: Norasi-Bold
FullName: Norasi Bold
FamilyName: Norasi
Weight: Bold
Copyright: Copyright © 1999, The National Font Project (v.beta ). Yannis Haralambous, Virach Sornlertlamvanich and Anutara Tantraporn. All rights reserved.\n\nModified by TLWG
Version: 1.1 : May 12, 2003
ItalicAngle: 0
UnderlinePosition: -100
UnderlineWidth: 50
Ascent: 800
Descent: 200
NeedsXUIDChange: 1
FSType: 0
PfmFamily: 17
TTFWeight: 700
TTFWidth: 5
Panose: 2 0 5 6 0 0 0 2 0 4
LineGap: 18
VLineGap: 0
ScriptLang: 2
 1 DFLT 1 dflt 
 1 thai 1 dflt 
LangName: 1033 "" "" "" "TheNationalFontProject(v.beta).YannisHaralambous,VirachSornlertlamvanichandAnutaraTantraporn: Norasi Bold: 1999" "" "" "" "Norasi Bold is a trademark of the The National Font Project (v.beta ). Yannis Haralambous, Virach Sornlertlamvanich and Anutara Tantraporn." "" "Yannis Haralambous, Virach Sornlertlamvanich and Anutara Tantraporn" "This font was developed under the National Font Project at NECTEC as to be a free licensed font for Thai users and developers." "www.nectec.or.th/sll/" 
Encoding: compacted
OldEncoding: iso8859_1
DisplaySize: -72
AntiAlias: 1
FitToEm: 1
WinInfo: 176 8 11
BeginPrivate: 4
BlueValues 41 [-14 0 696 727 770 800 926 944 1057 1059]
OtherBlues 11 [-326 -299]
ForceBold 4 true
BlueScale 8 0.039625
EndPrivate
BeginChars: 258 225
StartChar: exclam
Encoding: 33 33 2
OldEncoding: 33
Width: 128
Flags: HW
HStem: -4 21<50 72> 441 20<49.5 73.5>
VStem: 26 72<400 403 403 418.5> 26 74<24.5 36> 34 38 44 28
Fore
100 36 m 0
 100 13 82 -4 62 -4 c 0
 38 -4 26 9 26 36 c 0
 26 61 38 76 61 80 c 1
 86 80 99 65 100 36 c 0
98 400 m 1
 97 375 l 1
 72 116 l 1
 51 116 l 1
 42 224 35 296 30 352 c 1
 27 368 27 382 26 397 c 0
 26 440 38 461 61 461 c 0
 86 461 98 442 98 403 c 2
 98 400 l 1
EndSplineSet
Back
100.098 36.1328 m 0
 100.098 24.9023 96.1914 15.1367 88.3789 7.32422 c 0
 81.0547 0 71.7773 -3.90625 62.0117 -3.90625 c 0
 38.0859 -3.90625 25.8789 9.27734 25.8789 36.1328 c 0
 25.8789 61.5234 37.5977 76.1719 61.0352 80.0781 c 1
 85.4492 80.0781 98.6328 65.4297 100.098 36.1328 c 0
98.1445 399.902 m 1
 97.168 375 l 1
 71.7773 116.211 l 1
 50.7812 116.211 l 1
 46.3867 169.922 42.4805 215.82 39.0625 253.418 c 0
 35.6445 291.016 32.7148 324.219 29.7852 352.051 c 0
 28.8086 359.863 27.832 367.676 27.3438 375 c 0
 27.3438 382.324 26.8555 389.648 25.8789 396.973 c 0
 25.8789 439.453 37.5977 460.938 61.0352 460.938 c 0
 85.4492 460.938 98.1445 441.895 98.1445 402.832 c 2
 98.1445 399.902 l 1
EndSplineSet
EndChar
StartChar: quotedbl
Encoding: 34 34 3
OldEncoding: 34
Width: 232
Flags: HW
HStem: 262 21<48 76 76 76 154 183 183 183> 413 20<50 73.5 156 179.5>
Fore
204 389 m 1
 183 262 l 1
 154 262 l 1
 135 375 132 388 132 399 c 0
 132 422 144 433 168 433 c 0
 191 433 203 422 204 399 c 1
 204 389 l 1
98 389 m 1
 76 262 l 1
 48 262 l 1
 29 375 26 388 26 399 c 0
 26 422 38 433 62 433 c 0
 85 433 97 422 98 399 c 1
 98 389 l 1
EndSplineSet
Back
204.102 389.16 m 1
 183.105 262.207 l 1
 153.809 262.207 l 1
 149.414 290.039 145.508 312.5 142.578 329.59 c 0
 139.648 346.68 137.207 359.863 135.742 369.141 c 0
 133.789 378.418 132.812 384.766 132.324 389.16 c 0
 132.324 393.066 131.836 396.484 131.836 398.926 c 0
 131.836 421.875 144.043 433.105 167.969 433.105 c 0
 191.406 433.105 203.125 421.875 204.102 398.926 c 1
 204.102 389.16 l 1
98.1445 389.16 m 1
 76.1719 262.207 l 1
 47.8516 262.207 l 1
 43.457 290.039 39.5508 312.5 36.6211 329.59 c 0
 33.6914 346.68 31.25 359.863 29.2969 369.141 c 0
 27.832 378.418 26.8555 384.766 26.3672 389.16 c 0
 26.3672 393.066 25.8789 396.484 25.8789 398.926 c 0
 25.8789 421.875 38.0859 433.105 62.0117 433.105 c 0
 85.4492 433.105 97.168 421.875 98.1445 398.926 c 1
 98.1445 389.16 l 1
EndSplineSet
EndChar
StartChar: numbersign
Encoding: 35 35 4
OldEncoding: 35
Width: 365
Flags: HW
HStem: 0 196<62 91 187 215> 142 54<14 81 81 81 147 206 206 206 271 334> 266 54<32 101 101 101 166 225 225 225 289 350> 266 186<158 185 283 308>
Fore
147 196 m 1
 215 196 l 1
 225 266 l 1
 158 266 l 1
 147 196 l 1
350 266 m 1
 283 266 l 1
 271 196 l 1
 334 196 l 1
 334 142 l 1
 263 142 l 1
 244 0 l 1
 187 0 l 1
 206 142 l 1
 139 142 l 1
 118 0 l 1
 62 0 l 1
 81 142 l 1
 14 142 l 1
 14 196 l 1
 91 196 l 1
 101 266 l 1
 32 266 l 1
 32 320 l 1
 110 320 l 1
 130 452 l 1
 185 452 l 1
 166 320 l 1
 233 320 l 1
 252 452 l 1
 308 452 l 1
 289 320 l 1
 350 320 l 1
 350 266 l 1
EndSplineSet
MinimumDistance: x1,-1 
Back
146.973 195.801 m 1
 214.844 195.801 l 1
 225.098 266.113 l 1
 158.203 266.113 l 1
 146.973 195.801 l 1
350.098 266.113 m 1
 283.203 266.113 l 1
 270.996 195.801 l 1
 333.984 195.801 l 1
 333.984 142.09 l 1
 263.184 142.09 l 1
 244.141 0 l 1
 187.012 0 l 1
 206.055 142.09 l 1
 139.16 142.09 l 1
 118.164 0 l 1
 62.0117 0 l 1
 81.0547 142.09 l 1
 14.1602 142.09 l 1
 14.1602 195.801 l 1
 90.8203 195.801 l 1
 101.074 266.113 l 1
 32.2266 266.113 l 1
 32.2266 319.824 l 1
 109.863 319.824 l 1
 129.883 452.148 l 1
 185.059 452.148 l 1
 166.016 319.824 l 1
 232.91 319.824 l 1
 251.953 452.148 l 1
 308.105 452.148 l 1
 289.062 319.824 l 1
 350.098 319.824 l 1
 350.098 266.113 l 1
EndSplineSet
EndChar
StartChar: dollar
Encoding: 36 36 5
OldEncoding: 36
Width: 338
Flags: HW
HStem: -57 21<146 187 187 187> 3 34 491 20<146 187 146 146>
VStem: 24 163<39 141> 29 67<361.5 373.5> 145 42<303 303 303 429> 145 147<339 422> 146 41<-57 0 39 190 468 511 468 468> 243 70<92.5 120.5>
Fore
145 303 m 1
 145 429 l 1
 112 421 96 401 96 369 c 0
 96 354 102 338 111 331 c 2
 145 303 l 1
243 111 m 0
 243 130 237 147 224 162 c 1
 217 167 207 175 187 190 c 1
 187 39 l 1
 224 48 243 72 243 111 c 0
313 127 m 0
 313 58 271 16 187 2 c 1
 187 -57 l 1
 146 -57 l 1
 146 0 l 1
 104 2 63 15 24 39 c 1
 24 141 l 1
 51 141 l 1
 65 76 97 41 146 37 c 1
 146 213 l 1
 111 236 85 253 68 269 c 0
 42 295 29 324 29 356 c 0
 29 391 42 418 69 439 c 0
 92 456 115 465 146 468 c 1
 146 511 l 1
 187 511 l 1
 187 466 l 1
 233 458 l 2
 254 454 284 435 292 422 c 1
 292 339 l 1
 265 339 l 1
 255 392 229 423 187 430 c 1
 187 279 l 1
 242 244 l 1
 278 215 l 1
 301 191 313 162 313 127 c 0
EndSplineSet
MinimumDistance: x0,-1 
Back
145.02 303.223 m 1
 145.02 429.199 l 1
 112.305 420.898 96.1914 400.879 96.1914 369.141 c 0
 96.1914 361.816 97.168 354.492 100.098 347.168 c 0
 102.539 339.844 106.445 334.473 110.84 331.055 c 2
 145.02 303.223 l 1
243.164 110.84 m 0
 243.164 130.371 236.816 147.461 224.121 162.109 c 0
 220.703 164.551 216.309 167.969 210.449 172.363 c 0
 204.59 176.758 196.777 182.617 187.012 189.941 c 1
 187.012 39.0625 l 1
 224.121 47.8516 243.164 71.7773 243.164 110.84 c 0
312.988 126.953 m 0
 312.988 57.6172 270.996 16.1133 187.012 1.95312 c 1
 187.012 -57.1289 l 1
 145.996 -57.1289 l 1
 145.996 0 l 1
 104.004 1.95312 63.4766 15.1367 23.9258 39.0625 c 1
 23.9258 141.113 l 1
 50.7812 141.113 l 1
 64.9414 75.6836 96.6797 41.0156 145.996 37.1094 c 1
 145.996 212.891 l 1
 128.906 224.121 113.281 234.375 100.586 243.652 c 0
 87.4023 252.441 76.6602 261.23 67.8711 269.043 c 0
 41.9922 294.922 28.8086 324.219 28.8086 355.957 c 0
 28.8086 390.625 42.4805 418.457 68.8477 438.965 c 0
 80.5664 447.754 92.2852 454.102 104.492 458.984 c 0
 116.699 463.867 130.859 466.797 145.996 467.773 c 1
 145.996 511.23 l 1
 187.012 511.23 l 1
 187.012 465.82 l 1
 232.91 458.008 l 2
 243.652 456.055 255.371 451.172 267.578 443.359 c 0
 279.785 436.035 288.086 428.711 291.992 421.875 c 1
 291.992 338.867 l 1
 265.137 338.867 l 1
 254.883 392.09 229.004 422.852 187.012 430.176 c 1
 187.012 278.809 l 1
 242.188 244.141 l 1
 277.832 214.844 l 1
 301.27 190.918 312.988 161.621 312.988 126.953 c 0
EndSplineSet
EndChar
StartChar: percent
Encoding: 37 37 6
OldEncoding: 37
Width: 534
Flags: HW
HStem: -7 21<106 159 159 159> 0 38<370.5 392.5> 195 40<109.5 127.5> 453 20<381 428 381 381>
VStem: 18 70<267 288.5> 278 70<71 90.5>
Fore
218 382 m 0
 218 386 216 394 213 406 c 1
 202 410 193 414 182 421 c 2
 173 426 l 1
 154 424 135 405 116 368 c 0
 97 331 88 300 88 277 c 0
 88 249 99 235 120 235 c 0
 147 235 170 253 190 288 c 0
 209 321 218 353 218 382 c 0
478 180 m 0
 478 207 465 228 441 228 c 0
 418 228 395 207 374 166 c 0
 357 130 348 101 348 80 c 0
 348 52 359 38 382 38 c 0
 407 38 429 55 450 90 c 0
 470 121 478 149 478 180 c 0
515 185 m 0
 515 142 502 102 477 65 c 0
 450 22 414 0 371 0 c 0
 310 0 278 41 278 101 c 0
 278 140 294 177 325 214 c 0
 357 250 393 268 432 268 c 0
 487 268 515 240 515 185 c 0
428 473 m 1
 159 -7 l 1
 106 -7 l 1
 335 401 l 1
 317 396 300 393 284 393 c 2
 267 393 l 2
 262 393 256 394 251 395 c 1
 254 380 l 1
 254 349 248 320 233 289 c 0
 230 282 224 272 215 260 c 0
 186 217 149 195 106 195 c 0
 50 195 18 239 18 295 c 0
 18 335 33 373 64 410 c 0
 94 446 130 464 172 464 c 0
 189 464 207 457 227 444 c 1
 250 433 268 428 281 428 c 0
 315 428 348 443 381 473 c 1
 428 473 l 1
EndSplineSet
MinimumDistance: x15,-1 
Back
217.773 381.836 m 0
 217.773 386.23 216.309 394.043 212.891 405.762 c 1
 207.52 408.203 202.637 410.156 197.266 412.598 c 0
 192.383 415.039 187.5 417.48 182.129 420.898 c 2
 172.852 425.781 l 1
 153.809 423.828 134.766 404.785 116.211 368.164 c 0
 97.168 330.566 87.8906 300.293 87.8906 276.855 c 0
 87.8906 249.023 98.6328 234.863 120.117 234.863 c 0
 146.484 234.863 169.922 252.441 189.941 288.086 c 0
 208.496 321.289 217.773 352.539 217.773 381.836 c 0
478.027 180.176 m 0
 478.027 193.359 474.609 204.59 468.262 213.867 c 0
 462.402 223.145 453.125 228.027 440.918 228.027 c 0
 417.48 228.027 395.508 207.52 374.023 166.016 c 0
 356.445 129.883 348.145 101.562 348.145 80.0781 c 0
 348.145 51.7578 359.375 38.0859 381.836 38.0859 c 0
 406.738 38.0859 429.199 55.1758 450.195 89.8438 c 0
 459.961 105.469 467.285 120.117 471.68 134.766 c 0
 476.074 149.902 478.027 164.551 478.027 180.176 c 0
515.137 185.059 m 0
 515.137 142.09 502.441 102.539 477.051 64.9414 c 0
 449.707 21.4844 414.551 0 371.094 0 c 0
 340.332 0 317.383 9.27734 301.27 27.832 c 0
 285.645 46.875 277.832 70.8008 277.832 101.074 c 0
 277.832 139.648 293.457 177.246 325.195 213.867 c 0
 356.934 250 392.578 268.066 432.129 268.066 c 0
 487.305 268.066 515.137 240.234 515.137 185.059 c 0
428.223 473.145 m 1
 159.18 -6.83594 l 1
 105.957 -6.83594 l 1
 334.961 400.879 l 1
 316.895 395.508 299.805 393.066 284.18 393.066 c 0
 277.832 393.066 272.461 393.066 267.09 393.066 c 0
 261.719 393.066 256.348 393.555 250.977 395.02 c 1
 253.906 379.883 l 1
 253.906 364.746 252.441 349.609 249.023 334.473 c 0
 245.605 319.336 240.234 304.199 232.91 289.062 c 0
 229.492 281.738 223.633 271.973 214.844 259.766 c 0
 185.547 216.797 149.414 194.824 105.957 194.824 c 0
 78.125 194.824 56.1523 204.59 41.0156 224.121 c 0
 25.8789 243.164 18.0664 267.09 18.0664 294.922 c 0
 18.0664 334.961 33.2031 373.535 63.9648 410.156 c 0
 94.2383 445.801 129.883 463.867 171.875 463.867 c 0
 188.477 463.867 207.031 457.52 227.051 443.848 c 1
 250.488 433.105 268.555 428.223 280.762 428.223 c 0
 314.941 428.223 348.145 442.871 380.859 473.145 c 1
 428.223 473.145 l 1
EndSplineSet
EndChar
StartChar: ampersand
Encoding: 38 38 7
OldEncoding: 38
Width: 517
Flags: HW
HStem: -7 21<99.5 153.5 374.5 408.5> 424 37<222.5 248.5>
Fore
278 377 m 0
 278 404 261 424 236 424 c 0
 209 424 195 408 195 375 c 0
 195 350 202 324 215 295 c 1
 257 318 278 346 278 377 c 0
173 42 m 0
 195 42 221 54 252 78 c 1
 224 113 194 161 161 221 c 1
 123 189 l 1
 104 169 98 147 98 127 c 0
 98 83 129 42 173 42 c 0
503 77 m 1
 498 61 491 47 482 36 c 0
 455 7 425 -7 392 -7 c 0
 357 -7 320 11 280 47 c 1
 241 18 l 1
 216 2 171 -7 136 -7 c 0
 63 -7 18 30 18 103 c 0
 18 158 54 207 125 249 c 2
 144 260 l 1
 125 315 123 333 123 348 c 0
 123 409 170 461 233 461 c 0
 288 461 332 430 332 374 c 0
 332 343 319 317 294 294 c 0
 285 285 264 273 233 257 c 1
 254 214 280 177 308 142 c 1
 341 185 357 220 357 245 c 0
 357 259 343 266 315 266 c 1
 315 298 l 1
 477 298 l 1
 477 267 l 1
 456 264 443 261 438 258 c 0
 431 255 422 247 413 231 c 2
 397 202 l 2
 377 167 357 135 334 106 c 1
 347 87 366 72 393 61 c 0
 400 58 408 56 419 56 c 0
 432 56 443 58 450 63 c 1
 458 66 465 77 480 94 c 1
 503 77 l 1
EndSplineSet
MinimumDistance: x23,-1 
Back
277.832 376.953 m 0
 277.832 390.137 273.926 401.367 266.602 410.645 c 0
 258.789 419.434 248.535 423.828 235.84 423.828 c 0
 208.496 423.828 194.824 407.715 194.824 375 c 0
 194.824 350.098 201.66 323.73 214.844 294.922 c 1
 256.836 318.359 277.832 345.703 277.832 376.953 c 0
172.852 41.9922 m 0
 194.824 41.9922 221.191 54.1992 251.953 78.125 c 1
 237.793 95.2148 223.633 116.211 208.496 140.137 c 0
 193.359 164.062 177.734 190.918 161.133 221.191 c 1
 123.047 188.965 l 1
 113.77 179.199 106.934 168.457 103.516 158.203 c 0
 99.6094 147.461 98.1445 137.207 98.1445 126.953 c 0
 98.1445 116.211 99.6094 105.957 103.516 95.7031 c 0
 106.934 84.9609 112.305 76.1719 119.141 67.8711 c 0
 125.488 60.0586 133.789 53.7109 143.066 48.8281 c 0
 152.344 44.4336 162.109 41.9922 172.852 41.9922 c 0
502.93 77.1484 m 1
 498.535 61.0352 491.211 47.3633 481.934 36.1328 c 1
 454.59 7.32422 424.805 -6.83594 392.09 -6.83594 c 0
 357.422 -6.83594 319.824 11.2305 279.785 46.875 c 1
 241.211 18.0664 l 2
 234.863 14.1602 228.027 10.2539 219.727 6.83594 c 0
 210.938 3.90625 202.148 0.976562 192.383 -0.976562 c 0
 182.617 -2.92969 173.34 -4.39453 163.574 -5.37109 c 0
 153.809 -6.34766 144.531 -6.83594 136.23 -6.83594 c 0
 99.1211 -6.83594 70.3125 1.95312 49.3164 20.5078 c 0
 28.3203 39.0625 18.0664 66.4062 18.0664 103.027 c 0
 18.0664 158.203 53.7109 207.031 125 249.023 c 2
 144.043 259.766 l 1
 134.766 287.109 128.906 307.129 126.465 318.848 c 0
 124.023 331.055 123.047 340.82 123.047 348.145 c 0
 123.047 363.281 125.977 377.93 131.348 391.602 c 0
 137.207 405.273 145.02 416.992 154.297 427.734 c 0
 164.062 437.988 175.781 445.801 188.965 452.148 c 0
 202.148 458.008 216.797 460.938 232.91 460.938 c 0
 260.254 460.938 283.691 453.613 303.223 438.477 c 0
 322.266 423.34 332.031 401.855 332.031 374.023 c 0
 332.031 343.262 319.336 316.895 293.945 293.945 c 0
 289.551 289.551 281.738 284.18 271.484 277.832 c 0
 261.23 271.973 248.535 265.137 232.91 256.836 c 1
 243.652 235.84 255.371 215.332 268.066 196.289 c 0
 280.762 177.734 293.945 159.18 308.105 142.09 c 1
 340.82 185.547 356.934 219.727 356.934 245.117 c 0
 356.934 258.789 342.773 266.113 314.941 266.113 c 1
 314.941 297.852 l 1
 477.051 297.852 l 1
 477.051 267.09 l 1
 456.543 263.672 443.359 260.742 437.988 257.812 c 0
 434.57 256.836 430.664 253.906 426.27 249.512 c 0
 422.363 245.117 417.48 238.77 413.086 230.957 c 2
 396.973 202.148 l 2
 387.207 184.57 376.953 167.969 366.699 151.855 c 0
 355.957 136.23 345.215 120.605 333.984 105.957 c 1
 340.82 96.6797 348.633 88.3789 358.398 80.5664 c 0
 368.164 72.7539 379.883 66.4062 393.066 61.0352 c 0
 399.902 57.6172 408.203 56.1523 418.945 56.1523 c 0
 432.129 56.1523 442.871 58.1055 450.195 62.9883 c 0
 454.102 64.4531 458.008 67.8711 462.402 73.2422 c 0
 466.797 78.125 472.656 85.4492 479.98 94.2383 c 1
 502.93 77.1484 l 1
EndSplineSet
EndChar
StartChar: quotesingle
Encoding: 39 39 8
OldEncoding: 39
Width: 135
Flags: HW
HStem: 272 21<41 41> 422 20<51.5 66.5>
Fore
80 439 m 0
 100 430 118 407 118 374 c 0
 118 303 41 272 41 272 c 1
 32 297 l 1
 32 297 37 298 45 305 c 0
 62 317 79 337 79 357 c 2
 79 362 l 1
 74 361 70 360 63 360 c 0
 40 360 21 377 21 400 c 0
 21 424 40 442 63 442 c 0
 70 442 76 441 80 439 c 0
EndSplineSet
Back
80.0781 438.965 m 0
 76.1719 440.918 70.3125 441.895 62.9883 441.895 c 0
 51.7578 441.895 41.9922 437.988 33.6914 430.176 c 0
 25.3906 421.875 20.9961 412.109 20.9961 399.902 c 0
 20.9961 388.672 25.3906 379.395 33.6914 371.582 c 0
 41.9922 363.77 51.7578 359.863 62.9883 359.863 c 0
 66.4062 359.863 69.3359 360.352 71.2891 360.352 c 0
 73.7305 360.84 76.1719 361.328 79.1016 361.816 c 1
 79.1016 356.934 l 2
 79.1016 347.168 75.6836 337.402 68.3594 328.125 c 0
 61.5234 318.848 53.7109 311.035 44.9219 305.176 c 0
 41.0156 301.758 37.5977 299.316 35.6445 298.34 c 0
 33.2031 297.363 32.2266 296.875 32.2266 296.875 c 1
 41.0156 271.973 l 1
 41.0156 271.973 44.9219 273.926 53.2227 277.832 c 0
 61.0352 282.227 69.8242 288.086 79.5898 296.387 c 0
 89.3555 304.688 98.1445 315.43 105.957 328.125 c 0
 113.77 340.82 118.164 355.957 118.164 374.023 c 0
 118.164 390.625 114.258 404.297 106.445 415.527 c 0
 98.6328 426.27 89.8438 434.57 80.0781 438.965 c 0
EndSplineSet
EndChar
StartChar: parenleft
Encoding: 40 40 9
OldEncoding: 40
Width: 210
Flags: HW
HStem: -121 21<175 175> 460 20<177 177>
VStem: 10 72<145 216>
Fore
175 -121 m 1
 66 -52 10 57 10 186 c 0
 10 309 66 407 177 480 c 1
 191 455 l 1
 157 426 132 398 117 371 c 0
 92 327 82 247 82 185 c 0
 82 105 86 74 95 50 c 0
 118 -15 142 -62 193 -97 c 1
 175 -121 l 1
EndSplineSet
MinimumDistance: x3,-1 
Back
174.805 -121.094 m 1
 120.117 -86.4258 79.1016 -42.4805 51.2695 9.76562 c 0
 23.9258 62.5 9.76562 121.094 9.76562 186.035 c 0
 9.76562 309.57 65.4297 407.227 176.758 479.98 c 1
 190.918 455.078 l 1
 157.227 426.27 132.324 398.438 117.188 371.094 c 0
 110.84 360.352 105.469 347.656 101.074 332.52 c 0
 96.1914 317.383 92.7734 301.758 89.8438 285.156 c 0
 87.4023 268.555 85.4492 251.465 83.9844 233.887 c 0
 82.5195 216.797 82.0312 200.195 82.0312 185.059 c 0
 82.0312 145.02 83.0078 115.723 84.9609 96.6797 c 0
 86.9141 77.6367 90.332 62.0117 95.2148 49.8047 c 0
 106.445 17.0898 119.141 -11.2305 133.301 -35.1562 c 0
 147.949 -59.082 167.48 -79.5898 192.871 -97.168 c 1
 174.805 -121.094 l 1
EndSplineSet
EndChar
StartChar: parenright
Encoding: 41 41 10
OldEncoding: 41
Width: 210
Flags: HW
HStem: -122 21<34 34> 459 20<32 32>
VStem: 127 72<144 215>
Fore
34 -122 m 1
 16 -98 l 1
 67 -63 91 -16 114 49 c 0
 123 73 127 104 127 184 c 0
 127 246 117 326 92 370 c 0
 77 397 52 425 18 454 c 1
 32 479 l 1
 143 406 199 308 199 185 c 0
 199 56 143 -53 34 -122 c 1
EndSplineSet
MinimumDistance: x0,-1 
Back
34.1797 -122.07 m 1
 88.8672 -87.4023 129.883 -43.457 157.715 8.78906 c 0
 185.059 61.5234 199.219 120.117 199.219 185.059 c 0
 199.219 308.105 143.555 406.25 32.2266 479.004 c 1
 18.0664 454.102 l 1
 51.7578 425.293 76.6602 397.461 91.7969 370.117 c 0
 98.1445 359.375 103.516 346.68 107.91 331.543 c 0
 112.793 316.406 116.211 300.781 119.141 284.18 c 0
 121.582 267.09 123.535 250.488 125 232.91 c 0
 126.465 215.82 126.953 199.219 126.953 184.082 c 0
 126.953 144.043 125.977 114.258 124.023 95.7031 c 0
 122.07 76.6602 118.652 61.0352 113.77 48.8281 c 0
 102.539 16.1133 89.8438 -12.207 75.6836 -36.1328 c 0
 61.0352 -60.0586 41.5039 -80.5664 16.1133 -98.1445 c 1
 34.1797 -122.07 l 1
EndSplineSet
EndChar
StartChar: asterisk
Encoding: 42 42 11
OldEncoding: 42
Width: 297
Flags: HW
HStem: 174 21<137.5 160> 442 20<137.5 160>
VStem: 126 64
Fore
259 291 m 0
 278 280 283 265 273 246 c 0
 262 227 246 224 227 236 c 1
 206 246 182 281 164 291 c 1
 164 269 180 233 180 210 c 0
 180 186 172 174 148 174 c 0
 127 174 116 186 116 210 c 0
 116 233 132 270 133 291 c 1
 114 280 91 249 70 236 c 0
 50 224 34 227 23 246 c 0
 12 265 17 280 38 291 c 1
 59 304 99 308 118 319 c 1
 100 329 60 334 38 345 c 0
 17 356 12 371 23 390 c 0
 34 409 50 412 70 400 c 1
 91 390 114 356 133 345 c 1
 132 368 116 403 116 427 c 0
 116 450 127 462 148 462 c 0
 172 462 180 450 180 427 c 0
 180 403 164 368 164 345 c 1
 183 356 206 390 227 400 c 1
 246 412 262 409 273 390 c 0
 283 371 278 356 259 345 c 1
 238 335 197 329 179 319 c 1
 198 308 239 304 259 291 c 0
EndSplineSet
MinimumDistance: x0,-1 
Back
258.789 291.016 m 0
 253.906 294.434 247.559 296.875 240.723 298.828 c 0
 233.398 300.781 226.074 303.223 218.262 305.176 c 0
 210.938 307.129 203.613 309.082 196.289 311.523 c 0
 189.453 313.965 183.594 316.406 179.199 318.848 c 1
 183.594 321.777 189.453 323.73 196.289 325.684 c 0
 203.613 327.148 210.938 329.102 218.262 331.055 c 0
 226.074 333.008 233.398 334.961 240.723 337.402 c 0
 247.559 339.844 253.906 342.285 258.789 345.215 c 0
 278.32 356.445 283.203 371.094 272.949 390.137 c 0
 261.719 408.691 246.094 412.109 227.051 399.902 c 0
 221.68 397.461 216.309 393.555 210.938 388.672 c 0
 194.824 372.559 l 0
 189.453 366.699 184.57 361.328 179.199 356.445 c 0
 173.828 351.562 168.457 347.656 164.062 345.215 c 1
 164.062 356.445 166.504 369.629 171.875 385.742 c 0
 177.246 401.367 180.176 415.039 180.176 426.758 c 0
 180.176 438.477 177.734 446.777 172.852 453.125 c 0
 168.457 458.984 160.156 461.914 147.949 461.914 c 0
 126.465 461.914 116.211 450.195 116.211 426.758 c 0
 116.211 415.039 118.652 401.367 124.023 385.742 c 0
 129.395 369.629 132.324 356.445 132.812 345.215 c 1
 128.418 347.656 123.535 351.562 118.164 356.445 c 0
 112.793 361.328 107.422 366.699 102.051 372.559 c 0
 85.9375 388.672 l 0
 80.5664 393.555 75.1953 397.461 69.8242 399.902 c 0
 49.8047 412.109 34.1797 408.691 22.9492 390.137 c 0
 12.207 371.094 17.0898 356.445 38.0859 345.215 c 0
 43.457 342.285 49.8047 339.844 57.1289 337.402 c 0
 64.4531 334.961 71.7773 333.008 79.1016 331.055 c 0
 86.4258 329.102 93.2617 327.148 100.586 325.684 c 0
 107.422 323.73 113.281 321.777 118.164 318.848 c 1
 113.281 316.406 107.422 313.965 100.586 311.523 c 0
 93.2617 309.082 86.4258 307.129 79.1016 305.176 c 0
 71.7773 303.223 64.4531 300.781 57.1289 298.828 c 0
 49.8047 296.875 43.457 294.434 38.0859 291.016 c 0
 17.0898 279.785 12.207 264.648 22.9492 246.094 c 0
 34.1797 227.539 49.8047 224.121 69.8242 235.84 c 0
 75.1953 239.258 80.5664 243.652 85.9375 248.535 c 0
 91.3086 253.418 96.6797 258.789 102.051 264.16 c 0
 107.422 269.531 112.793 274.414 118.164 279.297 c 0
 123.535 284.668 128.418 288.574 132.812 291.016 c 1
 132.324 280.273 129.395 267.09 124.023 250.977 c 0
 118.652 234.863 116.211 221.191 116.211 209.961 c 0
 116.211 186.035 126.465 173.828 147.949 173.828 c 0
 160.156 173.828 168.457 176.758 172.852 183.105 c 0
 177.734 188.965 180.176 198.242 180.176 209.961 c 0
 180.176 215.82 179.199 222.656 177.734 229.492 c 0
 175.781 236.328 173.828 243.652 171.875 250.977 c 0
 169.922 258.301 167.969 265.625 166.504 272.461 c 0
 165.039 279.297 164.062 285.645 164.062 291.016 c 1
 168.457 288.574 173.34 284.668 178.711 279.297 c 0
 183.594 274.414 188.965 269.043 194.336 263.672 c 0
 200.195 257.812 205.566 252.441 210.938 247.559 c 0
 216.309 242.676 221.68 238.77 227.051 235.84 c 0
 246.094 224.121 261.719 227.539 272.949 246.094 c 0
 283.203 264.648 278.32 279.785 258.789 291.016 c 0
EndSplineSet
EndChar
StartChar: plus
Encoding: 43 43 12
OldEncoding: 43
Width: 387
Flags: HW
HStem: 0 21<168 220 220 220> 152 51<17 168 220 370> 334 20<168 220 168 168>
VStem: 168 52<0 152 203 354>
Fore
370 152 m 1
 220 152 l 1
 220 0 l 1
 168 0 l 1
 168 152 l 1
 17 152 l 1
 17 203 l 1
 168 203 l 1
 168 354 l 1
 220 354 l 1
 220 203 l 1
 370 203 l 1
 370 152 l 1
EndSplineSet
MinimumDistance: x0,-1 y7,9 y7,8 y1,3 y1,2 x4,6 x4,5 x1,11 x1,0 
Back
370.117 151.855 m 1
 220.215 151.855 l 1
 220.215 0 l 1
 167.969 0 l 1
 167.969 151.855 l 1
 17.0898 151.855 l 1
 17.0898 203.125 l 1
 167.969 203.125 l 1
 167.969 354.004 l 1
 220.215 354.004 l 1
 220.215 203.125 l 1
 370.117 203.125 l 1
 370.117 151.855 l 1
EndSplineSet
EndChar
StartChar: comma
Encoding: 44 44 13
OldEncoding: 44
Width: 142
Flags: HW
HStem: -90 21<41 41> -2 21<51.5 66.5> 60 20<51.5 66.5>
Fore
80 77 m 0
 100 68 118 45 118 12 c 0
 118 -59 41 -90 41 -90 c 1
 32 -65 l 1
 32 -65 37 -64 45 -57 c 0
 62 -45 79 -25 79 -5 c 2
 79 0 l 1
 74 -1 70 -2 63 -2 c 0
 40 -2 21 15 21 38 c 0
 21 62 40 80 63 80 c 0
 70 80 76 79 80 77 c 0
EndSplineSet
Back
80.0781 77.1484 m 0
 76.1719 79.1016 70.3125 80.0781 62.9883 80.0781 c 0
 51.7578 80.0781 41.9922 76.1719 33.6914 67.8711 c 0
 25.3906 60.0586 20.9961 49.8047 20.9961 38.0859 c 0
 20.9961 26.8555 25.3906 17.0898 33.6914 9.27734 c 0
 41.9922 1.95312 51.7578 -1.95312 62.9883 -1.95312 c 0
 66.4062 -1.95312 69.3359 -1.95312 71.2891 -1.46484 c 0
 73.7305 -0.976562 76.1719 -0.488281 79.1016 0 c 1
 79.1016 -4.88281 l 2
 79.1016 -15.1367 75.6836 -24.9023 68.3594 -34.1797 c 0
 61.5234 -43.457 53.7109 -50.7812 44.9219 -57.1289 c 0
 41.0156 -60.5469 37.5977 -62.5 35.6445 -63.4766 c 0
 33.2031 -64.4531 32.2266 -64.9414 32.2266 -64.9414 c 1
 41.0156 -89.8438 l 1
 41.0156 -89.8438 44.9219 -87.8906 53.2227 -83.9844 c 0
 61.0352 -80.0781 69.8242 -73.7305 79.5898 -65.4297 c 0
 89.3555 -57.1289 98.1445 -46.875 105.957 -34.1797 c 0
 113.77 -21.4844 118.164 -5.85938 118.164 12.207 c 0
 118.164 28.8086 114.258 42.4805 106.445 53.7109 c 0
 98.6328 64.4531 89.8438 72.2656 80.0781 77.1484 c 0
EndSplineSet
EndChar
StartChar: hyphen
Encoding: 45 45 14
OldEncoding: 45
Width: 279
Flags: HW
HStem: 83 33<30 247>
Fore
247 83 m 1
 30 83 l 1
 30 116 l 1
 247 116 l 1
 247 83 l 1
EndSplineSet
Back
247.07 83.0078 m 1
 29.7852 83.0078 l 1
 29.7852 116.211 l 1
 247.07 116.211 l 1
 247.07 83.0078 l 1
EndSplineSet
EndChar
StartChar: period
Encoding: 46 46 15
OldEncoding: 46
Width: 122
Flags: HW
HStem: -5 21<49 69> 51 20<48.5 69>
Fore
99 32 m 0
 99 11 79 -5 59 -5 c 0
 39 -5 21 11 21 32 c 0
 21 53 38 71 59 71 c 0
 79 71 99 52 99 32 c 0
EndSplineSet
Back
99.1211 32.2266 m 0
 99.1211 21.4844 94.7266 12.6953 86.4258 5.37109 c 0
 78.125 -1.46484 68.8477 -4.88281 59.082 -4.88281 c 0
 48.8281 -4.88281 40.0391 -1.46484 32.7148 5.37109 c 0
 24.9023 12.6953 20.9961 21.4844 20.9961 32.2266 c 0
 20.9961 42.4805 24.9023 51.7578 32.2266 59.5703 c 0
 39.5508 67.3828 48.3398 70.8008 59.082 70.8008 c 0
 68.8477 70.8008 78.125 66.8945 86.4258 59.082 c 0
 94.7266 50.7812 99.1211 41.9922 99.1211 32.2266 c 0
EndSplineSet
EndChar
StartChar: slash
Encoding: 47 47 16
OldEncoding: 47
Width: 245
Flags: HW
HStem: -117 21<3 55 55 55> 457 20<189 242 189 189>
Fore
242 477 m 1
 55 -117 l 1
 3 -117 l 1
 189 477 l 1
 242 477 l 1
EndSplineSet
MinimumDistance: x0,-1 
Back
242.188 477.051 m 1
 55.1758 -117.188 l 1
 2.92969 -117.188 l 1
 188.965 477.051 l 1
 242.188 477.051 l 1
EndSplineSet
EndChar
StartChar: zero
Encoding: 48 48 17
OldEncoding: 48
Width: 353
Flags: HW
HStem: -8 33<151.5 200.5> 428 33<151.5 200.5>
VStem: 22 80<174.5 276.5> 250 80<196.5 254.5>
Fore
250 226 m 0
 250 361 225 428 176 428 c 0
 127 428 102 361 102 226 c 0
 102 92 127 25 176 25 c 0
 225 25 250 92 250 226 c 0
330 226 m 0
 330 167 320 118 301 79 c 0
 274 21 233 -8 176 -8 c 0
 61 -8 22 123 22 226 c 0
 22 327 63 461 176 461 c 0
 232 461 274 432 301 373 c 0
 320 332 330 283 330 226 c 0
EndSplineSet
MinimumDistance: x0,-1 
Back
250 226.074 m 0
 250 360.84 225.098 428.223 175.781 428.223 c 0
 126.465 428.223 102.051 360.84 102.051 226.074 c 0
 102.051 91.7969 126.465 24.9023 175.781 24.9023 c 0
 225.098 24.9023 250 91.7969 250 226.074 c 0
330.078 226.074 m 0
 330.078 167.48 320.312 118.164 300.781 79.1016 c 0
 274.414 20.9961 232.91 -7.8125 175.781 -7.8125 c 0
 147.461 -7.8125 123.047 -0.488281 103.516 14.1602 c 0
 83.9844 28.8086 67.8711 47.3633 56.1523 70.3125 c 0
 43.9453 93.2617 35.1562 118.652 29.7852 145.996 c 0
 24.9023 173.34 21.9727 200.195 21.9727 226.074 c 0
 21.9727 251.465 24.9023 277.832 29.7852 305.664 c 0
 35.1562 333.008 43.9453 358.398 56.6406 381.348 c 0
 68.8477 404.297 84.9609 423.34 104.492 438.477 c 0
 124.023 453.613 147.949 460.938 175.781 460.938 c 0
 231.934 460.938 273.438 431.641 300.781 373.047 c 0
 320.312 332.52 330.078 283.203 330.078 226.074 c 0
EndSplineSet
EndChar
StartChar: one
Encoding: 49 49 18
OldEncoding: 49
Width: 219
Flags: HW
HStem: 0 27<19 40.5 195 207> 442 20<132 132>
VStem: 77 72<58 69 69 367>
Fore
207 0 m 1
 19 0 l 1
 19 27 l 1
 62 27 77 34 77 69 c 2
 77 367 l 2
 77 382 73 389 65 389 c 0
 63 389 46 383 14 371 c 1
 14 397 l 1
 132 462 l 1
 149 459 l 1
 149 58 l 2
 149 43 153 33 160 30 c 2
 159 31 l 2
 167 28 183 27 207 27 c 1
 207 0 l 1
EndSplineSet
MinimumDistance: x9,-1 
Back
207.031 0 m 1
 19.043 0 l 1
 19.043 26.8555 l 1
 40.5273 26.8555 55.1758 29.7852 63.9648 35.1562 c 0
 72.7539 40.5273 77.1484 51.7578 77.1484 68.8477 c 2
 77.1484 367.188 l 2
 77.1484 381.836 73.2422 389.16 64.9414 389.16 c 0
 62.9883 389.16 45.8984 382.812 14.1602 371.094 c 1
 14.1602 396.973 l 1
 131.836 461.914 l 1
 148.926 458.984 l 1
 148.926 58.1055 l 2
 148.926 42.4805 152.832 33.2031 160.156 29.7852 c 2
 159.18 30.7617 l 2
 166.992 28.3203 183.105 26.8555 207.031 26.8555 c 1
 207.031 0 l 1
EndSplineSet
EndChar
StartChar: two
Encoding: 50 50 19
OldEncoding: 50
Width: 346
Flags: HW
HStem: 0 66<114 247> 396 65<126 163.5>
VStem: 220 73<309.5 338>
Fore
327 104 m 1
 287 0 l 1
 22 0 l 1
 22 19 l 1
 139 147 l 2
 193 206 220 261 220 310 c 0
 220 366 191 396 136 396 c 0
 115 396 97 387 83 370 c 0
 72 357 62 336 51 307 c 1
 22 315 l 1
 37 404 84 461 168 461 c 0
 239 461 293 407 293 334 c 0
 293 285 265 229 208 168 c 2
 114 66 l 1
 247 66 l 2
 260 66 270 69 278 75 c 0
 282 79 290 90 302 113 c 1
 327 104 l 1
EndSplineSet
MinimumDistance: x10,-1 
Back
327.148 104.004 m 1
 287.109 0 l 1
 21.9727 0 l 1
 21.9727 19.043 l 1
 139.16 146.973 l 2
 192.871 206.543 220.215 260.742 220.215 310.059 c 0
 220.215 337.891 212.891 359.375 198.73 374.023 c 0
 184.082 388.672 163.574 395.996 136.23 395.996 c 0
 114.746 395.996 97.168 387.207 83.0078 370.117 c 0
 72.2656 357.422 61.5234 336.426 50.7812 307.129 c 1
 21.9727 314.941 l 1
 29.2969 359.863 44.9219 395.02 68.8477 421.387 c 0
 92.7734 447.754 125.977 460.938 167.969 460.938 c 0
 186.035 460.938 202.637 458.008 217.285 451.66 c 0
 232.422 445.312 245.605 436.523 256.836 424.805 c 0
 268.555 413.574 277.344 400.391 283.691 384.277 c 0
 290.039 368.652 292.969 352.051 292.969 333.984 c 0
 292.969 284.668 264.648 229.492 208.008 167.969 c 2
 113.77 65.918 l 1
 247.07 65.918 l 2
 259.766 65.918 270.02 68.8477 277.832 75.1953 c 0
 279.785 77.1484 283.203 81.0547 287.109 86.9141 c 0
 291.016 92.7734 295.898 101.562 301.758 112.793 c 1
 327.148 104.004 l 1
EndSplineSet
EndChar
StartChar: three
Encoding: 51 51 20
OldEncoding: 51
Width: 310
Flags: HW
HStem: -8 21<95 128.5> 404 57<125.5 155.5>
VStem: 198 69<348 363> 224 65<125 131.5>
Fore
289 150 m 0
 289 100 270 60 231 30 c 0
 198 3 154 -8 103 -8 c 0
 87 -8 73 -6 60 -1 c 0
 45 4 24 16 24 37 c 0
 24 60 41 68 57 68 c 0
 66 68 83 64 104 49 c 0
 124 36 140 31 148 31 c 0
 172 31 191 41 204 60 c 0
 217 79 224 100 224 124 c 0
 224 139 222 151 217 160 c 0
 198 196 163 217 94 217 c 1
 91 241 l 1
 162 264 198 298 198 345 c 0
 198 381 173 404 138 404 c 0
 104 404 74 380 49 333 c 1
 22 341 l 1
 46 421 92 461 159 461 c 0
 220 461 267 428 267 365 c 0
 267 331 250 301 215 274 c 1
 232 265 244 255 255 246 c 0
 280 223 289 185 289 150 c 0
EndSplineSet
MinimumDistance: x0,-1 
Back
289.062 149.902 m 0
 289.062 100.098 269.531 60.0586 230.957 29.7852 c 0
 214.355 16.6016 195.312 6.83594 173.34 0.976562 c 0
 151.855 -4.88281 128.418 -7.8125 103.027 -7.8125 c 0
 86.9141 -7.8125 72.7539 -5.85938 60.0586 -0.976562 c 0
 52.7344 1.46484 44.9219 5.85938 36.6211 12.207 c 0
 28.3203 18.0664 23.9258 26.3672 23.9258 37.1094 c 0
 23.9258 48.3398 27.3438 56.1523 34.668 61.0352 c 0
 41.5039 65.4297 48.8281 67.8711 57.1289 67.8711 c 0
 61.5234 67.8711 67.8711 66.8945 76.1719 63.9648 c 0
 83.9844 61.5234 93.2617 56.1523 104.004 48.8281 c 0
 113.77 42.4805 123.047 37.5977 130.371 35.1562 c 0
 138.184 32.2266 144.043 30.7617 147.949 30.7617 c 0
 171.875 30.7617 190.43 40.5273 204.102 60.0586 c 0
 217.285 78.6133 224.121 100.098 224.121 124.023 c 0
 224.121 138.672 221.68 150.879 216.797 160.156 c 0
 207.52 178.223 193.359 191.895 174.316 202.148 c 0
 155.273 211.914 128.906 216.797 94.2383 216.797 c 1
 90.8203 241.211 l 1
 162.109 263.672 198.242 298.34 198.242 345.215 c 0
 198.242 362.793 192.383 377.441 181.152 388.184 c 0
 169.434 398.438 155.273 403.809 138.184 403.809 c 0
 104.004 403.809 74.2188 380.371 48.8281 333.008 c 1
 21.9727 340.82 l 1
 45.8984 420.898 91.7969 460.938 159.18 460.938 c 0
 189.453 460.938 215.332 452.637 235.84 436.523 c 0
 256.836 420.41 267.09 396.484 267.09 365.234 c 0
 267.09 331.055 249.512 300.781 214.844 273.926 c 1
 223.633 269.531 230.957 264.648 237.305 259.766 c 0
 243.652 255.371 249.512 250.488 254.883 246.094 c 0
 267.578 234.863 276.367 220.215 281.738 202.637 c 0
 286.621 185.059 289.062 167.48 289.062 149.902 c 0
EndSplineSet
EndChar
StartChar: four
Encoding: 52 52 21
OldEncoding: 52
Width: 326
Flags: HW
HStem: 0 21<181 249 249 249> 108 58<56 180 249 311> 432 20<206 249 206 206>
VStem: 180 69<166 346> 181 68<0 108>
Fore
180 166 m 1
 180 346 l 1
 56 166 l 1
 180 166 l 1
311 108 m 1
 249 108 l 1
 249 0 l 1
 181 0 l 1
 181 108 l 1
 4 108 l 1
 4 160 l 1
 206 452 l 1
 249 452 l 1
 249 166 l 1
 311 166 l 1
 311 108 l 1
EndSplineSet
MinimumDistance: x0,-1 x13,1 y1,13 y1,3 y7,9 y7,8 y12,10 x10,12 x10,11 x7,2 x7,0 
Back
180.176 166.016 m 1
 180.176 346.191 l 1
 56.1523 166.016 l 1
 180.176 166.016 l 1
311.035 107.91 m 1
 249.023 107.91 l 1
 249.023 0 l 1
 181.152 0 l 1
 181.152 107.91 l 1
 3.90625 107.91 l 1
 3.90625 160.156 l 1
 206.055 452.148 l 1
 249.023 452.148 l 1
 249.023 166.016 l 1
 311.035 166.016 l 1
 311.035 107.91 l 1
EndSplineSet
EndChar
StartChar: five
Encoding: 53 53 22
OldEncoding: 53
Width: 318
Flags: HW
HStem: -8 21<75.5 129.5> 386 68<126 245 245 249> 456 20<277 277>
VStem: 222 64<130.5 164>
Fore
296 461 m 1
 269 396 l 2
 266 389 258 386 245 386 c 2
 126 386 l 1
 106 345 l 1
 178 333 222 305 249 274 c 0
 271 247 286 194 286 156 c 0
 286 105 268 65 231 35 c 0
 195 6 153 -8 106 -8 c 0
 45 -8 15 8 15 39 c 0
 15 62 35 73 50 73 c 0
 67 73 85 65 105 50 c 0
 120 39 133 33 144 33 c 0
 169 33 188 44 202 67 c 0
 215 87 222 112 222 142 c 0
 222 186 202 219 162 242 c 0
 127 261 89 272 50 272 c 0
 41 272 36 277 36 286 c 2
 36 291 l 1
 109 454 l 1
 249 454 l 2
 257 454 266 461 277 476 c 1
 296 461 l 1
EndSplineSet
MinimumDistance: x0,-1 
Back
295.898 460.938 m 1
 269.043 395.996 l 1
 265.625 389.16 257.812 386.23 245.117 386.23 c 2
 125.977 386.23 l 1
 105.957 345.215 l 1
 142.09 338.867 171.387 329.59 194.336 316.406 c 0
 217.285 303.711 235.84 289.551 249.023 273.926 c 0
 254.395 267.09 259.277 259.277 264.16 249.512 c 0
 268.555 239.746 272.461 229.492 275.879 219.238 c 0
 279.297 208.496 281.738 197.266 283.691 186.523 c 0
 285.156 175.293 286.133 165.527 286.133 155.762 c 0
 286.133 105.469 267.578 64.9414 230.957 35.1562 c 0
 194.824 6.34766 153.32 -7.8125 105.957 -7.8125 c 0
 45.4102 -7.8125 15.1367 7.8125 15.1367 39.0625 c 0
 15.1367 50.293 19.043 58.5938 26.8555 64.4531 c 0
 35.1562 70.3125 42.4805 73.2422 49.8047 73.2422 c 0
 66.8945 73.2422 84.9609 65.4297 104.98 49.8047 c 0
 120.117 38.5742 133.301 33.2031 144.043 33.2031 c 0
 168.457 33.2031 187.988 44.4336 202.148 66.8945 c 0
 215.332 86.9141 222.168 111.816 222.168 142.09 c 0
 222.168 186.035 202.148 219.238 162.109 242.188 c 0
 144.531 251.465 126.465 258.789 107.422 264.16 c 0
 88.3789 269.531 69.3359 271.973 49.8047 271.973 c 0
 40.5273 271.973 36.1328 276.855 36.1328 286.133 c 2
 36.1328 291.016 l 1
 108.887 454.102 l 1
 249.023 454.102 l 2
 256.836 454.102 266.113 461.426 276.855 476.074 c 1
 295.898 460.938 l 1
EndSplineSet
EndChar
StartChar: six
Encoding: 54 54 23
OldEncoding: 54
Width: 330
Flags: HW
HStem: -8 21<108.5 210.5> 441 20<220 294>
VStem: 234 75<105.5 165.5>
Fore
234 124 m 0
 234 207 208 248 156 248 c 0
 135 248 118 244 106 232 c 1
 102 220 97 201 97 174 c 0
 97 113 109 27 174 27 c 0
 219 27 234 73 234 124 c 0
309 150 m 0
 309 61 257 -8 164 -8 c 0
 53 -8 17 97 17 197 c 0
 17 341 146 461 294 461 c 1
 298 435 l 1
 202 418 136 361 113 274 c 1
 122 279 128 282 139 286 c 0
 155 292 170 295 184 295 c 0
 262 295 309 233 309 150 c 0
EndSplineSet
MinimumDistance: x0,-1 
Back
233.887 124.023 m 0
 233.887 206.543 208.008 248.047 155.762 248.047 c 0
 145.508 248.047 135.742 247.07 127.441 244.629 c 0
 119.141 242.188 111.816 237.793 105.957 231.934 c 1
 104.004 226.074 102.051 218.262 100.098 208.496 c 0
 98.1445 198.73 97.168 187.5 97.168 173.828 c 0
 97.168 158.691 98.1445 142.09 100.098 125 c 0
 102.051 107.91 105.469 91.7969 110.84 77.6367 c 0
 116.211 62.9883 124.023 51.2695 134.277 41.5039 c 0
 145.02 31.7383 158.203 26.8555 173.828 26.8555 c 0
 185.547 26.8555 194.824 29.7852 202.637 35.1562 c 0
 209.961 40.5273 216.309 47.3633 221.191 56.6406 c 0
 225.586 65.4297 229.004 75.6836 230.957 87.4023 c 0
 232.91 99.1211 233.887 111.328 233.887 124.023 c 0
309.082 149.902 m 0
 309.082 127.93 305.664 107.422 299.316 87.8906 c 0
 292.969 68.8477 283.691 51.7578 271.484 37.5977 c 0
 259.277 22.9492 244.141 12.207 226.074 3.90625 c 0
 208.008 -3.90625 187.5 -7.8125 164.062 -7.8125 c 0
 136.23 -7.8125 112.793 -1.95312 94.2383 9.76562 c 0
 75.1953 21.9727 60.5469 37.5977 48.8281 57.1289 c 0
 37.5977 76.1719 29.2969 98.1445 24.4141 123.047 c 0
 19.5312 147.461 17.0898 172.363 17.0898 196.777 c 0
 17.0898 232.91 24.4141 267.09 39.5508 298.828 c 0
 54.6875 331.055 74.707 358.887 100.098 382.812 c 0
 125.488 407.227 154.785 425.781 188.477 439.941 c 0
 222.168 454.102 257.324 460.938 293.945 460.938 c 1
 297.852 435.059 l 1
 250 426.27 209.961 408.203 178.223 380.371 c 0
 145.996 353.027 124.512 317.383 112.793 273.926 c 1
 117.676 276.855 122.07 278.809 125.488 280.273 c 0
 129.395 282.227 133.789 284.18 139.16 286.133 c 0
 154.785 291.992 169.922 294.922 184.082 294.922 c 0
 203.125 294.922 220.703 291.504 236.328 284.18 c 0
 251.953 276.855 265.137 266.602 275.879 253.418 c 0
 286.621 240.723 294.922 225.098 300.293 207.52 c 0
 306.152 189.941 309.082 170.898 309.082 149.902 c 0
EndSplineSet
EndChar
StartChar: seven
Encoding: 55 55 24
OldEncoding: 55
Width: 320
Flags: HW
HStem: -4 21<109 170 170 170> 388 65<109 236 236 236>
Fore
308 431 m 1
 170 -4 l 1
 109 -4 l 1
 236 388 l 1
 109 388 l 2
 92 388 79 384 69 376 c 0
 65 373 55 359 39 331 c 1
 12 343 l 1
 54 453 l 1
 308 453 l 1
 308 431 l 1
EndSplineSet
MinimumDistance: x0,-1 
Back
308.105 431.152 m 1
 169.922 -3.90625 l 1
 108.887 -3.90625 l 1
 235.84 388.184 l 1
 108.887 388.184 l 2
 92.2852 388.184 79.1016 383.789 68.8477 375.977 c 0
 66.8945 374.512 63.4766 370.117 58.5938 362.793 c 0
 53.7109 355.469 46.875 345.215 39.0625 331.055 c 1
 12.207 342.773 l 1
 54.1992 453.125 l 1
 308.105 453.125 l 1
 308.105 431.152 l 1
EndSplineSet
EndChar
StartChar: eight
Encoding: 56 56 25
OldEncoding: 56
Width: 305
Flags: HW
HStem: -8 21<116.5 186> 441 20<120 183>
VStem: 89 128<87 102.5> 91 117<353 371.5> 208 62<351.5 371.5>
Fore
208 363 m 0
 208 380 203 395 194 406 c 0
 183 420 168 427 148 427 c 0
 116 427 91 404 91 368 c 0
 91 338 114 307 159 275 c 1
 174 287 186 299 189 303 c 0
 202 320 208 340 208 363 c 0
217 91 m 0
 217 114 211 131 198 144 c 0
 187 156 165 174 130 201 c 1
 113 184 108 178 105 173 c 0
 94 158 89 135 89 111 c 0
 89 63 114 27 158 27 c 0
 193 27 217 54 217 91 c 0
282 107 m 0
 282 28 222 -8 150 -8 c 0
 83 -8 23 33 23 104 c 0
 23 163 44 178 84 213 c 0
 88 216 92 219 100 226 c 1
 93 234 87 240 80 247 c 0
 45 279 27 298 27 352 c 0
 27 420 88 461 152 461 c 0
 214 461 270 429 270 360 c 0
 270 305 237 278 192 250 c 1
 197 245 204 238 211 233 c 0
 254 198 282 170 282 107 c 0
EndSplineSet
MinimumDistance: x0,-1 
Back
208.008 362.793 m 0
 208.008 380.371 203.125 394.531 193.848 405.762 c 0
 183.105 419.922 167.969 426.758 147.949 426.758 c 0
 131.836 426.758 118.652 421.875 107.422 411.133 c 0
 96.6797 400.391 90.8203 386.23 90.8203 368.164 c 0
 90.8203 337.891 113.77 307.129 159.18 274.902 c 1
 166.504 280.762 172.852 286.621 178.711 291.992 c 0
 184.082 297.363 187.5 300.781 188.965 303.223 c 0
 201.66 319.824 208.008 339.844 208.008 362.793 c 0
216.797 90.8203 m 0
 216.797 113.77 210.449 131.348 198.242 144.043 c 0
 192.871 149.902 184.57 157.715 172.852 166.992 c 0
 161.621 176.27 147.461 187.5 129.883 201.172 c 1
 121.094 192.383 115.234 186.035 111.816 182.617 c 0
 108.887 178.711 106.445 175.781 104.98 172.852 c 0
 99.6094 165.527 95.7031 156.738 92.7734 145.508 c 0
 90.332 134.277 88.8672 123.047 88.8672 110.84 c 0
 88.8672 86.9141 95.2148 66.8945 106.934 50.7812 c 0
 119.141 35.1562 136.23 26.8555 158.203 26.8555 c 0
 175.293 26.8555 189.453 33.2031 200.684 44.9219 c 0
 211.426 57.1289 216.797 72.2656 216.797 90.8203 c 0
282.227 106.934 m 0
 282.227 86.9141 278.32 69.8242 271.484 55.6641 c 0
 264.648 41.0156 254.883 29.2969 243.164 20.0195 c 0
 230.957 10.7422 216.797 3.90625 201.172 -0.976562 c 0
 185.059 -5.85938 167.969 -7.8125 149.902 -7.8125 c 0
 133.301 -7.8125 117.188 -5.37109 102.051 -0.488281 c 0
 86.4258 4.39453 73.2422 11.7188 61.5234 21.4844 c 0
 49.8047 31.25 40.5273 42.9688 33.6914 56.6406 c 0
 26.3672 70.3125 22.9492 85.9375 22.9492 104.004 c 0
 22.9492 118.652 24.4141 130.859 26.8555 141.113 c 0
 29.7852 150.879 33.6914 159.668 38.5742 167.48 c 0
 43.457 175.293 49.8047 182.617 57.6172 189.453 c 0
 64.9414 196.289 74.2188 204.102 83.9844 212.891 c 0
 85.9375 214.355 88.3789 215.82 90.332 217.773 c 0
 92.7734 220.215 96.1914 222.656 100.098 226.074 c 1
 96.6797 229.98 93.2617 233.887 89.8438 236.816 c 0
 86.4258 240.234 83.4961 243.652 80.0781 247.07 c 0
 71.2891 254.883 63.4766 262.695 57.1289 269.531 c 0
 50.293 276.367 44.9219 283.691 40.5273 291.504 c 0
 36.1328 299.316 32.7148 307.617 30.2734 317.383 c 0
 28.3203 327.148 26.8555 338.867 26.8555 352.051 c 0
 26.8555 369.141 30.2734 384.766 37.5977 397.949 c 0
 44.4336 411.133 53.7109 422.852 65.4297 432.129 c 0
 77.1484 441.406 90.332 448.73 105.469 453.613 c 0
 120.605 458.496 136.23 460.938 151.855 460.938 c 0
 167.48 460.938 182.129 458.984 196.289 455.078 c 0
 210.938 451.172 223.633 444.824 234.375 436.523 c 0
 245.605 428.223 254.395 417.48 260.742 404.785 c 0
 266.602 392.09 270.02 377.441 270.02 359.863 c 0
 270.02 332.52 262.695 311.035 248.047 294.922 c 0
 233.398 278.809 214.844 264.16 191.895 250 c 1
 194.824 247.559 197.754 244.629 201.172 241.699 c 0
 204.102 238.281 207.52 235.84 210.938 232.91 c 0
 221.68 224.121 231.445 215.82 240.234 207.52 c 0
 248.535 199.219 256.348 189.941 262.695 180.664 c 0
 269.043 170.898 273.438 160.156 276.855 148.438 c 0
 280.273 136.719 282.227 123.047 282.227 106.934 c 0
EndSplineSet
EndChar
StartChar: nine
Encoding: 57 57 26
OldEncoding: 57
Width: 331
Flags: HW
HStem: -13 21<40 80.5> 427 34<142 182>
VStem: 20 77<294 317> 232 81<236.5 242 242 268>
Fore
232 268 m 2
 232 374 207 427 157 427 c 0
 117 427 97 391 97 320 c 0
 97 268 112 201 170 201 c 0
 191 201 209 208 226 222 c 1
 230 224 232 231 232 242 c 2
 232 268 l 2
313 269 m 0
 313 193 290 129 243 78 c 1
 189 17 121 -13 40 -13 c 1
 36 16 l 1
 125 27 197 94 223 176 c 1
 198 163 172 156 145 156 c 0
 107 156 76 170 52 198 c 0
 31 223 20 255 20 294 c 0
 20 340 32 379 56 410 c 0
 83 445 120 461 164 461 c 0
 213 461 251 440 278 398 c 0
 301 361 313 318 313 269 c 0
EndSplineSet
MinimumDistance: x0,-1 
Back
231.934 268.066 m 2
 231.934 374.023 207.031 426.758 157.227 426.758 c 0
 117.188 426.758 97.168 391.113 97.168 319.824 c 0
 97.168 307.129 98.1445 293.945 100.586 279.297 c 0
 103.027 265.137 106.445 252.441 111.816 241.211 c 0
 117.188 229.492 124.512 220.215 133.789 212.402 c 0
 143.555 204.59 155.273 201.172 169.922 201.172 c 0
 190.43 201.172 209.473 208.008 226.074 222.168 c 1
 229.98 224.121 231.934 230.469 231.934 242.188 c 2
 231.934 268.066 l 2
312.988 269.043 m 0
 312.988 192.871 289.551 129.395 243.164 78.125 c 0
 188.965 17.0898 121.094 -13.1836 40.0391 -13.1836 c 1
 36.1328 16.1133 l 1
 58.5938 18.5547 79.5898 24.9023 99.6094 34.1797 c 0
 119.141 43.457 137.207 55.1758 152.832 69.3359 c 0
 168.945 83.9844 183.105 100.098 194.824 118.164 c 0
 207.031 136.23 216.309 155.273 223.145 175.781 c 1
 198.242 162.598 172.363 155.762 145.02 155.762 c 0
 106.934 155.762 76.1719 169.922 51.7578 198.242 c 0
 30.7617 223.145 20.0195 255.371 20.0195 293.945 c 0
 20.0195 339.844 32.2266 378.906 56.1523 410.156 c 0
 69.3359 427.246 84.9609 439.941 103.516 448.73 c 0
 122.07 457.031 142.09 460.938 164.062 460.938 c 0
 212.891 460.938 250.488 439.941 277.832 397.949 c 0
 301.27 360.84 312.988 317.871 312.988 269.043 c 0
EndSplineSet
EndChar
StartChar: colon
Encoding: 58 58 27
OldEncoding: 58
Width: 129
Flags: HW
HStem: -6 21<50.5 73.5> 301 20<50.5 73.5>
VStem: 24 77<26.5 51.5 263.5 288.5>
Fore
24 276 m 0
 24 301 39 321 62 321 c 0
 85 321 101 301 101 276 c 0
 101 251 85 231 62 231 c 0
 39 231 24 251 24 276 c 0
24 39 m 0
 24 64 39 84 62 84 c 0
 85 84 101 64 101 39 c 0
 101 14 85 -6 62 -6 c 0
 39 -6 24 14 24 39 c 0
EndSplineSet
Back
23.9258 275.879 m 0
 23.9258 263.184 27.3438 252.441 34.668 244.141 c 0
 41.5039 235.352 50.7812 230.957 62.0117 230.957 c 0
 73.2422 230.957 82.5195 235.352 89.8438 244.141 c 0
 97.168 252.441 101.074 263.184 101.074 275.879 c 0
 101.074 288.574 97.168 299.316 89.8438 308.105 c 0
 82.5195 316.895 73.2422 320.801 62.0117 320.801 c 0
 50.7812 320.801 41.5039 316.895 34.668 308.105 c 0
 27.3438 299.316 23.9258 288.574 23.9258 275.879 c 0
23.9258 39.0625 m 0
 23.9258 26.3672 27.3438 15.625 34.668 6.83594 c 0
 41.5039 -1.46484 50.7812 -5.85938 62.0117 -5.85938 c 0
 73.2422 -5.85938 82.5195 -1.46484 89.8438 6.83594 c 0
 97.168 15.625 101.074 26.3672 101.074 39.0625 c 0
 101.074 51.7578 97.168 62.5 89.8438 70.8008 c 0
 82.5195 79.5898 73.2422 83.9844 62.0117 83.9844 c 0
 50.7812 83.9844 41.5039 79.5898 34.668 70.8008 c 0
 27.3438 62.5 23.9258 51.7578 23.9258 39.0625 c 0
EndSplineSet
EndChar
StartChar: semicolon
Encoding: 59 59 28
OldEncoding: 59
Width: 129
Flags: HW
HStem: -87 21<37.5 38> 305 20<45.5 68.5>
Fore
78 82 m 1
 98 73 116 51 116 16 c 0
 117 -55 37 -87 38 -87 c 1
 29 -61 l 1
 29 -61 34 -60 42 -53 c 0
 59 -41 77 -21 77 -1 c 2
 77 4 l 1
 70 3 65 2 60 2 c 0
 37 2 18 20 18 43 c 0
 18 67 37 85 60 85 c 0
 67 85 74 85 78 82 c 1
19 280 m 0
 19 305 34 325 57 325 c 0
 80 325 96 305 96 280 c 0
 96 255 80 235 57 235 c 0
 34 235 19 255 19 280 c 0
EndSplineSet
Back
78.125 82.0312 m 0
 76.1719 83.4961 73.2422 83.9844 69.8242 84.4727 c 0
 66.8945 84.9609 63.4766 84.9609 60.0586 84.9609 c 0
 48.8281 84.9609 39.0625 81.0547 30.2734 73.2422 c 0
 21.9727 64.9414 18.0664 55.1758 18.0664 42.9688 c 0
 18.0664 31.7383 21.9727 21.9727 30.2734 14.1602 c 0
 39.0625 5.85938 48.8281 1.95312 60.0586 1.95312 c 0
 64.4531 1.95312 70.3125 2.44141 77.1484 3.90625 c 1
 77.1484 -0.976562 l 2
 77.1484 -11.2305 73.2422 -20.5078 65.918 -29.7852 c 0
 58.5938 -39.5508 50.7812 -46.875 41.9922 -53.2227 c 0
 38.0859 -56.1523 34.668 -58.5938 32.7148 -59.5703 c 0
 30.2734 -60.5469 28.8086 -61.0352 28.8086 -61.0352 c 1
 38.0859 -86.9141 l 1
 38.0859 -86.9141 41.9922 -84.9609 49.8047 -81.0547 c 0
 58.1055 -77.1484 66.8945 -70.8008 77.1484 -62.0117 c 0
 86.9141 -53.2227 96.1914 -42.4805 104.004 -29.7852 c 0
 111.816 -17.0898 116.211 -1.95312 116.211 16.1133 c 0
 116.211 33.2031 112.305 47.3633 104.492 58.5938 c 0
 96.6797 69.3359 87.8906 77.1484 78.125 82.0312 c 0
19.043 279.785 m 0
 19.043 267.09 22.4609 256.836 29.2969 248.047 c 0
 36.6211 239.258 45.8984 234.863 57.1289 234.863 c 0
 68.3594 234.863 77.6367 239.258 84.9609 248.047 c 0
 92.2852 256.836 96.1914 267.09 96.1914 279.785 c 0
 96.1914 292.48 92.2852 303.223 84.9609 312.012 c 0
 77.6367 320.801 68.3594 325.195 57.1289 325.195 c 0
 45.8984 325.195 36.6211 320.801 29.2969 312.012 c 0
 22.4609 303.223 19.043 292.48 19.043 279.785 c 0
EndSplineSet
EndChar
StartChar: less
Encoding: 60 60 29
OldEncoding: 60
Width: 387
Flags: HW
HStem: -9 21<357 357> 345 20<357 357>
Fore
357 -9 m 1
 2 152 l 1
 2 203 l 1
 357 365 l 1
 357 310 l 1
 67 178 l 1
 357 46 l 1
 357 -9 l 1
EndSplineSet
MinimumDistance: x0,-1 
Back
356.934 -8.78906 m 1
 1.95312 151.855 l 1
 1.95312 203.125 l 1
 356.934 365.234 l 1
 356.934 310.059 l 1
 66.8945 178.223 l 1
 356.934 45.8984 l 1
 356.934 -8.78906 l 1
EndSplineSet
EndChar
StartChar: equal
Encoding: 61 61 30
OldEncoding: 61
Width: 394
Flags: HW
HStem: 82 48<31 384> 209 48<31 384>
Fore
384 209 m 1
 31 209 l 1
 31 257 l 1
 384 257 l 1
 384 209 l 1
384 82 m 1
 31 82 l 1
 31 130 l 1
 384 130 l 1
 384 82 l 1
EndSplineSet
Back
383.789 208.984 m 1
 30.7617 208.984 l 1
 30.7617 256.836 l 1
 383.789 256.836 l 1
 383.789 208.984 l 1
383.789 82.0312 m 1
 30.7617 82.0312 l 1
 30.7617 129.883 l 1
 383.789 129.883 l 1
 383.789 82.0312 l 1
EndSplineSet
EndChar
StartChar: greater
Encoding: 62 62 31
OldEncoding: 62
Width: 386
Flags: HW
HStem: -9 21<29 29> 345 20<29 29>
Fore
384 152 m 1
 29 -9 l 1
 29 46 l 1
 318 178 l 1
 29 310 l 1
 29 365 l 1
 384 203 l 1
 384 152 l 1
EndSplineSet
MinimumDistance: x0,-1 
Back
383.789 151.855 m 1
 28.8086 -8.78906 l 1
 28.8086 45.8984 l 1
 317.871 178.223 l 1
 28.8086 310.059 l 1
 28.8086 365.234 l 1
 383.789 203.125 l 1
 383.789 151.855 l 1
EndSplineSet
EndChar
StartChar: question
Encoding: 63 63 32
OldEncoding: 63
Width: 269
Flags: HW
HStem: -4 21<119 143> 453 20<97.5 144.5>
Fore
255 353 m 0
 255 322 241 285 204 242 c 0
 189 223 175 205 163 184 c 0
 158 174 151 150 144 111 c 1
 116 111 l 1
 116 150 123 186 136 219 c 1
 154 261 l 2
 171 300 177 332 177 359 c 0
 177 403 155 436 115 436 c 0
 104 436 91 433 80 426 c 0
 69 419 64 411 64 403 c 0
 64 400 67 393 74 386 c 0
 85 377 89 362 89 353 c 2
 89 350 l 2
 89 327 74 316 55 316 c 0
 35 316 13 332 13 367 c 0
 13 431 67 473 128 473 c 0
 161 473 202 464 229 432 c 0
 248 408 255 381 255 353 c 0
88 39 m 0
 88 63 107 83 131 83 c 0
 155 83 175 63 175 39 c 0
 175 15 155 -4 131 -4 c 0
 107 -4 88 15 88 39 c 0
EndSplineSet
MinimumDistance: x8,-1 
Back
254.883 353.027 m 0
 254.883 367.188 252.93 380.859 249.023 394.043 c 0
 245.117 407.227 238.281 419.922 229.004 432.129 c 0
 215.82 448.242 199.707 458.984 181.152 464.355 c 0
 162.109 470.215 144.531 473.145 127.93 473.145 c 0
 112.793 473.145 98.1445 470.703 83.9844 465.332 c 0
 69.8242 460.449 57.6172 453.125 47.3633 443.848 c 0
 37.1094 434.57 28.8086 423.34 22.4609 410.645 c 0
 16.1133 397.461 13.1836 382.812 13.1836 367.188 c 0
 13.1836 349.609 17.5781 336.914 26.3672 328.613 c 0
 35.6445 320.312 44.9219 315.918 55.1758 315.918 c 0
 64.4531 315.918 72.2656 318.848 79.1016 324.707 c 0
 85.4492 330.078 88.8672 338.867 88.8672 350.098 c 2
 88.8672 353.027 l 2
 88.8672 357.91 87.8906 363.281 85.4492 369.629 c 0
 83.0078 375.977 79.1016 381.348 74.2188 386.23 c 0
 70.8008 389.16 68.3594 392.578 66.4062 395.996 c 0
 64.9414 399.414 63.9648 401.855 63.9648 402.832 c 0
 63.9648 411.133 69.3359 418.457 80.0781 425.781 c 0
 85.4492 429.199 91.3086 431.641 97.6562 433.594 c 0
 104.004 435.059 109.863 436.035 115.234 436.035 c 0
 134.766 436.035 150.391 428.711 161.133 414.062 c 0
 171.875 399.414 176.758 380.859 176.758 358.887 c 0
 176.758 345.703 175.293 331.055 171.875 314.453 c 0
 168.457 298.34 162.598 280.273 153.809 261.23 c 2
 136.23 219.238 l 2
 122.559 186.523 116.211 150.391 116.211 110.84 c 1
 144.043 110.84 l 1
 151.367 149.902 157.715 173.828 163.086 184.082 c 0
 168.945 194.824 175.293 204.59 182.617 213.867 c 0
 189.453 223.145 196.777 232.91 204.102 242.188 c 0
 222.656 263.184 235.84 283.203 243.652 301.758 c 0
 250.977 320.801 254.883 337.891 254.883 353.027 c 0
87.8906 39.0625 m 0
 87.8906 26.8555 92.2852 16.6016 100.586 8.30078 c 0
 108.887 0 119.141 -3.90625 130.859 -3.90625 c 0
 143.066 -3.90625 153.32 0 162.109 8.30078 c 0
 170.898 16.6016 174.805 26.8555 174.805 39.0625 c 0
 174.805 50.7812 170.898 61.5234 162.109 69.8242 c 0
 153.32 78.6133 143.066 83.0078 130.859 83.0078 c 0
 119.141 83.0078 108.887 78.6133 100.586 69.8242 c 0
 92.2852 61.5234 87.8906 50.7812 87.8906 39.0625 c 0
EndSplineSet
EndChar
StartChar: at
Encoding: 64 64 33
OldEncoding: 64
Width: 516
Flags: HW
HStem: -8 41<236.5 296.5> 93 48 322 20<339 406 339 339> 424 37<235 300.5>
VStem: 21 75<189 250.5> 156 64<171.5 200.5> 319 175<257.5 282.5>
Fore
299 192 m 0
 310 219 319 244 319 271 c 0
 319 294 313 305 301 305 c 0
 278 305 259 291 244 264 c 0
 229 237 220 214 220 187 c 0
 220 156 231 141 252 141 c 0
 269 141 284 158 299 192 c 0
494 259 m 0
 494 218 483 182 461 150 c 0
 436 112 403 93 362 93 c 0
 339 93 325 102 310 117 c 0
 306 122 303 127 300 132 c 1
 284 117 l 1
 268 104 248 93 229 93 c 0
 185 93 156 125 156 185 c 0
 156 216 167 250 188 286 c 0
 214 330 250 352 296 352 c 0
 320 352 329 338 336 330 c 1
 339 342 l 1
 406 342 l 1
 359 165 l 1
 358 149 l 1
 358 138 363 133 373 133 c 0
 423 133 449 212 449 258 c 0
 449 352 359 424 270 424 c 0
 151 424 96 324 96 209 c 0
 96 109 178 33 276 33 c 0
 317 33 361 45 410 68 c 1
 425 32 l 1
 364 5 316 -8 277 -8 c 0
 196 -8 131 17 82 68 c 0
 39 112 21 163 21 215 c 0
 21 286 45 344 92 391 c 0
 141 438 200 461 270 461 c 0
 331 461 382 443 425 407 c 0
 471 370 494 320 494 259 c 0
EndSplineSet
MinimumDistance: x0,-1 
Back
298.828 191.895 m 0
 304.199 205.566 309.082 218.262 312.988 231.445 c 0
 316.895 244.629 318.848 257.812 318.848 270.996 c 0
 318.848 293.457 312.988 305.176 300.781 305.176 c 0
 278.32 305.176 259.277 291.504 244.141 264.16 c 0
 236.816 250.488 230.957 237.793 226.562 225.586 c 0
 222.168 213.379 220.215 200.195 220.215 187.012 c 0
 220.215 156.25 230.469 141.113 251.953 141.113 c 0
 268.555 141.113 284.18 158.203 298.828 191.895 c 0
494.141 258.789 m 0
 494.141 218.262 482.91 182.129 460.938 149.902 c 0
 436.523 111.816 403.32 92.7734 361.816 92.7734 c 0
 350.586 92.7734 340.82 95.2148 333.008 99.6094 c 0
 325.195 104.004 317.383 109.863 310.059 117.188 c 0
 308.105 119.629 306.152 122.07 304.688 124.512 c 0
 302.734 126.953 301.27 129.395 299.805 131.836 c 1
 284.18 117.188 l 2
 275.879 110.352 267.09 104.492 257.324 100.098 c 0
 248.047 95.2148 238.281 92.7734 229.004 92.7734 c 0
 207.031 92.7734 189.453 101.074 175.781 116.699 c 0
 162.598 132.324 155.762 154.785 155.762 185.059 c 0
 155.762 216.309 166.504 250 187.988 286.133 c 0
 213.867 330.078 250 352.051 295.898 352.051 c 0
 308.105 352.051 316.895 349.121 322.266 344.238 c 0
 328.125 338.867 332.52 333.984 335.938 330.078 c 1
 338.867 341.797 l 1
 405.762 341.797 l 1
 358.887 165.039 l 1
 357.91 148.926 l 1
 357.91 138.184 362.793 132.812 373.047 132.812 c 0
 385.742 132.812 396.484 137.207 405.762 145.996 c 0
 415.527 154.785 423.34 165.527 429.688 178.223 c 0
 436.035 190.43 440.43 204.102 443.848 219.238 c 0
 447.266 233.887 449.219 246.582 449.219 257.812 c 0
 449.219 281.25 443.848 303.223 433.594 323.73 c 0
 423.34 343.75 409.668 361.328 393.066 376.465 c 0
 376.465 391.602 356.934 403.32 335.449 411.621 c 0
 313.965 419.922 291.992 423.828 270.02 423.828 c 0
 240.234 423.828 214.355 417.969 192.383 406.738 c 0
 170.898 395.02 152.832 379.395 138.672 359.375 c 0
 124.023 339.844 113.281 316.895 106.445 291.016 c 0
 99.6094 265.137 96.1914 237.793 96.1914 208.984 c 0
 96.1914 184.57 101.074 161.133 110.352 139.648 c 0
 120.117 117.676 133.301 99.1211 149.414 83.4961 c 0
 166.016 67.8711 185.059 55.6641 206.543 46.3867 c 0
 228.027 37.5977 251.465 33.2031 275.879 33.2031 c 0
 316.895 33.2031 361.328 44.4336 410.156 67.8711 c 1
 424.805 32.2266 l 1
 394.531 18.5547 366.699 8.78906 342.285 1.95312 c 0
 318.359 -4.88281 296.387 -7.8125 276.855 -7.8125 c 0
 195.801 -7.8125 130.859 17.0898 82.0312 67.8711 c 0
 60.5469 89.8438 45.4102 113.281 35.6445 138.672 c 0
 25.8789 163.574 20.9961 188.965 20.9961 214.844 c 0
 20.9961 285.645 44.4336 344.238 91.7969 391.113 c 0
 140.625 437.5 200.195 460.938 270.02 460.938 c 0
 330.566 460.938 382.324 442.871 424.805 407.227 c 0
 471.191 369.629 494.141 320.312 494.141 258.789 c 0
EndSplineSet
EndChar
StartChar: A
Encoding: 65 65 34
OldEncoding: 65
Width: 496
Flags: HW
HStem: 0 29<11 22.5 147.5 162 297 324 470.5 485> 139 45<168 290> 432 20<227 264 227 227>
Fore
168 184 m 1
 290 184 l 1
 230 328 l 1
 168 184 l 1
485 0 m 1
 297 0 l 1
 297 29 l 1
 324 29 l 2
 336 29 342 38 342 43 c 0
 342 54 337 71 330 84 c 1
 306 139 l 1
 150 139 l 1
 123 69 l 2
 120 62 118 55 118 48 c 0
 118 35 133 29 162 29 c 1
 162 0 l 1
 11 0 l 1
 11 29 l 1
 34 29 53 45 64 66 c 1
 227 452 l 1
 264 452 l 1
 426 81 l 1
 445 40 456 29 485 29 c 1
 485 0 l 1
EndSplineSet
MinimumDistance: x0,-1 
Back
167.969 184.082 m 1
 290.039 184.082 l 1
 229.98 328.125 l 1
 167.969 184.082 l 1
484.863 0 m 1
 296.875 0 l 1
 296.875 28.8086 l 1
 324.219 28.8086 l 2
 330.078 28.8086 334.473 30.7617 337.402 34.1797 c 0
 340.332 37.1094 341.797 40.5273 341.797 42.9688 c 0
 341.797 48.3398 340.82 54.6875 338.379 62.5 c 0
 335.938 70.3125 333.496 77.1484 330.078 83.9844 c 2
 306.152 139.16 l 1
 149.902 139.16 l 1
 123.047 68.8477 l 1
 119.629 62.5 118.164 55.1758 118.164 47.8516 c 0
 118.164 35.1562 132.812 28.8086 162.109 28.8086 c 1
 162.109 0 l 1
 11.2305 0 l 1
 11.2305 28.8086 l 1
 22.4609 28.8086 32.7148 32.7148 41.9922 39.5508 c 0
 51.2695 46.3867 58.5938 55.1758 63.9648 65.918 c 1
 227.051 452.148 l 1
 264.16 452.148 l 1
 425.781 81.0547 l 2
 435.547 60.5469 443.848 46.3867 451.66 39.5508 c 0
 458.984 32.7148 470.215 28.8086 484.863 28.8086 c 1
 484.863 0 l 1
EndSplineSet
EndChar
StartChar: B
Encoding: 66 66 35
OldEncoding: 66
Width: 451
Flags: HW
HStem: 0 41<209.5 254.5> 214 46 411 41<181 210 210 226>
VStem: 86 90<61 80 80 214 257 372> 315 90<315.5 356.5> 329 98<124 148.5>
Fore
315 329 m 0
 315 384 280 411 210 411 c 2
 181 411 l 2
 178 411 176 407 176 399 c 2
 176 257 l 1
 229 258 l 2
 286 259 315 283 315 329 c 0
329 127 m 0
 329 170 306 197 261 208 c 0
 244 212 216 214 176 214 c 1
 176 61 l 2
 176 52 179 46 186 43 c 2
 185 43 l 2
 192 42 202 41 217 41 c 0
 292 41 329 70 329 127 c 0
427 124 m 1
 424 47 362 0 269 0 c 2
 23 0 l 1
 23 30 l 1
 74 30 86 37 86 80 c 2
 86 372 l 2
 86 399 86 416 63 419 c 2
 23 424 l 1
 23 452 l 1
 226 452 l 2
 345 452 405 412 405 333 c 0
 405 298 390 274 369 255 c 0
 362 248 351 244 339 239 c 1
 398 218 427 180 427 124 c 1
EndSplineSet
MinimumDistance: x0,-1 
Back
314.941 329.102 m 0
 314.941 383.789 279.785 411.133 209.961 411.133 c 2
 181.152 411.133 l 2
 177.734 411.133 175.781 407.227 175.781 398.926 c 2
 175.781 256.836 l 1
 229.004 257.812 l 2
 286.133 259.277 314.941 283.203 314.941 329.102 c 0
329.102 126.953 m 0
 329.102 169.434 306.152 196.777 261.23 208.008 c 0
 244.141 211.914 215.82 213.867 175.781 213.867 c 1
 175.781 61.0352 l 2
 175.781 52.2461 179.199 46.3867 186.035 42.9688 c 2
 185.059 42.9688 l 2
 191.895 41.5039 202.148 41.0156 216.797 41.0156 c 0
 291.504 41.0156 329.102 69.8242 329.102 126.953 c 0
426.758 124.023 m 0
 425.781 85.4492 410.645 55.1758 381.836 33.2031 c 0
 353.516 11.2305 315.43 0 269.043 0 c 2
 22.9492 0 l 1
 22.9492 29.7852 l 1
 48.3398 29.7852 64.9414 33.2031 73.7305 39.0625 c 0
 82.0312 44.9219 85.9375 58.5938 85.9375 80.0781 c 2
 85.9375 372.07 l 2
 85.9375 385.254 84.9609 395.996 83.0078 404.297 c 0
 81.0547 412.598 74.2188 417.48 62.9883 418.945 c 2
 22.9492 423.828 l 1
 22.9492 452.148 l 1
 226.074 452.148 l 2
 345.215 452.148 404.785 412.109 404.785 333.008 c 0
 404.785 315.43 401.855 300.781 395.02 288.086 c 0
 388.184 275.391 379.883 264.16 369.141 254.883 c 0
 365.723 251.465 361.328 249.023 355.957 246.582 c 0
 350.586 244.141 345.215 241.699 338.867 238.77 c 1
 397.461 218.262 426.758 180.176 426.758 124.023 c 0
EndSplineSet
EndChar
StartChar: C
Encoding: 67 67 36
OldEncoding: 67
Width: 460
Flags: HW
HStem: -8 44<241.5 275> 410 41 433 20<390 424 390 390> 434 20<208.5 255>
VStem: 21 104<193 246.5>
Fore
435 83 m 1
 424 64 410 49 386 33 c 0
 347 6 301 -8 249 -8 c 0
 178 -8 120 13 81 54 c 0
 41 97 21 152 21 221 c 0
 21 286 43 342 86 389 c 0
 127 433 180 454 237 454 c 0
 273 454 323 446 330 444 c 2
 370 432 l 1
 378 433 385 440 390 453 c 1
 424 453 l 1
 430 292 l 1
 394 292 l 1
 378 368 330 410 259 410 c 0
 215 410 182 390 159 351 c 0
 138 315 125 274 125 219 c 0
 125 167 136 125 161 90 c 0
 185 57 216 36 267 36 c 0
 315 36 363 59 411 105 c 1
 435 83 l 1
EndSplineSet
MinimumDistance: x13,-1 
Back
435.059 83.0078 m 1
 429.688 73.7305 423.34 64.9414 415.527 57.1289 c 0
 407.715 48.8281 397.949 41.0156 386.23 33.2031 c 0
 366.699 19.5312 345.703 9.27734 322.266 2.44141 c 0
 299.316 -4.39453 274.902 -7.8125 249.023 -7.8125 c 0
 213.867 -7.8125 181.641 -2.92969 152.832 7.32422 c 0
 124.512 18.0664 100.098 33.2031 81.0547 54.1992 c 0
 41.0156 96.6797 20.9961 152.344 20.9961 221.191 c 0
 20.9961 285.645 42.4805 341.797 85.9375 389.16 c 0
 106.445 411.133 129.883 427.246 155.273 437.988 c 0
 181.152 448.73 208.496 454.102 236.816 454.102 c 0
 246.094 454.102 255.859 453.613 266.113 452.637 c 0
 275.879 451.66 285.645 450.684 294.434 449.707 c 0
 303.711 448.73 311.035 447.266 317.383 446.289 c 0
 323.73 445.312 328.125 444.824 330.078 443.848 c 2
 370.117 432.129 l 1
 377.93 432.617 384.766 439.453 390.137 453.125 c 1
 423.828 453.125 l 1
 430.176 291.992 l 1
 394.043 291.992 l 1
 386.23 330.078 370.117 359.375 347.168 379.395 c 0
 323.73 399.902 294.434 410.156 258.789 410.156 c 0
 214.844 410.156 181.641 390.137 159.18 351.074 c 0
 148.438 333.008 140.137 313.477 133.789 291.992 c 0
 127.93 270.508 125 246.094 125 219.238 c 0
 125 192.871 127.93 169.434 133.301 147.949 c 0
 139.16 126.465 148.438 107.422 161.133 89.8438 c 0
 172.852 73.2422 187.5 60.0586 204.102 50.293 c 0
 220.703 41.0156 241.699 36.1328 267.09 36.1328 c 0
 314.941 36.1328 362.793 59.082 411.133 104.98 c 1
 435.059 83.0078 l 1
EndSplineSet
EndChar
StartChar: D
Encoding: 68 68 37
OldEncoding: 68
Width: 516
Flags: HW
HStem: 0 41<198 232 232 268.5> 412 41<185.5 222>
VStem: 83 91<61 80 80 373> 393 101<195 256>
Fore
393 225 m 0
 393 287 375 334 338 365 c 0
 303 396 260 412 195 412 c 0
 176 412 174 412 174 393 c 2
 174 61 l 2
 174 42 192 41 204 41 c 0
 333 41 393 102 393 225 c 0
494 225 m 0
 494 165 476 117 441 78 c 0
 395 26 325 0 232 0 c 2
 25 0 l 1
 25 30 l 1
 70 30 83 37 83 80 c 2
 83 373 l 2
 83 401 82 418 61 421 c 2
 25 424 l 1
 25 453 l 1
 222 453 l 2
 302 453 366 436 413 401 c 1
 467 363 494 304 494 225 c 0
EndSplineSet
MinimumDistance: x0,-1 
Back
393.066 225.098 m 0
 393.066 287.109 374.512 333.496 337.891 365.234 c 0
 320.801 380.371 300.781 392.09 277.832 399.902 c 0
 255.371 408.203 227.539 412.109 194.824 412.109 c 0
 185.547 412.109 179.688 411.133 177.734 409.668 c 0
 175.293 407.715 173.828 402.344 173.828 393.066 c 2
 173.828 61.0352 l 2
 173.828 51.7578 177.734 45.8984 184.57 43.9453 c 0
 191.406 41.9922 198.242 41.0156 204.102 41.0156 c 0
 268.555 41.0156 316.406 56.1523 347.168 86.9141 c 0
 377.441 117.676 393.066 163.574 393.066 225.098 c 0
494.141 225.098 m 0
 494.141 194.824 489.258 167.969 480.469 143.555 c 0
 471.68 119.141 458.496 97.168 440.918 78.125 c 0
 395.02 25.8789 325.195 0 231.934 0 c 2
 24.9023 0 l 1
 24.9023 29.7852 l 1
 36.1328 29.7852 45.8984 30.7617 53.2227 32.2266 c 0
 60.5469 33.2031 66.4062 35.6445 70.8008 39.0625 c 0
 75.6836 42.4805 78.6133 47.3633 80.5664 54.1992 c 0
 82.0312 60.5469 83.0078 69.3359 83.0078 80.0781 c 2
 83.0078 373.047 l 2
 83.0078 387.207 82.0312 397.949 80.0781 406.738 c 0
 78.125 415.039 71.7773 419.434 61.0352 420.898 c 2
 24.9023 423.828 l 1
 24.9023 453.125 l 1
 222.168 453.125 l 2
 301.758 453.125 365.723 435.547 413.086 400.879 c 0
 466.797 362.793 494.141 304.199 494.141 225.098 c 0
EndSplineSet
EndChar
StartChar: E
Encoding: 69 69 38
OldEncoding: 69
Width: 458
Flags: HW
HStem: 0 42<191.5 203 203 256> 214 46<173 258> 321 20<358 396 396 396> 412 41<187 267 267 282>
VStem: 81 92<62 80 80 214 260 373>
Fore
434 128 m 1
 400 0 l 1
 25 0 l 1
 25 30 l 1
 69 30 81 41 81 80 c 2
 81 373 l 2
 81 404 80 415 59 419 c 2
 25 424 l 1
 25 453 l 1
 396 453 l 1
 396 341 l 1
 358 341 l 1
 353 374 345 395 332 402 c 0
 319 409 297 412 267 412 c 2
 187 412 l 2
 178 412 173 402 173 393 c 2
 173 260 l 1
 258 260 l 2
 282 260 297 263 303 269 c 0
 311 276 317 293 321 322 c 1
 361 322 l 1
 361 153 l 1
 321 153 l 1
 317 182 312 200 305 205 c 0
 299 211 283 214 258 214 c 2
 173 214 l 1
 173 62 l 2
 173 50 180 42 203 42 c 2
 256 42 l 2
 294 42 321 47 338 57 c 0
 358 69 377 92 392 128 c 1
 434 128 l 1
EndSplineSet
MinimumDistance: x13,-1 
Back
434.082 127.93 m 1
 399.902 0 l 1
 24.9023 0 l 1
 24.9023 29.7852 l 1
 46.875 29.7852 62.0117 33.6914 69.3359 40.5273 c 0
 77.1484 47.3633 81.0547 60.5469 81.0547 80.0781 c 2
 81.0547 373.047 l 2
 81.0547 388.184 80.0781 399.414 78.125 405.762 c 0
 76.1719 412.598 69.8242 416.992 59.082 418.945 c 2
 24.9023 423.828 l 1
 24.9023 453.125 l 1
 395.996 453.125 l 1
 395.996 340.82 l 1
 357.91 340.82 l 1
 353.516 374.512 344.727 394.531 332.031 401.855 c 0
 318.848 408.691 296.875 412.109 267.09 412.109 c 2
 187.012 412.109 l 2
 182.129 412.109 178.711 410.156 176.27 405.762 c 0
 174.316 401.855 172.852 397.461 172.852 393.066 c 2
 172.852 259.766 l 1
 257.812 259.766 l 2
 282.227 259.766 296.875 263.184 303.223 269.043 c 0
 311.035 275.879 316.895 293.457 320.801 321.777 c 1
 360.84 321.777 l 1
 360.84 152.832 l 1
 320.801 152.832 l 1
 316.895 182.129 311.523 199.707 305.176 205.078 c 0
 298.828 210.938 283.203 213.867 257.812 213.867 c 2
 172.852 213.867 l 1
 172.852 62.0117 l 2
 172.852 56.1523 175.293 51.2695 179.688 47.3633 c 0
 183.594 43.9453 191.895 41.9922 203.125 41.9922 c 2
 255.859 41.9922 l 2
 293.945 41.9922 321.289 46.875 337.891 57.1289 c 0
 348.145 62.9883 357.91 71.7773 367.188 83.4961 c 0
 376.465 95.2148 384.766 109.863 392.09 127.93 c 1
 434.082 127.93 l 1
EndSplineSet
EndChar
StartChar: F
Encoding: 70 70 39
OldEncoding: 70
Width: 412
Flags: HW
HStem: 0 30<24 37 207 229> 216 44<172 255> 321 20 411 41<182 270 270 284.5>
VStem: 80 92<80 88 88 216 260 372> 315 41
Fore
399 341 m 1
 360 341 l 1
 356 374 347 394 334 401 c 0
 321 408 299 411 270 411 c 2
 182 411 l 2
 175 411 172 406 172 396 c 2
 172 260 l 1
 255 260 l 2
 300 260 314 273 318 321 c 1
 356 321 l 1
 356 152 l 1
 318 152 l 1
 314 201 299 216 255 216 c 2
 172 216 l 1
 172 80 l 2
 172 41 185 30 229 30 c 1
 229 0 l 1
 24 0 l 1
 24 30 l 1
 50 30 66 34 73 42 c 0
 78 49 80 64 80 88 c 2
 80 372 l 2
 80 414 63 419 58 419 c 2
 24 424 l 1
 24 452 l 1
 397 452 l 1
 399 341 l 1
EndSplineSet
MinimumDistance: x0,-1 
Back
398.926 340.82 m 1
 359.863 340.82 l 1
 355.957 373.535 347.168 393.555 333.984 400.879 c 0
 320.801 407.715 299.316 411.133 270.02 411.133 c 2
 182.129 411.133 l 2
 175.293 411.133 171.875 405.762 171.875 395.996 c 2
 171.875 259.766 l 1
 254.883 259.766 l 2
 277.832 259.766 293.457 264.16 301.758 272.461 c 0
 310.547 280.762 315.918 296.875 317.871 320.801 c 1
 355.957 320.801 l 1
 355.957 151.855 l 1
 317.871 151.855 l 1
 315.918 176.758 310.547 193.359 301.27 202.637 c 0
 292.48 211.426 276.855 215.82 254.883 215.82 c 2
 171.875 215.82 l 1
 171.875 80.0781 l 2
 171.875 60.5469 175.781 47.3633 184.082 40.5273 c 0
 191.895 33.6914 207.031 29.7852 229.004 29.7852 c 1
 229.004 0 l 1
 23.9258 0 l 1
 23.9258 29.7852 l 1
 49.8047 29.7852 66.4062 34.1797 73.2422 41.9922 c 0
 77.6367 48.8281 80.0781 63.9648 80.0781 87.8906 c 2
 80.0781 372.07 l 2
 80.0781 382.812 79.1016 391.113 77.6367 396.973 c 0
 75.6836 402.832 73.7305 407.715 70.8008 411.133 c 0
 68.3594 414.551 65.918 416.504 63.4766 417.48 c 0
 61.0352 418.457 59.5703 418.945 58.1055 418.945 c 2
 23.9258 423.828 l 1
 23.9258 452.148 l 1
 396.973 452.148 l 1
 398.926 340.82 l 1
EndSplineSet
EndChar
StartChar: G
Encoding: 71 71 40
OldEncoding: 71
Width: 507
Flags: HW
HStem: -8 21<230.5 281.5> 218 33<300 308.5> 411 43<243.5 271>
VStem: 23 104<196.5 242.5> 356 85<58.5 63 63 168>
Fore
486 218 m 1
 465 216 453 214 451 212 c 0
 444 205 441 193 441 175 c 2
 441 46 l 2
 441 28 391 14 345 3 c 0
 312 -4 291 -8 272 -8 c 0
 189 -8 125 16 80 63 c 0
 35 111 23 164 23 229 c 0
 23 294 45 348 90 391 c 0
 133 432 192 454 259 454 c 0
 283 454 324 450 337 445 c 2
 377 432 l 1
 386 432 392 439 397 454 c 1
 433 454 l 1
 438 300 l 1
 403 300 l 1
 374 374 330 411 269 411 c 0
 218 411 186 393 159 350 c 0
 136 313 127 269 127 216 c 0
 127 164 138 119 165 88 c 0
 197 52 225 34 276 34 c 0
 291 34 310 37 326 41 c 0
 346 46 356 54 356 63 c 2
 356 168 l 2
 356 199 354 210 334 215 c 0
 328 217 317 218 300 218 c 1
 300 251 l 1
 486 251 l 1
 486 218 l 1
EndSplineSet
MinimumDistance: x0,-1 
Back
485.84 217.773 m 1
 464.844 215.82 453.125 213.867 451.172 211.914 c 0
 444.336 205.566 440.918 192.871 440.918 174.805 c 2
 440.918 45.8984 l 2
 440.918 41.9922 437.988 37.5977 432.617 33.6914 c 0
 426.758 29.2969 419.434 25.3906 410.645 21.4844 c 0
 401.367 18.0664 391.113 14.6484 379.395 11.7188 c 0
 367.676 8.30078 356.445 5.85938 345.215 2.92969 c 0
 328.125 -0.488281 314.453 -2.92969 303.223 -4.88281 c 0
 291.504 -6.83594 281.25 -7.8125 271.973 -7.8125 c 0
 189.453 -7.8125 125.488 15.625 80.0781 62.9883 c 0
 57.1289 86.9141 41.9922 112.305 34.668 139.648 c 0
 26.8555 166.504 22.9492 196.289 22.9492 229.004 c 0
 22.9492 294.434 45.4102 348.145 89.8438 391.113 c 0
 111.328 411.621 136.719 427.246 165.527 437.988 c 0
 194.336 448.73 225.586 454.102 258.789 454.102 c 0
 265.137 454.102 271.973 453.613 279.297 453.613 c 0
 287.109 453.125 294.434 452.637 301.758 451.66 c 0
 309.57 450.684 316.406 449.707 322.266 448.73 c 0
 328.613 447.266 333.496 446.289 336.914 444.824 c 2
 376.953 432.129 l 1
 385.742 432.129 392.09 439.453 396.973 454.102 c 1
 433.105 454.102 l 1
 437.988 299.805 l 1
 402.832 299.805 l 1
 374.512 374.023 329.59 411.133 269.043 411.133 c 0
 243.652 411.133 222.168 406.25 205.078 396.484 c 0
 187.5 386.719 172.363 371.094 159.18 350.098 c 0
 147.461 331.543 139.648 311.035 134.277 289.062 c 0
 129.395 267.09 126.953 242.676 126.953 215.82 c 0
 126.953 189.941 129.883 166.016 136.23 144.043 c 0
 142.09 122.07 151.855 103.516 165.039 87.8906 c 0
 181.152 69.8242 197.266 56.6406 213.379 47.3633 c 0
 229.98 38.5742 250.488 34.1797 275.879 34.1797 c 0
 283.203 34.1797 291.504 34.668 300.293 36.1328 c 0
 309.57 37.1094 317.871 39.0625 326.172 41.0156 c 0
 346.191 46.3867 355.957 53.7109 355.957 62.9883 c 2
 355.957 167.969 l 2
 355.957 183.105 354.98 194.336 352.539 201.172 c 0
 350.098 207.52 344.238 212.402 333.984 214.844 c 0
 328.125 216.797 316.895 217.773 299.805 217.773 c 1
 299.805 250.977 l 1
 485.84 250.977 l 1
 485.84 217.773 l 1
EndSplineSet
EndChar
StartChar: H
Encoding: 72 72 41
OldEncoding: 72
Width: 526
Flags: HW
HStem: 0 21<26 235 26 26 291 500 291 291> 207 46<176 351> 433 20<26 235 235 235 291 500 500 500>
VStem: 83 93 351 90<91 207 207 207 253 369 369 380>
Fore
500 425 m 1
 501 425 459 424 449 414 c 0
 442 407 441 387 441 380 c 2
 441 86 l 2
 441 62 440 50 451 39 c 0
 459 31 501 30 500 30 c 1
 500 0 l 1
 291 0 l 1
 291 30 l 1
 291 30 333 31 341 39 c 0
 348 46 351 54 351 91 c 2
 351 207 l 1
 176 207 l 1
 176 91 l 2
 176 54 178 46 185 39 c 0
 193 31 235 30 235 30 c 1
 235 0 l 1
 26 0 l 1
 26 30 l 1
 26 30 68 31 76 39 c 0
 85 50 85 62 85 86 c 2
 85 384 l 2
 85 400 84 417 59 421 c 0
 42 425 29 425 26 425 c 1
 26 453 l 1
 235 453 l 1
 235 425 l 1
 235 425 199 424 187 414 c 0
 179 406 176 396 176 369 c 2
 176 253 l 1
 351 253 l 1
 351 369 l 2
 351 396 348 406 339 414 c 0
 329 424 291 425 291 425 c 1
 291 453 l 1
 500 453 l 1
 500 425 l 1
EndSplineSet
MinimumDistance: x6,-1 
Back
500 424.805 m 1
 500 453.125 l 1
 291.016 453.125 l 1
 291.016 424.805 l 1
 291.504 424.805 294.922 424.805 300.781 424.316 c 0
 307.129 424.316 313.965 423.34 321.777 421.387 c 0
 330.078 419.922 335.449 417.48 338.867 414.062 c 0
 343.75 410.156 346.68 404.785 348.633 398.438 c 0
 350.098 392.09 351.074 382.324 351.074 369.141 c 2
 351.074 252.93 l 1
 175.781 252.93 l 1
 175.781 369.141 l 2
 175.781 382.324 176.758 392.09 178.711 398.438 c 0
 180.176 404.785 183.105 410.156 187.012 414.062 c 0
 190.918 417.48 196.777 419.922 205.078 421.387 c 0
 212.891 423.34 219.727 424.316 225.586 424.316 c 0
 230.957 424.805 234.375 424.805 234.863 424.805 c 1
 234.863 453.125 l 1
 25.8789 453.125 l 1
 25.8789 424.805 l 1
 27.3438 424.805 30.7617 424.805 37.1094 424.316 c 0
 42.9688 424.316 50.293 423.34 59.082 421.387 c 0
 67.8711 419.922 73.7305 417.48 77.1484 414.062 c 0
 80.5664 410.645 82.5195 405.762 83.4961 399.414 c 0
 84.4727 393.066 84.9609 388.184 84.9609 383.789 c 2
 84.9609 85.9375 l 2
 84.9609 74.2188 84.4727 64.4531 83.9844 57.6172 c 0
 83.4961 50.293 80.5664 44.4336 76.1719 39.0625 c 0
 73.2422 36.1328 67.8711 34.1797 59.082 33.2031 c 0
 50.293 31.7383 42.9688 30.7617 37.1094 30.2734 c 0
 30.7617 30.2734 27.3438 29.7852 25.8789 29.7852 c 1
 25.8789 0 l 1
 234.863 0 l 1
 234.863 29.7852 l 1
 233.887 29.7852 229.98 30.2734 224.121 30.2734 c 0
 217.773 30.7617 210.449 31.7383 202.148 33.2031 c 0
 193.359 34.1797 187.5 36.1328 185.059 39.0625 c 0
 181.641 42.4805 179.199 47.3633 178.223 53.7109 c 0
 176.758 60.0586 175.781 72.2656 175.781 90.8203 c 2
 175.781 207.031 l 1
 351.074 207.031 l 1
 351.074 90.8203 l 2
 351.074 72.2656 350.098 60.0586 348.633 53.7109 c 0
 346.68 47.3633 344.238 42.4805 340.82 39.0625 c 0
 338.379 36.1328 332.52 34.1797 324.219 33.2031 c 0
 315.43 31.7383 308.105 30.7617 301.758 30.2734 c 0
 295.898 30.2734 292.48 29.7852 291.016 29.7852 c 1
 291.016 0 l 1
 500 0 l 1
 500 29.7852 l 1
 499.512 29.7852 495.605 30.2734 489.258 30.2734 c 0
 483.398 30.7617 476.074 31.7383 467.285 33.2031 c 0
 458.984 34.1797 453.613 36.1328 451.172 39.0625 c 0
 445.801 44.4336 442.871 50.293 441.895 57.6172 c 0
 441.406 64.4531 440.918 74.2188 440.918 85.9375 c 2
 440.918 379.883 l 2
 440.918 383.301 441.406 389.16 442.383 396.973 c 0
 443.359 404.785 445.801 410.645 449.219 414.062 c 0
 452.148 417.48 458.496 419.922 466.797 421.387 c 0
 475.586 423.34 483.398 424.316 489.258 424.316 c 0
 495.605 424.805 499.512 424.805 500 424.805 c 1
EndSplineSet
EndChar
StartChar: I
Encoding: 73 73 42
OldEncoding: 73
Width: 248
Flags: HW
HStem: 0 30<19 42.5 204 228> 421 31
VStem: 78 90<80 372>
Fore
228 0 m 1
 19 0 l 1
 19 30 l 1
 66 30 78 39 78 80 c 2
 78 372 l 2
 78 393 76 407 71 414 c 0
 64 423 43 423 19 423 c 1
 19 452 l 1
 228 452 l 1
 228 423 l 1
 201 423 183 423 176 414 c 0
 171 408 168 394 168 372 c 2
 168 80 l 2
 168 37 180 30 228 30 c 1
 228 0 l 1
EndSplineSet
MinimumDistance: x10,-1 
Back
228.027 0 m 1
 19.043 0 l 1
 19.043 29.7852 l 1
 42.4805 29.7852 58.1055 33.2031 65.918 39.5508 c 0
 74.2188 45.8984 78.125 59.5703 78.125 80.0781 c 2
 78.125 372.07 l 2
 78.125 393.555 75.6836 407.227 70.8008 414.062 c 0
 67.8711 418.457 61.0352 421.387 51.2695 421.875 c 0
 41.9922 422.852 30.7617 422.852 19.043 422.852 c 1
 19.043 452.148 l 1
 228.027 452.148 l 1
 228.027 422.852 l 1
 214.844 422.852 203.613 422.852 194.336 421.875 c 0
 185.547 421.387 179.199 418.457 175.781 414.062 c 0
 170.898 408.203 167.969 394.043 167.969 372.07 c 2
 167.969 80.0781 l 2
 167.969 58.5938 171.875 44.9219 180.176 39.0625 c 0
 187.988 33.2031 204.102 29.7852 228.027 29.7852 c 1
 228.027 0 l 1
EndSplineSet
EndChar
StartChar: J
Encoding: 74 74 43
OldEncoding: 74
Width: 278
Flags: HW
HStem: -8 21<79.5 109.5> 423 30<61 84.5 249.5 266>
VStem: 120 88<129 373>
Fore
266 423 m 1
 233 423 215 416 211 401 c 0
 209 394 208 385 208 373 c 2
 208 129 l 2
 208 89 199 57 181 32 c 0
 160 5 130 -8 89 -8 c 0
 70 -8 55 -4 43 3 c 0
 25 14 16 28 16 47 c 0
 16 66 32 89 55 89 c 0
 87 89 100 64 100 41 c 0
 100 33 103 33 106 33 c 0
 115 33 120 45 120 68 c 2
 120 373 l 2
 120 416 108 423 61 423 c 1
 61 453 l 1
 266 453 l 1
 266 423 l 1
EndSplineSet
MinimumDistance: x0,-1 
Back
266.113 422.852 m 1
 233.398 422.852 214.844 415.527 210.938 400.879 c 0
 208.984 394.531 208.008 384.766 208.008 373.047 c 2
 208.008 128.906 l 2
 208.008 88.8672 199.219 56.6406 181.152 32.2266 c 0
 160.156 5.37109 129.883 -7.8125 88.8672 -7.8125 c 0
 70.3125 -7.8125 55.1758 -4.39453 42.9688 2.92969 c 0
 24.9023 13.6719 16.1133 28.3203 16.1133 46.875 c 0
 16.1133 56.1523 19.5312 65.4297 26.8555 75.1953 c 0
 34.1797 84.4727 43.457 88.8672 55.1758 88.8672 c 0
 70.8008 88.8672 82.5195 83.9844 89.3555 73.7305 c 0
 96.6797 62.9883 100.098 52.2461 100.098 41.0156 c 0
 100.098 37.1094 100.586 34.668 102.051 34.1797 c 0
 103.516 33.2031 104.492 33.2031 105.957 33.2031 c 0
 115.234 33.2031 120.117 44.4336 120.117 67.8711 c 2
 120.117 373.047 l 2
 120.117 394.531 116.211 408.203 107.91 414.062 c 0
 100.098 419.922 84.4727 422.852 61.0352 422.852 c 1
 61.0352 453.125 l 1
 266.113 453.125 l 1
 266.113 422.852 l 1
EndSplineSet
EndChar
StartChar: K
Encoding: 75 75 44
OldEncoding: 75
Width: 540
Flags: HW
HStem: 0 30<30 43.5 231 239 288 302.5 497 509> 421 32
VStem: 89 92<80 88 88 198 260 372>
Fore
509 0 m 1
 288 0 l 1
 288 30 l 1
 317 30 329 31 333 36 c 0
 334 37 334 38 334 41 c 0
 334 49 325 61 314 73 c 2
 188 205 l 1
 181 198 l 1
 181 80 l 2
 181 61 182 47 189 40 c 0
 200 29 223 30 239 30 c 1
 239 0 l 1
 30 0 l 1
 30 30 l 1
 57 30 75 34 84 43 c 0
 88 47 89 64 89 88 c 2
 89 372 l 2
 89 412 77 423 30 423 c 1
 30 453 l 1
 241 453 l 1
 241 423 l 1
 218 423 196 420 188 412 c 0
 181 405 181 392 181 372 c 2
 181 260 l 1
 304 372 l 1
 321 389 330 402 330 411 c 0
 330 419 315 423 284 423 c 1
 284 453 l 1
 477 453 l 1
 477 423 l 1
 458 423 442 423 425 415 c 0
 410 408 396 395 375 374 c 2
 256 257 l 1
 450 48 l 2
 461 37 485 30 509 30 c 1
 509 0 l 1
EndSplineSet
MinimumDistance: x32,-1 
Back
508.789 0 m 1
 288.086 0 l 1
 288.086 29.7852 l 1
 302.734 29.7852 313.477 30.2734 319.824 30.7617 c 0
 326.66 31.7383 331.055 33.2031 333.008 36.1328 c 0
 333.496 36.6211 333.984 38.5742 333.984 41.0156 c 0
 333.984 44.9219 332.031 49.8047 328.125 55.6641 c 0
 324.219 61.0352 319.336 66.8945 313.965 73.2422 c 2
 187.988 205.078 l 1
 181.152 198.242 l 1
 181.152 80.0781 l 2
 181.152 70.8008 181.641 62.5 182.617 55.6641 c 0
 183.594 48.3398 185.547 43.457 188.965 40.0391 c 0
 194.336 34.668 202.148 31.7383 211.914 30.7617 c 0
 222.168 30.2734 230.957 29.7852 238.77 29.7852 c 1
 238.77 0 l 1
 29.7852 0 l 1
 29.7852 29.7852 l 1
 57.1289 29.7852 75.1953 34.1797 83.9844 42.9688 c 0
 85.9375 44.9219 87.4023 49.8047 87.8906 58.1055 c 0
 88.8672 65.918 88.8672 76.1719 88.8672 87.8906 c 2
 88.8672 372.07 l 2
 88.8672 392.09 84.9609 405.273 77.1484 412.598 c 0
 68.8477 419.434 53.2227 422.852 29.7852 422.852 c 1
 29.7852 453.125 l 1
 241.211 453.125 l 1
 241.211 422.852 l 1
 229.492 422.852 219.238 422.363 208.984 420.41 c 0
 199.219 418.945 191.895 416.016 187.988 412.109 c 0
 184.57 408.691 182.617 403.809 182.129 396.973 c 0
 181.152 390.137 181.152 381.836 181.152 372.07 c 2
 181.152 259.766 l 1
 304.199 372.07 l 2
 321.289 388.672 330.078 401.855 330.078 411.133 c 0
 330.078 418.945 314.453 422.852 284.18 422.852 c 1
 284.18 453.125 l 1
 477.051 453.125 l 1
 477.051 422.852 l 1
 467.773 422.852 458.984 422.852 450.684 421.875 c 0
 442.383 421.387 433.594 418.945 424.805 415.039 c 0
 417.48 411.621 410.156 406.738 402.344 399.902 c 0
 395.02 393.555 385.742 384.766 375 374.023 c 2
 255.859 256.836 l 1
 450.195 47.8516 l 2
 455.566 42.4805 463.379 38.5742 474.609 35.1562 c 0
 485.352 31.7383 497.07 29.7852 508.789 29.7852 c 1
 508.789 0 l 1
EndSplineSet
EndChar
StartChar: L
Encoding: 76 76 45
OldEncoding: 76
Width: 444
Flags: HW
HStem: 0 42<203.5 209 209 229> 433 20<26 235 26 26>
VStem: 82 92<62 80 80 373>
Fore
436 132 m 1
 400 0 l 1
 26 0 l 1
 26 30 l 1
 70 30 82 41 82 80 c 2
 82 373 l 2
 82 394 80 411 73 414 c 1
 26 424 l 1
 26 453 l 1
 235 453 l 1
 235 424 l 1
 197 420 l 2
 192 419 188 417 184 414 c 0
 177 408 174 394 174 373 c 2
 174 62 l 2
 174 54 175 52 180 47 c 0
 183 44 198 42 209 42 c 2
 229 42 l 2
 285 42 318 46 334 54 c 0
 357 65 378 89 397 132 c 1
 436 132 l 1
EndSplineSet
MinimumDistance: x9,-1 
Back
436.035 131.836 m 1
 399.902 0 l 1
 25.8789 0 l 1
 25.8789 29.7852 l 1
 47.8516 29.7852 62.9883 33.6914 70.3125 40.5273 c 0
 78.125 47.3633 82.0312 60.5469 82.0312 80.0781 c 2
 82.0312 373.047 l 2
 82.0312 383.789 81.543 393.066 80.0781 400.391 c 0
 78.6133 408.203 76.1719 412.598 73.2422 414.062 c 2
 25.8789 423.828 l 1
 25.8789 453.125 l 1
 234.863 453.125 l 1
 234.863 423.828 l 1
 196.777 419.922 l 2
 192.383 419.434 187.988 417.48 184.082 414.062 c 0
 177.246 408.203 173.828 394.531 173.828 373.047 c 2
 173.828 62.0117 l 2
 173.828 58.1055 174.316 55.1758 174.805 53.7109 c 0
 175.781 51.7578 177.246 49.8047 180.176 46.875 c 0
 181.152 45.8984 185.059 44.4336 191.406 43.457 c 0
 197.754 42.4805 203.613 41.9922 208.984 41.9922 c 2
 229.004 41.9922 l 2
 256.836 41.9922 279.297 42.9688 296.387 44.9219 c 0
 313.477 46.875 326.172 49.8047 333.984 54.1992 c 0
 345.215 59.5703 356.445 68.3594 367.188 81.0547 c 0
 377.441 93.75 387.695 110.84 396.973 131.836 c 1
 436.035 131.836 l 1
EndSplineSet
EndChar
StartChar: M
Encoding: 77 77 46
OldEncoding: 77
Width: 646
Flags: HW
HStem: 0 30<27 42.5 192 207 409 423> 432 20<29 180 29 29 463 618 463 463>
VStem: 91 54<105 324> 469 92<80 88 88 337>
Fore
618 0 m 1
 409 0 l 1
 409 30 l 1
 437 30 455 33 462 41 c 0
 467 48 469 63 469 88 c 2
 469 337 l 1
 317 0 l 1
 294 0 l 1
 145 324 l 1
 145 105 l 2
 145 76 147 56 152 47 c 0
 159 36 177 30 207 30 c 1
 207 0 l 1
 27 0 l 1
 27 30 l 1
 58 30 76 35 81 44 c 0
 88 55 91 75 91 105 c 2
 91 371 l 2
 91 392 88 406 81 413 c 0
 78 416 72 417 67 418 c 2
 29 423 l 1
 29 452 l 1
 180 452 l 1
 324 135 l 1
 463 452 l 1
 618 452 l 1
 618 422 l 1
 573 422 561 410 561 371 c 2
 561 80 l 2
 561 53 568 38 583 33 c 1
 618 29 l 1
 618 0 l 1
EndSplineSet
MinimumDistance: x27,-1 
Back
618.164 0 m 1
 409.18 0 l 1
 409.18 29.7852 l 1
 422.852 29.7852 434.57 30.7617 443.359 32.7148 c 0
 452.637 34.1797 458.496 37.1094 461.914 41.0156 c 0
 466.797 47.8516 469.238 63.4766 469.238 87.8906 c 2
 469.238 336.914 l 1
 316.895 0 l 1
 293.945 0 l 1
 145.02 324.219 l 1
 145.02 104.98 l 2
 145.02 75.6836 147.461 56.1523 151.855 46.875 c 0
 158.691 35.6445 176.758 29.7852 207.031 29.7852 c 1
 207.031 0 l 1
 26.8555 0 l 1
 26.8555 29.7852 l 1
 58.1055 29.7852 76.1719 34.668 81.0547 43.9453 c 0
 87.8906 54.6875 90.8203 75.1953 90.8203 104.98 c 2
 90.8203 371.094 l 2
 90.8203 392.09 87.8906 406.25 81.0547 413.086 c 0
 79.5898 414.551 77.6367 415.527 75.1953 416.016 c 0
 72.2656 416.504 69.8242 417.48 66.8945 417.969 c 2
 28.8086 422.852 l 1
 28.8086 452.148 l 1
 180.176 452.148 l 1
 324.219 134.766 l 1
 462.891 452.148 l 1
 618.164 452.148 l 1
 618.164 421.875 l 1
 595.215 421.875 580.078 418.457 572.266 411.133 c 0
 564.941 403.809 561.035 390.137 561.035 371.094 c 2
 561.035 80.0781 l 2
 561.035 53.2227 568.359 37.5977 583.008 33.2031 c 1
 618.164 28.8086 l 1
 618.164 0 l 1
EndSplineSet
EndChar
StartChar: N
Encoding: 78 78 47
OldEncoding: 78
Width: 534
Flags: HW
HStem: -6 21<416 447 447 447> 0 30<24 39.5 188 203> 423 30<24 37.5 331 346.5 497 511>
VStem: 88 54<106 336> 392 55
Fore
511 423 m 1
 483 423 464 415 457 404 c 0
 450 393 447 374 447 347 c 2
 447 -6 l 1
 416 -6 l 1
 142 336 l 1
 142 106 l 2
 142 76 144 56 149 47 c 0
 155 36 173 30 203 30 c 1
 203 0 l 1
 24 0 l 1
 24 30 l 1
 55 30 73 36 80 48 c 0
 85 56 88 75 88 106 c 2
 88 394 l 1
 72 413 51 423 24 423 c 1
 24 453 l 1
 157 453 l 1
 393 155 l 1
 393 347 l 2
 393 378 393 396 388 405 c 0
 381 417 362 423 331 423 c 1
 331 453 l 1
 511 453 l 1
 511 423 l 1
EndSplineSet
MinimumDistance: x1,-1 
Back
511.23 422.852 m 1
 497.07 422.852 485.352 421.387 476.074 417.48 c 0
 466.797 414.062 460.449 409.18 457.031 403.809 c 0
 450.195 393.555 446.777 374.512 446.777 347.168 c 2
 446.777 -5.85938 l 1
 416.016 -5.85938 l 1
 142.09 335.938 l 1
 142.09 105.957 l 2
 142.09 76.1719 144.531 56.1523 148.926 46.875 c 0
 154.785 35.6445 172.852 29.7852 203.125 29.7852 c 1
 203.125 0 l 1
 23.9258 0 l 1
 23.9258 29.7852 l 1
 54.6875 29.7852 73.2422 36.1328 80.0781 47.8516 c 0
 85.4492 56.1523 87.8906 75.1953 87.8906 105.957 c 2
 87.8906 394.043 l 1
 71.7773 413.574 50.7812 422.852 23.9258 422.852 c 1
 23.9258 453.125 l 1
 157.227 453.125 l 1
 393.066 154.785 l 1
 393.066 347.168 l 2
 393.066 362.305 393.066 374.512 392.578 383.789 c 0
 392.09 393.555 390.625 400.391 388.184 404.785 c 0
 380.859 416.992 361.816 422.852 331.055 422.852 c 1
 331.055 453.125 l 1
 511.23 453.125 l 1
 511.23 422.852 l 1
EndSplineSet
EndChar
StartChar: O
Encoding: 79 79 48
OldEncoding: 79
Width: 499
Flags: HW
HStem: -8 21<187 311> 441 20<187 311>
VStem: 26 97<172.5 279> 376 97<172.5 279>
Fore
26 226 m 0
 26 356 125 461 249 461 c 0
 373 461 473 356 473 226 c 0
 473 96 373 -8 249 -8 c 0
 125 -8 26 96 26 226 c 0
123 226 m 0
 123 119 179 35 250 35 c 0
 319 35 376 119 376 226 c 0
 376 332 319 416 250 416 c 0
 179 416 123 332 123 226 c 0
EndSplineSet
MinimumDistance: x0,-1 
Back
25.8789 226.074 m 0
 25.8789 193.359 31.7383 162.598 43.457 134.277 c 0
 55.1758 105.957 70.8008 81.543 90.8203 60.5469 c 0
 110.84 39.5508 134.766 22.9492 162.109 10.7422 c 0
 189.453 -1.95312 218.262 -7.8125 249.023 -7.8125 c 0
 280.273 -7.8125 309.57 -1.95312 336.426 10.7422 c 0
 363.281 22.9492 387.207 39.5508 407.715 60.5469 c 0
 427.734 81.543 443.848 105.957 455.566 134.277 c 0
 467.285 162.598 473.145 193.359 473.145 226.074 c 0
 473.145 258.789 467.285 289.062 455.566 317.383 c 0
 443.848 345.703 427.734 370.605 407.715 392.09 c 0
 387.207 413.574 363.281 430.176 336.426 442.383 c 0
 309.57 454.59 280.273 460.938 249.023 460.938 c 0
 218.262 460.938 189.453 454.59 162.109 442.383 c 0
 134.766 430.176 110.84 413.574 90.8203 392.09 c 0
 70.8008 370.605 55.1758 345.703 43.457 317.383 c 0
 31.7383 289.062 25.8789 258.789 25.8789 226.074 c 0
123.047 226.074 m 0
 123.047 252.441 126.465 277.344 132.812 300.293 c 0
 139.648 323.73 148.438 343.262 160.156 360.352 c 0
 171.387 377.441 184.57 391.113 200.195 400.879 c 0
 215.332 411.133 231.934 416.016 250 416.016 c 0
 267.09 416.016 283.691 411.133 298.828 400.879 c 0
 314.453 391.113 327.637 377.441 338.867 360.352 c 0
 350.098 343.262 359.375 323.73 366.211 300.293 c 0
 372.559 277.344 375.977 252.441 375.977 226.074 c 0
 375.977 199.219 372.559 174.316 366.211 150.879 c 0
 359.375 127.441 350.098 107.422 338.867 90.332 c 0
 327.637 73.7305 314.453 60.0586 298.828 49.8047 c 0
 283.691 40.0391 267.09 35.1562 250 35.1562 c 0
 231.934 35.1562 215.332 40.0391 200.195 49.8047 c 0
 184.57 60.0586 171.387 73.7305 160.156 90.332 c 0
 148.438 107.422 139.648 127.441 132.812 150.879 c 0
 126.465 174.316 123.047 199.219 123.047 226.074 c 0
EndSplineSet
EndChar
StartChar: P
Encoding: 80 80 49
OldEncoding: 80
Width: 404
Flags: HW
HStem: 0 21<25 231 231 231> 190 44<178.5 181 181 199> 412 41<179.5 211>
VStem: 80 89<80 88 88 190 235 373> 297 96<302 348.5>
Fore
297 325 m 0
 297 382 263 412 186 412 c 0
 173 412 169 410 169 398 c 2
 169 235 l 1
 172 234 176 234 181 234 c 2
 199 234 l 2
 264 234 297 264 297 325 c 0
393 326 m 0
 393 278 368 241 327 217 c 0
 295 198 255 190 204 190 c 2
 169 190 l 1
 169 80 l 2
 169 40 186 30 231 30 c 1
 231 0 l 1
 25 0 l 1
 25 30 l 1
 50 30 68 33 73 40 c 0
 80 48 80 63 80 88 c 2
 80 373 l 2
 80 413 70 423 25 423 c 1
 25 453 l 1
 211 453 l 2
 256 453 296 445 329 428 c 0
 372 405 393 371 393 326 c 0
EndSplineSet
MinimumDistance: x0,-1 
Back
296.875 325.195 m 0
 296.875 353.516 288.086 375.488 270.508 390.137 c 0
 252.93 404.785 224.609 412.109 186.035 412.109 c 0
 179.199 412.109 174.805 411.133 172.363 409.668 c 0
 170.41 407.715 168.945 403.809 168.945 397.949 c 2
 168.945 234.863 l 1
 171.875 234.375 175.781 233.887 181.152 233.887 c 2
 199.219 233.887 l 2
 264.16 233.887 296.875 264.16 296.875 325.195 c 0
393.066 326.172 m 0
 393.066 301.758 387.207 280.762 375.488 262.695 c 0
 363.77 244.141 347.656 229.004 327.148 216.797 c 0
 311.035 207.52 292.969 200.684 272.461 196.289 c 0
 251.953 192.383 229.492 189.941 204.102 189.941 c 2
 168.945 189.941 l 1
 168.945 80.0781 l 2
 168.945 60.0586 173.828 46.875 183.105 40.0391 c 0
 192.383 33.2031 208.496 29.7852 230.957 29.7852 c 1
 230.957 0 l 1
 24.9023 0 l 1
 24.9023 29.7852 l 1
 37.5977 29.7852 48.3398 30.7617 56.6406 32.7148 c 0
 64.9414 34.1797 70.3125 36.6211 73.2422 40.0391 c 0
 76.1719 43.9453 78.125 49.8047 79.1016 57.6172 c 0
 79.5898 64.9414 80.0781 75.1953 80.0781 87.8906 c 2
 80.0781 373.047 l 2
 80.0781 393.066 76.6602 406.25 69.3359 413.086 c 0
 62.5 419.434 47.8516 422.852 24.9023 422.852 c 1
 24.9023 453.125 l 1
 210.938 453.125 l 2
 256.348 453.125 295.898 444.824 329.102 428.223 c 0
 371.582 405.273 393.066 371.094 393.066 326.172 c 0
EndSplineSet
EndChar
StartChar: Q
Encoding: 81 81 50
OldEncoding: 81
Width: 484
Flags: HW
HStem: -107 21<337.5 379 379 439> 444 20<177.5 300.5>
VStem: 16 99<174 278> 364 98<174 278>
Fore
16 227 m 0
 16 358 116 464 239 464 c 0
 362 464 462 358 462 227 c 0
 462 113 387 20 287 -4 c 1
 328 -66 392 -77 439 -77 c 1
 439 -107 l 1
 379 -107 l 2
 296 -107 233 -79 190 -28 c 1
 170 1 l 1
 80 33 16 120 16 227 c 0
115 226 m 0
 115 122 170 37 240 37 c 0
 309 37 364 122 364 226 c 0
 364 330 309 415 240 415 c 0
 170 415 115 330 115 226 c 0
EndSplineSet
MinimumDistance: x0,-1 
Back
16.1133 227.051 m 0
 16.1133 200.195 20.0195 174.805 27.3438 150.879 c 0
 35.1562 126.953 45.8984 104.98 59.5703 85.4492 c 0
 73.2422 65.918 89.3555 48.8281 107.91 34.668 c 0
 126.465 20.0195 147.461 8.78906 169.922 0.976562 c 1
 189.941 -27.832 l 1
 211.426 -53.2227 237.793 -72.7539 269.531 -86.4258 c 0
 301.27 -100.098 337.891 -106.934 378.906 -106.934 c 2
 438.965 -106.934 l 1
 438.965 -77.1484 l 1
 426.758 -77.1484 414.551 -76.1719 400.879 -74.707 c 0
 387.695 -72.7539 374.512 -69.3359 360.84 -63.9648 c 0
 347.656 -58.5938 334.473 -51.2695 321.289 -41.5039 c 0
 308.594 -31.7383 296.875 -19.5312 287.109 -3.90625 c 1
 312.5 1.95312 335.449 12.207 356.934 25.8789 c 0
 378.418 40.0391 396.484 57.1289 412.109 77.6367 c 0
 427.246 97.6562 439.453 120.605 448.73 145.996 c 0
 457.52 171.387 461.914 198.242 461.914 227.051 c 0
 461.914 259.766 456.055 290.527 444.336 318.848 c 0
 432.617 347.656 416.992 373.047 396.484 394.531 c 0
 375.977 416.016 352.539 433.105 325.684 445.312 c 0
 298.34 458.008 269.531 463.867 238.77 463.867 c 0
 208.496 463.867 179.688 458.008 152.344 445.312 c 0
 125.488 433.105 102.051 416.016 81.543 394.531 c 0
 61.0352 373.047 45.4102 347.656 33.6914 318.848 c 0
 21.9727 290.527 16.1133 259.766 16.1133 227.051 c 0
115.234 226.074 m 0
 115.234 251.953 118.164 276.367 124.512 299.316 c 0
 130.859 322.266 139.648 342.285 150.879 359.375 c 0
 162.109 376.465 175.781 390.137 190.918 399.902 c 0
 206.543 410.156 222.656 415.039 240.234 415.039 c 0
 257.324 415.039 273.438 410.156 288.574 399.902 c 0
 303.711 390.137 316.895 376.465 328.125 359.375 c 0
 339.355 342.285 348.145 322.266 354.492 299.316 c 0
 360.84 276.367 363.77 251.953 363.77 226.074 c 0
 363.77 200.195 360.84 175.293 354.492 152.344 c 0
 348.145 129.395 339.355 109.375 328.125 92.2852 c 0
 316.895 75.6836 303.711 62.0117 288.574 51.7578 c 0
 273.438 41.9922 257.324 37.1094 240.234 37.1094 c 0
 222.656 37.1094 206.543 41.9922 190.918 51.7578 c 0
 175.781 62.0117 162.109 75.6836 150.879 92.2852 c 0
 139.648 109.375 130.859 129.395 124.512 152.344 c 0
 118.164 175.293 115.234 200.195 115.234 226.074 c 0
EndSplineSet
EndChar
StartChar: R
Encoding: 82 82 51
OldEncoding: 82
Width: 488
Flags: HW
HStem: 0 30<26 39.5 208.5 231 457.5 470> 412 41<196.5 221>
VStem: 81 92<80 88 88 201 243 373> 302 96<312.5 357.5>
Fore
302 331 m 0
 302 384 267 412 204 412 c 0
 189 412 180 411 178 410 c 0
 175 408 173 403 173 396 c 2
 173 243 l 1
 210 243 233 248 253 256 c 0
 286 269 302 294 302 331 c 0
470 0 m 1
 345 0 l 1
 189 202 l 1
 173 201 l 1
 173 80 l 2
 173 41 186 30 231 30 c 1
 231 0 l 1
 26 0 l 1
 26 30 l 1
 53 30 70 36 75 41 c 0
 79 45 81 61 81 88 c 2
 81 373 l 2
 81 393 79 408 74 413 c 0
 67 420 51 423 26 423 c 1
 26 453 l 1
 221 453 l 2
 339 453 398 412 398 330 c 0
 398 271 360 232 285 213 c 1
 411 58 l 2
 427 38 445 30 470 30 c 1
 470 0 l 1
EndSplineSet
MinimumDistance: x1,-1 
Back
301.758 331.055 m 0
 301.758 357.91 293.457 377.93 276.367 391.602 c 0
 259.277 405.273 235.352 412.109 204.102 412.109 c 0
 188.477 412.109 180.176 411.133 178.223 410.156 c 0
 174.805 408.203 172.852 403.32 172.852 395.996 c 2
 172.852 243.164 l 1
 191.895 243.164 207.031 244.141 219.727 246.582 c 0
 231.934 249.023 243.164 251.953 252.93 255.859 c 0
 285.645 269.531 301.758 294.434 301.758 331.055 c 0
470.215 0 m 1
 345.215 0 l 1
 188.965 202.148 l 1
 172.852 201.172 l 1
 172.852 80.0781 l 2
 172.852 60.5469 176.758 47.3633 185.059 40.5273 c 0
 192.871 33.6914 208.496 29.7852 230.957 29.7852 c 1
 230.957 0 l 1
 25.8789 0 l 1
 25.8789 29.7852 l 1
 39.5508 29.7852 50.293 31.25 58.5938 33.6914 c 0
 66.8945 35.6445 72.2656 38.5742 75.1953 41.0156 c 0
 79.1016 44.9219 81.0547 60.5469 81.0547 87.8906 c 2
 81.0547 373.047 l 2
 81.0547 382.812 80.5664 391.602 79.5898 398.438 c 0
 78.6133 405.273 76.6602 410.156 74.2188 413.086 c 0
 67.3828 419.434 51.2695 422.852 25.8789 422.852 c 1
 25.8789 453.125 l 1
 221.191 453.125 l 2
 338.867 453.125 397.949 412.109 397.949 330.078 c 0
 397.949 271.484 360.352 232.422 285.156 212.891 c 1
 411.133 58.1055 l 2
 418.945 47.8516 427.734 41.0156 437.012 36.6211 c 0
 446.289 32.2266 457.52 29.7852 470.215 29.7852 c 1
 470.215 0 l 1
EndSplineSet
EndChar
StartChar: S
Encoding: 83 83 52
OldEncoding: 83
Width: 361
Flags: HW
HStem: -7 38<179.5 192.5> 417 44<157.5 174.5>
VStem: 38 86<352.5 377> 242 95<99.5 108>
Fore
337 118 m 0
 337 81 321 49 290 24 c 1
 262 4 226 -7 187 -7 c 0
 172 -7 153 -5 130 2 c 0
 109 9 94 13 87 13 c 0
 80 13 77 6 77 -7 c 1
 44 -7 l 1
 24 147 l 1
 54 147 l 1
 86 68 121 31 174 31 c 0
 211 31 242 59 242 96 c 0
 242 120 231 142 210 161 c 0
 201 169 179 184 144 204 c 0
 110 225 86 242 72 256 c 0
 49 279 38 308 38 341 c 0
 38 413 96 461 168 461 c 0
 181 461 198 458 225 450 c 2
 260 439 l 1
 265 441 269 448 272 461 c 1
 303 461 l 1
 318 304 l 1
 285 304 l 1
 277 339 265 365 245 386 c 0
 224 407 200 417 173 417 c 0
 142 417 124 396 124 364 c 0
 124 341 141 318 174 295 c 2
 277 227 l 2
 317 200 337 164 337 118 c 0
EndSplineSet
MinimumDistance: x0,-1 
Back
336.914 118.164 m 0
 336.914 80.5664 321.289 49.3164 290.039 23.9258 c 0
 275.879 14.1602 260.254 6.34766 242.676 0.976562 c 0
 224.609 -4.39453 206.543 -6.83594 187.012 -6.83594 c 0
 179.688 -6.83594 171.387 -6.34766 161.621 -4.88281 c 0
 151.855 -3.90625 141.113 -1.46484 129.883 1.95312 c 0
 108.887 9.27734 94.2383 13.1836 86.9141 13.1836 c 0
 80.5664 13.1836 77.1484 6.34766 77.1484 -6.83594 c 1
 43.9453 -6.83594 l 1
 23.9258 146.973 l 1
 54.1992 146.973 l 1
 69.8242 107.91 87.4023 78.6133 105.957 59.5703 c 0
 124.512 40.5273 147.461 30.7617 173.828 30.7617 c 0
 192.871 30.7617 208.496 37.1094 222.168 49.3164 c 0
 235.352 62.0117 242.188 77.1484 242.188 96.1914 c 0
 242.188 120.117 231.445 141.602 209.961 161.133 c 0
 205.566 165.039 197.266 170.898 186.523 178.223 c 0
 175.293 185.547 161.133 193.848 144.043 204.102 c 0
 109.863 224.609 85.9375 242.188 71.7773 255.859 c 0
 49.3164 279.297 38.0859 307.617 38.0859 340.82 c 0
 38.0859 358.887 41.5039 375.488 47.8516 390.137 c 0
 54.6875 404.785 63.9648 417.48 76.1719 428.223 c 0
 87.8906 438.477 102.051 446.777 117.676 452.637 c 0
 133.301 458.008 149.902 460.938 167.969 460.938 c 0
 174.805 460.938 182.617 459.961 191.406 458.496 c 0
 200.684 457.031 211.426 454.102 225.098 450.195 c 2
 259.766 438.965 l 1
 264.648 440.918 268.555 448.242 271.973 460.938 c 1
 303.223 460.938 l 1
 317.871 304.199 l 1
 285.156 304.199 l 1
 280.762 321.289 275.879 336.426 269.531 350.098 c 0
 263.184 363.281 254.883 375.488 245.117 386.23 c 0
 224.121 406.738 200.195 416.992 172.852 416.992 c 0
 157.715 416.992 145.508 412.109 137.207 402.344 c 0
 128.418 393.066 124.023 379.883 124.023 363.77 c 0
 124.023 340.82 140.625 317.871 173.828 294.922 c 2
 276.855 227.051 l 2
 316.895 200.195 336.914 164.062 336.914 118.164 c 0
EndSplineSet
EndChar
StartChar: T
Encoding: 84 84 53
OldEncoding: 84
Width: 435
Flags: HW
HStem: 0 30<113 128.5 298 322> 324 129<22 53 53 53 380 412> 409 44<146 171 171 171 263 289 289 305>
VStem: 171 92<80 88 88 409>
Fore
417 324 m 1
 380 324 l 1
 373 362 363 385 352 393 c 0
 337 402 321 409 289 409 c 2
 263 409 l 1
 263 80 l 2
 263 40 274 30 322 30 c 1
 322 0 l 1
 113 0 l 1
 113 30 l 1
 144 30 156 35 164 42 c 1
 163 42 l 1
 168 47 171 63 171 88 c 2
 171 409 l 1
 146 409 l 2
 113 409 94 405 82 394 c 0
 71 385 61 362 53 324 c 1
 17 324 l 1
 22 453 l 1
 412 453 l 1
 417 324 l 1
EndSplineSet
MinimumDistance: x1,-1 
Back
416.992 324.219 m 1
 379.883 324.219 l 1
 372.559 361.816 363.281 384.766 352.051 393.066 c 0
 344.727 397.461 336.426 401.367 327.148 404.297 c 0
 317.871 407.715 305.176 409.18 289.062 409.18 c 2
 263.184 409.18 l 1
 263.184 80.0781 l 2
 263.184 60.0586 266.602 46.875 274.414 40.0391 c 0
 282.227 33.2031 297.852 29.7852 321.777 29.7852 c 1
 321.777 0 l 1
 112.793 0 l 1
 112.793 29.7852 l 1
 128.418 29.7852 139.648 31.25 146.973 33.6914 c 0
 154.297 35.6445 160.156 38.5742 164.062 41.9922 c 1
 163.086 41.9922 l 1
 168.457 47.3633 170.898 62.5 170.898 87.8906 c 2
 170.898 409.18 l 1
 145.996 409.18 l 2
 129.395 409.18 116.211 407.715 105.957 405.273 c 0
 96.1914 403.32 87.8906 399.414 82.0312 394.043 c 0
 70.8008 385.254 61.0352 361.816 53.2227 324.219 c 1
 17.0898 324.219 l 1
 21.9727 453.125 l 1
 412.109 453.125 l 1
 416.992 324.219 l 1
EndSplineSet
EndChar
StartChar: U
Encoding: 85 85 54
OldEncoding: 85
Width: 521
Flags: HW
HStem: -8 45<239.5 295.5> 423 30<19 42.5 206 230 326 339.5>
VStem: 79 90<162 167 167 373> 388 53<176 347>
Fore
502 424 m 1
 471 422 453 416 448 405 c 0
 443 396 441 376 441 347 c 2
 441 176 l 2
 441 129 434 91 419 64 c 0
 391 16 335 -8 256 -8 c 0
 140 -8 79 50 79 167 c 2
 79 373 l 2
 79 413 66 423 19 423 c 1
 19 453 l 1
 230 453 l 1
 230 423 l 1
 182 423 169 416 169 373 c 2
 169 162 l 2
 169 79 204 37 275 37 c 0
 321 37 354 53 375 85 c 0
 384 98 388 126 388 169 c 2
 388 347 l 2
 388 378 385 397 380 404 c 0
 371 417 353 423 326 423 c 1
 326 453 l 1
 502 453 l 1
 502 424 l 1
EndSplineSet
MinimumDistance: x0,-1 
Back
501.953 423.828 m 1
 470.703 421.875 452.637 415.527 448.242 404.785 c 0
 443.359 395.508 440.918 376.465 440.918 347.168 c 2
 440.918 175.781 l 2
 440.918 152.832 438.965 131.348 435.547 112.305 c 0
 431.641 93.2617 426.27 77.1484 418.945 63.9648 c 0
 404.785 40.0391 384.277 21.9727 356.445 9.76562 c 0
 328.613 -1.95312 295.41 -7.8125 255.859 -7.8125 c 0
 198.242 -7.8125 153.809 6.34766 124.023 35.6445 c 0
 94.2383 64.4531 79.1016 108.398 79.1016 166.992 c 2
 79.1016 373.047 l 2
 79.1016 393.066 74.707 406.25 66.4062 413.086 c 0
 58.1055 419.434 42.4805 422.852 19.043 422.852 c 1
 19.043 453.125 l 1
 229.98 453.125 l 1
 229.98 422.852 l 1
 206.055 422.852 189.941 419.922 181.641 414.062 c 0
 173.34 408.203 168.945 394.531 168.945 373.047 c 2
 168.945 162.109 l 2
 168.945 78.6133 204.102 37.1094 274.902 37.1094 c 0
 320.801 37.1094 354.492 53.2227 375 84.9609 c 0
 383.789 98.1445 388.184 126.465 388.184 168.945 c 2
 388.184 347.168 l 2
 388.184 377.441 385.254 396.484 379.883 403.809 c 0
 371.094 416.504 353.516 422.852 326.172 422.852 c 1
 326.172 453.125 l 1
 501.953 453.125 l 1
 501.953 423.828 l 1
EndSplineSet
EndChar
StartChar: V
Encoding: 86 86 55
OldEncoding: 86
Width: 497
Flags: HW
HStem: -6 21<244 277 277 277> 424 29<9 17 196 208 327 343 479.5 486>
Fore
486 424 m 1
 473 424 465 423 461 421 c 0
 444 414 439 404 436 397 c 2
 277 -6 l 1
 244 -6 l 1
 79 360 l 1
 68 387 57 406 50 413 c 0
 38 424 25 424 9 424 c 1
 9 453 l 1
 208 453 l 1
 208 424 l 1
 184 424 169 422 162 418 c 0
 159 417 159 412 159 408 c 0
 159 403 169 381 186 342 c 2
 275 140 l 1
 363 361 l 2
 368 374 372 387 375 402 c 1
 375 417 359 424 327 424 c 1
 327 453 l 1
 486 453 l 1
 486 424 l 1
EndSplineSet
MinimumDistance: x0,-1 
Back
485.84 423.828 m 1
 473.145 423.828 464.844 422.852 460.938 420.898 c 0
 452.148 417.48 446.289 413.574 442.871 409.18 c 0
 439.453 404.297 437.5 400.391 436.035 396.973 c 2
 276.855 -5.85938 l 1
 244.141 -5.85938 l 1
 79.1016 359.863 l 1
 73.7305 373.535 68.3594 384.766 62.9883 394.043 c 0
 57.6172 403.32 53.2227 409.668 49.8047 413.086 c 0
 43.9453 418.457 37.5977 421.387 30.7617 422.363 c 0
 24.4141 423.34 17.0898 423.828 8.78906 423.828 c 1
 8.78906 453.125 l 1
 208.008 453.125 l 1
 208.008 423.828 l 1
 184.082 423.828 168.457 421.875 162.109 417.969 c 0
 160.645 417.48 159.668 416.016 159.668 414.062 c 0
 159.18 412.109 159.18 410.156 159.18 408.203 c 0
 159.18 405.273 161.133 398.438 166.016 387.695 c 0
 170.898 376.465 177.246 361.328 186.035 341.797 c 2
 274.902 140.137 l 1
 362.793 360.84 l 2
 365.723 367.676 368.164 374.512 370.117 380.859 c 0
 372.07 387.695 373.535 394.531 375 401.855 c 0
 375 416.504 358.887 423.828 327.148 423.828 c 1
 327.148 453.125 l 1
 485.84 453.125 l 1
 485.84 423.828 l 1
EndSplineSet
EndChar
StartChar: W
Encoding: 87 87 56
OldEncoding: 87
Width: 683
Flags: HW
HStem: -6 21<216 244 244 244 440 472 472 472> 423 30<195.5 203 226 238 411.5 428>
Fore
666 425 m 1
 633 418 624 412 613 389 c 1
 472 -6 l 1
 440 -6 l 1
 423 43 389 133 340 254 c 1
 244 -6 l 1
 216 -6 l 1
 86 352 l 1
 76 381 69 397 65 402 c 0
 56 415 40 422 16 424 c 1
 16 453 l 1
 203 453 l 1
 203 423 l 1
 188 423 182 422 177 421 c 0
 172 420 167 419 161 416 c 1
 161 405 160 398 167 383 c 1
 254 158 l 1
 315 319 l 1
 295 370 l 2
 286 393 278 407 273 412 c 0
 266 419 250 423 226 423 c 1
 226 453 l 1
 428 453 l 1
 428 423 l 1
 395 423 377 418 376 408 c 1
 379 395 l 1
 472 157 l 1
 547 357 l 2
 554 376 556 390 556 402 c 0
 556 411 553 416 548 419 c 1
 511 424 l 1
 511 453 l 1
 666 453 l 1
 666 425 l 1
EndSplineSet
MinimumDistance: x0,-1 
Back
666.016 424.805 m 1
 649.414 421.875 637.695 417.48 630.859 413.086 c 0
 624.512 408.203 618.164 400.391 612.793 389.16 c 1
 472.168 -5.85938 l 1
 439.941 -5.85938 l 1
 431.152 18.5547 418.457 53.2227 401.855 97.168 c 0
 385.254 141.113 364.746 193.359 339.844 253.906 c 1
 244.141 -5.85938 l 1
 215.82 -5.85938 l 1
 85.9375 352.051 l 1
 76.1719 380.859 68.8477 397.461 64.9414 401.855 c 0
 56.1523 414.551 40.0391 421.875 16.1133 423.828 c 1
 16.1133 453.125 l 1
 203.125 453.125 l 1
 203.125 422.852 l 1
 195.801 422.852 189.941 422.852 186.523 422.363 c 0
 182.617 422.363 179.688 421.875 176.758 420.898 c 0
 172.363 420.41 166.992 418.457 161.133 416.016 c 1
 161.133 410.645 161.133 405.762 161.621 400.879 c 0
 161.621 396.484 163.574 390.137 166.992 382.812 c 1
 253.906 158.203 l 1
 314.941 318.848 l 1
 294.922 370.117 l 2
 285.645 392.578 278.32 406.738 272.949 412.109 c 0
 265.625 419.434 250 422.852 226.074 422.852 c 1
 226.074 453.125 l 1
 428.223 453.125 l 1
 428.223 422.852 l 1
 394.531 422.852 377.441 417.969 375.977 408.203 c 1
 378.906 395.02 l 1
 472.168 157.227 l 1
 546.875 356.934 l 2
 550.293 366.211 552.734 374.512 554.199 381.836 c 0
 555.176 389.16 556.152 395.996 556.152 401.855 c 0
 556.152 410.645 553.223 416.504 547.852 418.945 c 1
 511.23 423.828 l 1
 511.23 453.125 l 1
 666.016 453.125 l 1
 666.016 424.805 l 1
EndSplineSet
EndChar
StartChar: X
Encoding: 88 88 57
OldEncoding: 88
Width: 541
Flags: HW
HStem: 0 21<30 207 207 207 291 511 511 511> 423 30<249 261 330 345.5 497.5 510>
Fore
511 0 m 1
 291 0 l 1
 291 29 l 1
 330 32 342 40 342 45 c 0
 342 56 333 69 313 98 c 1
 259 181 l 1
 189 95 l 2
 168 68 158 52 158 45 c 0
 158 35 174 30 207 30 c 1
 207 0 l 1
 30 0 l 1
 30 29 l 1
 51 32 68 33 75 41 c 2
 100 68 l 1
 99 68 l 1
 226 224 l 1
 158 324 l 2
 127 371 104 400 90 410 c 0
 82 417 64 420 37 424 c 1
 37 453 l 1
 261 453 l 1
 261 423 l 1
 237 423 219 422 216 421 c 0
 212 418 206 416 206 412 c 0
 206 400 229 369 265 318 c 2
 284 290 l 1
 371 396 l 1
 374 401 376 406 376 411 c 0
 376 419 361 423 330 423 c 1
 330 453 l 1
 510 453 l 1
 510 423 l 1
 485 423 460 411 456 408 c 0
 451 405 432 385 415 365 c 2
 319 248 l 1
 436 75 l 2
 455 46 480 32 511 29 c 1
 511 0 l 1
EndSplineSet
MinimumDistance: x34,-1 
Back
511.23 0 m 1
 291.016 0 l 1
 291.016 28.8086 l 1
 310.547 30.2734 323.73 32.7148 331.055 36.1328 c 0
 338.379 39.5508 341.797 42.4805 341.797 44.9219 c 0
 341.797 50.293 339.844 56.6406 334.961 64.4531 c 0
 330.566 72.2656 323.242 83.4961 312.988 98.1445 c 2
 258.789 181.152 l 1
 188.965 95.2148 l 2
 168.457 68.3594 158.203 51.7578 158.203 44.9219 c 0
 158.203 35.1562 174.316 29.7852 207.031 29.7852 c 1
 207.031 0 l 1
 29.7852 0 l 1
 29.7852 28.8086 l 1
 40.5273 30.2734 49.8047 31.7383 58.1055 33.2031 c 0
 65.918 34.1797 71.7773 37.1094 75.1953 41.0156 c 2
 100.098 67.8711 l 1
 99.1211 67.8711 l 1
 226.074 224.121 l 1
 158.203 324.219 l 2
 126.465 371.094 104.004 399.902 89.8438 410.156 c 0
 85.9375 413.574 79.5898 416.016 70.3125 417.969 c 0
 61.5234 419.922 50.293 421.875 37.1094 423.828 c 1
 37.1094 453.125 l 1
 261.23 453.125 l 1
 261.23 422.852 l 1
 249.023 422.852 238.77 422.852 230.469 422.363 c 0
 222.168 422.363 217.285 421.875 215.82 420.898 c 0
 213.867 419.434 211.914 418.457 209.473 416.992 c 0
 207.031 415.527 206.055 414.062 206.055 412.109 c 0
 206.055 405.762 211.426 395.02 222.168 379.395 c 0
 232.91 363.77 247.07 343.262 265.137 317.871 c 2
 284.18 290.039 l 1
 371.094 395.996 l 2
 374.512 400.879 375.977 405.762 375.977 411.133 c 0
 375.977 418.945 360.84 422.852 330.078 422.852 c 1
 330.078 453.125 l 1
 509.766 453.125 l 1
 509.766 422.852 l 1
 497.559 422.852 485.84 420.898 475.098 416.504 c 0
 464.355 412.109 458.008 409.18 456.055 408.203 c 0
 453.125 406.738 448.242 401.855 439.941 393.066 c 0
 432.129 384.277 423.828 375 415.039 365.234 c 2
 318.848 248.047 l 1
 436.035 75.1953 l 2
 445.312 60.5469 456.543 49.3164 469.238 41.9922 c 0
 481.445 34.668 495.605 30.2734 511.23 28.8086 c 1
 511.23 0 l 1
EndSplineSet
EndChar
StartChar: Y
Encoding: 89 89 58
OldEncoding: 89
Width: 502
Flags: HW
HStem: 0 30<140 156 351.5 368> 424 29<14 23.5 205.5 221 322 337>
VStem: 207 93<80 88 88 201>
Fore
488 425 m 1
 469 422 455 418 446 413 c 0
 434 406 417 385 395 352 c 2
 300 207 l 1
 300 80 l 2
 300 61 301 46 308 39 c 0
 316 31 335 30 368 30 c 1
 368 0 l 1
 140 0 l 1
 140 30 l 1
 172 30 192 34 201 42 c 0
 205 46 207 61 207 88 c 2
 207 201 l 1
 93 366 74 393 58 409 c 0
 46 421 33 424 14 424 c 1
 14 453 l 1
 221 453 l 1
 221 424 l 1
 190 424 175 420 175 412 c 0
 175 405 178 400 185 389 c 2
 273 254 l 1
 361 395 l 2
 364 400 367 406 367 411 c 0
 367 420 352 424 322 424 c 1
 322 453 l 1
 488 453 l 1
 488 425 l 1
EndSplineSet
MinimumDistance: x0,-1 
Back
487.793 424.805 m 1
 469.238 422.363 455.566 418.457 445.801 413.086 c 0
 434.082 405.762 416.992 385.254 395.02 352.051 c 2
 299.805 207.031 l 1
 299.805 80.0781 l 2
 299.805 70.8008 300.293 62.5 301.27 55.1758 c 0
 302.734 47.8516 304.688 42.4805 308.105 39.0625 c 0
 312.012 35.1562 318.848 32.7148 328.613 31.7383 c 0
 338.379 30.2734 351.562 29.7852 368.164 29.7852 c 1
 368.164 0 l 1
 140.137 0 l 1
 140.137 29.7852 l 1
 171.875 29.7852 192.383 34.1797 201.172 41.9922 c 0
 205.078 45.8984 207.031 61.5234 207.031 87.8906 c 2
 207.031 201.172 l 1
 178.223 242.188 155.273 275.879 138.184 300.781 c 0
 120.605 326.172 106.445 346.191 96.1914 360.84 c 0
 85.4492 375.488 77.1484 386.23 71.7773 393.066 c 0
 66.8945 399.902 62.0117 404.785 58.1055 409.18 c 0
 51.7578 415.039 45.4102 418.945 38.5742 420.898 c 0
 31.7383 422.852 23.4375 423.828 14.1602 423.828 c 1
 14.1602 453.125 l 1
 221.191 453.125 l 1
 221.191 423.828 l 1
 190.43 423.828 174.805 419.922 174.805 412.109 c 0
 174.805 408.691 175.781 405.273 177.734 401.855 c 0
 179.199 398.438 181.641 394.531 185.059 389.16 c 2
 272.949 253.906 l 1
 360.84 395.02 l 2
 362.305 397.461 363.77 400.391 365.234 402.832 c 0
 366.211 405.762 367.188 408.203 367.188 411.133 c 0
 367.188 419.434 352.051 423.828 321.777 423.828 c 1
 321.777 453.125 l 1
 487.793 453.125 l 1
 487.793 424.805 l 1
EndSplineSet
EndChar
StartChar: Z
Encoding: 90 90 59
OldEncoding: 90
Width: 465
Flags: HW
HStem: 0 42<148 298> 412 41<177 307 307 307>
Fore
437 133 m 1
 418 0 l 1
 27 0 l 1
 27 20 l 1
 307 412 l 1
 177 412 l 2
 138 412 112 404 97 387 c 0
 90 380 83 359 76 324 c 1
 40 324 l 1
 55 453 l 1
 422 453 l 1
 422 433 l 1
 148 42 l 1
 298 42 l 2
 334 42 360 50 375 67 c 0
 382 76 392 98 403 133 c 1
 437 133 l 1
EndSplineSet
Back
437.012 132.812 m 1
 417.969 0 l 1
 26.8555 0 l 1
 26.8555 20.0195 l 1
 307.129 412.109 l 1
 176.758 412.109 l 2
 138.184 412.109 111.816 403.809 97.168 387.207 c 0
 90.332 380.371 83.4961 359.375 76.1719 324.219 c 1
 40.0391 324.219 l 1
 55.1758 453.125 l 1
 421.875 453.125 l 1
 421.875 433.105 l 1
 147.949 41.9922 l 1
 297.852 41.9922 l 2
 333.984 41.9922 359.863 50.293 375 66.8945 c 0
 378.418 71.7773 382.324 79.5898 387.695 90.332 c 0
 392.578 101.562 397.461 115.723 402.832 132.812 c 1
 437.012 132.812 l 1
EndSplineSet
EndChar
StartChar: bracketleft
Encoding: 91 91 60
OldEncoding: 91
Width: 171
Flags: HW
HStem: -84 34<101 108 108 170> 452 34<105 170>
VStem: 23 64<-23 430 430 437.5>
Fore
170 -84 m 1
 23 -84 l 1
 23 486 l 1
 170 486 l 1
 170 452 l 1
 105 452 l 2
 93 452 87 445 87 430 c 2
 87 -23 l 2
 87 -41 94 -50 108 -50 c 2
 170 -50 l 1
 170 -84 l 1
EndSplineSet
MinimumDistance: x0,-1 x7,0 x7,9 x6,3 x6,4 
Back
169.922 -83.9844 m 1
 22.9492 -83.9844 l 1
 22.9492 485.84 l 1
 169.922 485.84 l 1
 169.922 452.148 l 1
 104.98 452.148 l 2
 92.7734 452.148 86.9141 444.824 86.9141 430.176 c 2
 86.9141 -22.9492 l 2
 86.9141 -41.0156 94.2383 -49.8047 107.91 -49.8047 c 2
 169.922 -49.8047 l 1
 169.922 -83.9844 l 1
EndSplineSet
EndChar
StartChar: backslash
Encoding: 92 92 61
OldEncoding: 92
Width: 247
Flags: HW
HStem: -117 21<190 243 243 243> 457 20<3 55 3 3>
Fore
243 -117 m 1
 190 -117 l 1
 3 477 l 1
 55 477 l 1
 243 -117 l 1
EndSplineSet
MinimumDistance: x0,-1 
Back
243.164 -117.188 m 1
 189.941 -117.188 l 1
 2.92969 477.051 l 1
 55.1758 477.051 l 1
 243.164 -117.188 l 1
EndSplineSet
EndChar
StartChar: bracketright
Encoding: 93 93 62
OldEncoding: 93
Width: 174
Flags: HW
HStem: -84 34<1 65> 452 34<1 63 63 70>
VStem: 84 64<-36 -29 -29 425>
Fore
148 -84 m 1
 1 -84 l 1
 1 -50 l 1
 65 -50 l 2
 78 -50 84 -43 84 -29 c 2
 84 425 l 2
 84 443 77 452 63 452 c 2
 1 452 l 1
 1 486 l 1
 148 486 l 1
 148 -84 l 1
EndSplineSet
MinimumDistance: x0,-1 x5,8 x5,7 x4,1 x4,2 
Back
147.949 -83.9844 m 1
 0.976562 -83.9844 l 1
 0.976562 -49.8047 l 1
 64.9414 -49.8047 l 2
 77.6367 -49.8047 83.9844 -42.9688 83.9844 -28.8086 c 2
 83.9844 424.805 l 2
 83.9844 442.871 77.1484 452.148 62.9883 452.148 c 2
 0.976562 452.148 l 1
 0.976562 485.84 l 1
 147.949 485.84 l 1
 147.949 -83.9844 l 1
EndSplineSet
EndChar
StartChar: asciicircum
Encoding: 94 94 63
OldEncoding: 94
Width: 332
Flags: HW
HStem: 194 21<14 72 72 72 260 318 318 318> 429 20<140 192 140 140>
Fore
318 194 m 1
 260 194 l 1
 166 385 l 1
 72 194 l 1
 14 194 l 1
 140 449 l 1
 192 449 l 1
 318 194 l 1
EndSplineSet
MinimumDistance: x0,-1 
Back
317.871 193.848 m 1
 259.766 193.848 l 1
 166.016 384.766 l 1
 71.7773 193.848 l 1
 14.1602 193.848 l 1
 140.137 449.219 l 1
 191.895 449.219 l 1
 317.871 193.848 l 1
EndSplineSet
EndChar
StartChar: underscore
Encoding: 95 95 64
OldEncoding: 95
Width: 352
Flags: HW
HStem: -56 35<1 351>
Fore
351 -56 m 1
 1 -56 l 1
 1 -21 l 1
 351 -21 l 1
 351 -56 l 1
EndSplineSet
Back
351.074 -56.1523 m 1
 0.976562 -56.1523 l 1
 0.976562 -20.9961 l 1
 351.074 -20.9961 l 1
 351.074 -56.1523 l 1
EndSplineSet
EndChar
StartChar: grave
Encoding: 96 96 65
OldEncoding: 96
Width: 139
Flags: HW
HStem: 204 21<93 131 131 131> 268 20<25.5 36.5>
Fore
131 204 m 1
 93 204 l 1
 27 245 l 2
 18 250 12 257 11 268 c 0
 11 281 18 288 33 288 c 0
 40 288 48 284 57 277 c 1
 131 204 l 1
EndSplineSet
Back
130.859 204.102 m 1
 92.7734 204.102 l 1
 26.8555 245.117 l 2
 17.5781 249.512 12.207 257.324 11.2305 268.066 c 0
 11.2305 281.25 18.5547 288.086 33.2031 288.086 c 0
 40.5273 288.086 48.3398 284.18 57.1289 276.855 c 1
 130.859 204.102 l 1
EndSplineSet
EndChar
StartChar: a
Encoding: 97 97 66
OldEncoding: 97
Width: 347
Flags: HMW
HStem: -5 21<83.5 121.5 241 268.5> 313 34<146.5 171>
VStem: 24 80 201 76<94.5 97 97 188 224 263>
Fore
201 188 m 1
 136 165 104 137 104 102 c 0
 104 88 108 76 117 65 c 0
 124 58 130 53 143 53 c 0
 167 53 185 61 197 77 c 0
 200 81 201 92 201 97 c 2
 201 188 l 1
328 34 m 1
 305 8 281 -5 256 -5 c 0
 226 -5 208 9 203 36 c 1
 166 9 135 -5 108 -5 c 0
 59 -5 24 28 24 76 c 0
 24 113 41 143 74 166 c 0
 87 174 129 193 201 224 c 1
 201 263 l 2
 201 296 186 313 156 313 c 0
 130 313 116 304 114 285 c 0
 114 281 118 266 118 259 c 0
 118 252 116 242 107 231 c 0
 100 223 85 219 76 219 c 0
 53 219 37 232 37 259 c 0
 37 286 52 309 82 327 c 0
 105 342 131 347 162 347 c 0
 246 347 277 309 277 224 c 2
 277 84 l 2
 277 63 281 52 288 52 c 0
 295 52 307 59 328 78 c 1
 328 34 l 1
EndSplineSet
MinimumDistance: x1,-1 
Back
201.172 187.988 m 1
 136.23 165.527 104.004 136.719 104.004 102.051 c 0
 104.004 87.8906 108.398 75.6836 117.188 64.9414 c 0
 120.117 61.5234 124.023 58.5938 127.441 56.6406 c 0
 131.348 54.1992 136.23 53.2227 143.066 53.2227 c 0
 166.992 53.2227 185.059 61.0352 196.777 77.1484 c 0
 198.242 79.1016 199.219 82.0312 200.195 86.4258 c 0
 200.684 90.8203 201.172 94.2383 201.172 97.168 c 2
 201.172 187.988 l 1
328.125 34.1797 m 1
 305.176 7.8125 281.25 -4.88281 255.859 -4.88281 c 0
 226.074 -4.88281 208.496 8.78906 203.125 36.1328 c 1
 166.504 8.78906 134.766 -4.88281 107.91 -4.88281 c 0
 83.4961 -4.88281 62.9883 2.44141 47.3633 17.5781 c 0
 31.7383 32.7148 23.9258 51.7578 23.9258 76.1719 c 0
 23.9258 112.793 40.5273 142.578 74.2188 166.016 c 0
 80.5664 169.922 94.7266 176.758 115.723 186.523 c 0
 136.719 196.289 165.039 208.496 201.172 224.121 c 1
 201.172 263.184 l 2
 201.172 296.387 186.035 312.988 155.762 312.988 c 0
 129.883 312.988 116.211 303.711 113.77 285.156 c 0
 113.77 283.203 114.746 278.809 116.211 272.949 c 0
 117.188 267.09 118.164 262.207 118.164 258.789 c 0
 118.164 255.859 117.188 251.465 116.211 246.582 c 0
 114.746 241.699 111.816 236.328 106.934 230.957 c 0
 103.516 227.051 98.6328 224.121 92.2852 222.168 c 0
 85.9375 220.215 80.5664 219.238 76.1719 219.238 c 0
 64.4531 219.238 55.1758 222.168 47.8516 229.004 c 0
 40.5273 235.84 37.1094 245.605 37.1094 258.789 c 0
 37.1094 286.133 51.7578 309.082 82.0312 327.148 c 0
 93.2617 334.473 105.469 339.355 119.141 342.285 c 0
 132.324 345.703 146.484 347.168 162.109 347.168 c 0
 204.102 347.168 233.887 337.402 250.977 317.383 c 0
 268.555 297.852 276.855 266.602 276.855 224.121 c 2
 276.855 83.9844 l 2
 276.855 62.5 280.762 51.7578 288.086 51.7578 c 0
 291.504 51.7578 296.387 54.1992 302.734 58.1055 c 0
 308.594 62.0117 317.383 68.8477 328.125 78.125 c 1
 328.125 34.1797 l 1
EndSplineSet
EndChar
StartChar: b
Encoding: 98 98 67
OldEncoding: 98
Width: 401
Flags: HW
HStem: -5 39<198.5 222.5> 291 62<222.5 225> 437 20<55 58> 497 20<138 138>
VStem: 71 79<61 243 243 249.5 318 427> 291 84<161.5 175>
Fore
291 157 m 0
 291 193 287 222 275 246 c 0
 260 276 239 291 211 291 c 0
 196 291 182 287 171 278 c 0
 157 267 150 256 150 243 c 2
 150 61 l 2
 150 42 189 34 208 34 c 0
 263 34 291 75 291 157 c 0
375 183 m 0
 375 140 361 99 334 63 c 0
 301 18 253 -5 192 -5 c 0
 167 -5 144 -4 121 7 c 0
 89 22 71 30 71 49 c 2
 71 427 l 2
 71 442 70 451 69 452 c 0
 66 455 61 457 55 457 c 2
 24 454 l 1
 24 482 l 1
 47 489 90 502 138 517 c 1
 150 513 l 1
 150 318 l 1
 173 339 208 353 237 353 c 0
 282 353 317 335 342 298 c 0
 363 265 375 227 375 183 c 0
EndSplineSet
MinimumDistance: x0,-1 
Back
291.016 157.227 m 0
 291.016 174.805 290.039 191.406 287.598 206.055 c 0
 285.156 220.703 280.762 233.887 274.902 246.094 c 0
 260.254 275.879 238.77 291.016 210.938 291.016 c 0
 195.801 291.016 182.129 286.621 170.898 277.832 c 0
 157.227 267.09 149.902 255.859 149.902 243.164 c 2
 149.902 61.0352 l 2
 149.902 56.1523 152.344 52.2461 156.738 48.8281 c 0
 160.645 45.8984 166.016 42.9688 171.875 40.5273 c 0
 178.223 38.0859 184.57 36.6211 190.918 35.6445 c 0
 197.754 34.668 203.125 34.1797 208.008 34.1797 c 0
 263.184 34.1797 291.016 75.1953 291.016 157.227 c 0
375 183.105 m 0
 375 161.621 371.582 140.625 364.258 120.605 c 0
 357.422 100.098 347.168 81.0547 333.984 62.9883 c 0
 300.781 17.5781 253.418 -4.88281 191.895 -4.88281 c 0
 179.199 -4.88281 166.992 -4.39453 155.273 -2.92969 c 0
 144.043 -1.46484 132.324 1.46484 121.094 6.83594 c 0
 104.98 14.1602 92.7734 20.9961 83.9844 26.3672 c 0
 75.1953 32.2266 70.8008 39.5508 70.8008 48.8281 c 2
 70.8008 426.758 l 2
 70.8008 442.383 70.3125 450.684 68.8477 452.148 c 0
 65.4297 455.566 61.0352 457.031 55.1758 457.031 c 2
 23.9258 454.102 l 1
 23.9258 481.934 l 1
 35.1562 485.352 51.2695 490.234 71.2891 496.582 c 0
 91.7969 502.93 113.77 509.766 138.184 517.09 c 1
 149.902 513.184 l 1
 149.902 317.871 l 1
 161.133 328.613 174.805 337.402 190.918 343.262 c 0
 207.031 349.609 222.168 353.027 236.816 353.027 c 0
 282.227 353.027 317.383 334.473 341.797 297.852 c 0
 352.539 281.25 360.84 263.672 366.699 244.629 c 0
 372.07 225.586 375 205.078 375 183.105 c 0
EndSplineSet
EndChar
StartChar: c
Encoding: 99 99 68
OldEncoding: 99
Width: 336
Flags: HW
HStem: -5 67<179.5 195.5> 310 37<165.5 191.5>
VStem: 22 73<173 188>
Fore
316 118 m 1
 278 36 227 -5 164 -5 c 0
 121 -5 85 11 58 48 c 0
 37 79 22 116 22 163 c 0
 22 213 37 256 67 292 c 0
 98 329 139 347 190 347 c 0
 218 347 242 342 263 329 c 0
 290 314 304 290 304 267 c 0
 304 244 287 226 262 226 c 0
 241 226 225 243 218 266 c 0
 210 298 205 310 178 310 c 0
 153 310 132 297 116 271 c 0
 102 248 95 222 95 191 c 0
 95 155 104 125 121 102 c 0
 140 75 165 62 194 62 c 0
 215 62 234 68 249 81 c 0
 260 89 273 105 292 133 c 1
 316 118 l 1
EndSplineSet
MinimumDistance: x11,-1 
Back
315.918 118.164 m 1
 277.832 36.1328 227.539 -4.88281 164.062 -4.88281 c 0
 142.578 -4.88281 123.047 -0.976562 104.98 7.32422 c 0
 86.9141 15.625 71.2891 29.2969 58.1055 47.8516 c 0
 47.3633 63.4766 38.5742 80.5664 32.2266 99.6094 c 0
 25.3906 118.652 21.9727 139.648 21.9727 163.086 c 0
 21.9727 212.891 37.1094 255.859 66.8945 291.992 c 0
 98.1445 328.613 139.16 347.168 189.941 347.168 c 0
 204.102 347.168 216.797 345.703 229.004 342.773 c 0
 241.211 340.332 252.441 335.449 263.184 329.102 c 0
 276.367 321.777 286.621 312.5 293.457 300.781 c 0
 300.293 289.551 304.199 278.32 304.199 267.09 c 0
 304.199 255.859 300.293 246.094 292.48 237.793 c 0
 284.668 229.98 274.902 226.074 262.207 226.074 c 0
 251.465 226.074 242.188 229.98 234.375 237.305 c 0
 227.051 245.117 221.191 254.883 217.773 266.113 c 0
 213.867 282.227 209.473 293.457 205.078 299.805 c 0
 200.195 306.641 191.406 310.059 178.223 310.059 c 0
 152.832 310.059 131.836 296.875 116.211 270.996 c 0
 102.051 248.535 95.2148 221.68 95.2148 190.918 c 0
 95.2148 154.785 103.516 125.488 121.094 102.051 c 0
 140.137 75.1953 164.551 62.0117 193.848 62.0117 c 0
 215.332 62.0117 233.887 68.3594 249.023 81.0547 c 0
 254.395 84.9609 260.742 91.3086 267.578 99.6094 c 0
 274.414 107.91 282.715 119.141 291.992 132.812 c 1
 315.918 118.164 l 1
EndSplineSet
EndChar
StartChar: d
Encoding: 100 100 69
OldEncoding: 100
Width: 383
Flags: HW
HStem: -6 21<248 248> -5 53<146.5 167.5> 436 20<218 221.5> 497 20<299 299>
VStem: 235 79<92 251 333 333 333 427>
Fore
235 251 m 1
 233 272 226 288 213 301 c 0
 202 312 186 316 170 316 c 0
 109 316 90 244 90 191 c 0
 90 127 112 48 181 48 c 0
 210 48 228 60 235 85 c 1
 235 251 l 1
362 33 m 1
 248 -6 l 1
 235 1 l 1
 235 24 l 1
 212 5 184 -5 151 -5 c 0
 121 -5 93 4 68 21 c 0
 32 45 12 97 12 165 c 0
 12 216 25 258 52 293 c 0
 82 333 121 353 169 353 c 0
 192 353 214 346 235 333 c 1
 235 427 l 2
 235 441 234 449 233 450 c 0
 230 454 225 456 218 456 c 2
 188 453 l 1
 188 482 l 1
 258 504 277 509 299 517 c 1
 314 513 l 1
 314 92 l 2
 314 65 318 59 339 59 c 2
 362 61 l 1
 362 33 l 1
EndSplineSet
MinimumDistance: x1,-1 
Back
234.863 250.977 m 1
 232.91 271.484 225.586 288.574 212.891 300.781 c 0
 207.52 306.152 201.172 310.059 193.359 312.5 c 0
 186.035 314.941 178.223 315.918 169.922 315.918 c 0
 154.785 315.918 141.602 312.012 131.348 304.199 c 0
 121.094 295.898 112.793 285.645 106.934 273.438 c 0
 101.074 261.23 96.6797 247.559 94.2383 232.91 c 0
 91.3086 218.262 89.8438 204.102 89.8438 190.918 c 0
 89.8438 174.805 91.3086 158.691 94.7266 141.602 c 0
 97.6562 124.512 102.539 109.375 109.375 95.7031 c 0
 116.699 82.0312 125.977 70.3125 137.695 61.5234 c 0
 148.926 52.7344 163.574 47.8516 181.152 47.8516 c 0
 209.473 47.8516 227.539 60.5469 234.863 84.9609 c 1
 234.863 250.977 l 1
361.816 33.2031 m 1
 248.047 -5.85938 l 1
 234.863 0.976562 l 1
 234.863 23.9258 l 1
 212.402 4.88281 184.57 -4.88281 150.879 -4.88281 c 0
 121.094 -4.88281 93.2617 3.90625 67.8711 20.9961 c 0
 49.8047 33.2031 36.1328 51.2695 26.3672 76.6602 c 0
 16.6016 101.562 12.207 130.859 12.207 165.039 c 0
 12.207 215.82 25.3906 258.301 51.7578 292.969 c 0
 82.0312 333.008 121.094 353.027 168.945 353.027 c 0
 191.895 353.027 213.867 346.191 234.863 333.008 c 1
 234.863 426.758 l 2
 234.863 440.918 234.375 448.73 232.91 450.195 c 0
 230.469 454.102 225.098 456.055 217.773 456.055 c 2
 187.988 453.125 l 1
 187.988 481.934 l 1
 205.566 487.305 220.215 491.699 231.934 495.117 c 0
 244.141 498.535 253.906 501.465 262.207 503.906 c 0
 270.02 506.836 276.855 508.789 282.715 511.23 c 0
 298.828 517.09 l 1
 313.965 513.184 l 1
 313.965 91.7969 l 2
 313.965 78.6133 315.43 69.8242 318.359 65.4297 c 0
 321.289 61.0352 328.125 59.082 338.867 59.082 c 2
 361.816 61.0352 l 1
 361.816 33.2031 l 1
EndSplineSet
EndChar
StartChar: e
Encoding: 101 101 70
OldEncoding: 101
Width: 344
Flags: HW
HStem: -5 65<160.5 186.5> 199 41<94 218> 305 42<151.5 177>
VStem: 23 70
Fore
161 305 m 0
 128 305 105 283 94 240 c 1
 218 240 l 1
 212 283 193 305 161 305 c 0
325 126 m 1
 318 97 303 71 282 48 c 0
 249 13 209 -5 164 -5 c 0
 84 -5 36 46 24 126 c 0
 23 131 23 136 23 142 c 2
 23 163 l 2
 23 212 35 254 60 288 c 0
 89 327 127 347 176 347 c 0
 261 347 309 291 309 199 c 1
 90 199 l 1
 92 106 127 60 194 60 c 0
 231 60 266 86 301 139 c 1
 325 126 l 1
EndSplineSet
MinimumDistance: x3,-1 
Back
161.133 305.176 m 0
 127.441 305.176 105.469 283.203 94.2383 240.234 c 1
 217.773 240.234 l 1
 211.914 283.203 192.871 305.176 161.133 305.176 c 0
325.195 125.977 m 1
 317.871 97.168 303.223 71.2891 282.227 47.8516 c 0
 248.535 12.6953 209.473 -4.88281 164.062 -4.88281 c 0
 124.023 -4.88281 92.2852 6.83594 68.3594 30.2734 c 0
 44.9219 54.1992 29.7852 85.9375 23.9258 125.977 c 0
 23.4375 130.859 22.9492 136.23 22.9492 142.09 c 0
 22.9492 147.949 22.9492 154.785 22.9492 163.086 c 0
 22.9492 212.402 35.1562 253.906 60.0586 288.086 c 0
 88.8672 327.148 127.441 347.168 175.781 347.168 c 0
 218.75 347.168 251.465 333.984 274.414 307.617 c 0
 297.363 281.25 309.082 245.117 309.082 199.219 c 1
 89.8438 199.219 l 1
 91.7969 106.445 126.465 60.0586 193.848 60.0586 c 0
 230.469 60.0586 266.113 86.4258 300.781 139.16 c 1
 325.195 125.977 l 1
EndSplineSet
EndChar
StartChar: f
Encoding: 102 102 71
OldEncoding: 102
Width: 302
Flags: HW
HStem: 0 30 306 40<15 73 151 236> 497 20<164 217.5>
VStem: 76 74 76 77
Fore
289 463 m 0
 289 440 276 424 248 424 c 0
 236 424 223 432 212 449 c 0
 201 468 192 478 183 478 c 0
 161 478 150 459 150 421 c 2
 150 346 l 1
 236 346 l 1
 236 306 l 1
 151 306 l 1
 151 84 l 2
 151 63 152 48 157 41 c 0
 164 32 183 28 216 28 c 1
 216 0 l 1
 14 0 l 1
 14 28 l 1
 54 31 62 34 65 37 c 0
 70 44 73 60 73 84 c 2
 73 306 l 1
 15 306 l 1
 15 346 l 1
 73 346 l 1
 75 460 120 517 208 517 c 0
 227 517 241 515 257 506 c 0
 278 494 289 480 289 463 c 0
EndSplineSet
MinimumDistance: x3,-1 x16,18 x16,17 x5,3 x5,4 
Back
289.062 462.891 m 0
 289.062 451.66 285.645 442.383 278.809 435.059 c 0
 272.461 427.734 262.207 423.828 248.047 423.828 c 0
 242.188 423.828 235.84 425.781 229.492 430.176 c 0
 223.145 434.082 217.285 440.43 211.914 449.219 c 0
 201.172 468.262 191.895 478.027 183.105 478.027 c 0
 161.133 478.027 149.902 458.984 149.902 420.898 c 2
 149.902 346.191 l 1
 235.84 346.191 l 1
 235.84 306.152 l 1
 150.879 306.152 l 1
 150.879 83.9844 l 2
 150.879 73.2422 151.367 64.4531 151.855 57.1289 c 0
 152.832 49.8047 154.297 44.4336 157.227 41.0156 c 0
 163.574 32.2266 183.105 27.832 215.82 27.832 c 1
 215.82 0 l 1
 14.1602 0 l 1
 14.1602 27.832 l 1
 34.1797 29.2969 47.3633 30.7617 53.7109 32.7148 c 0
 60.0586 34.1797 63.4766 35.6445 64.9414 37.1094 c 0
 70.3125 44.4336 73.2422 60.0586 73.2422 83.9844 c 2
 73.2422 306.152 l 1
 15.1367 306.152 l 1
 15.1367 346.191 l 1
 73.2422 346.191 l 1
 75.1953 459.961 120.117 517.09 208.008 517.09 c 0
 217.285 517.09 226.074 516.113 233.398 515.137 c 0
 241.211 513.672 249.023 510.742 256.836 505.859 c 0
 278.32 494.141 289.062 479.492 289.062 462.891 c 0
EndSplineSet
EndChar
StartChar: g
Encoding: 103 103 72
OldEncoding: 103
Width: 359
Flags: HW
HStem: -135 21<124.5 182> -78 89<148 191.5> 72 48 153 162<163 175> 332 20<137 182.5>
VStem: 20 66<-51.5 -47> 47 76<225 264.5> 223 72<196.5 222.5>
Fore
223 212 m 0
 223 233 219 253 212 272 c 0
 202 301 186 315 164 315 c 0
 137 315 123 297 123 261 c 0
 123 189 143 153 183 153 c 0
 210 153 223 173 223 212 c 0
295 -19 m 0
 295 -8 284 0 269 4 c 0
 249 11 224 11 201 11 c 2
 139 11 l 2
 129 11 120 12 113 14 c 1
 95 -10 86 -27 86 -38 c 0
 86 -65 117 -78 179 -78 c 0
 204 -78 228 -72 252 -64 c 0
 281 -54 295 -39 295 -19 c 0
338 285 m 1
 285 285 l 1
 292 267 295 249 295 230 c 0
 295 163 246 119 178 119 c 0
 165 119 149 119 140 122 c 2
 138 122 l 2
 133 122 129 116 122 109 c 0
 113 99 108 92 108 88 c 0
 108 83 124 79 155 77 c 2
 241 72 l 2
 293 69 332 39 332 -9 c 0
 332 -92 216 -135 148 -135 c 0
 101 -135 20 -118 20 -59 c 0
 20 -35 40 -8 79 23 c 1
 60 36 49 46 49 61 c 0
 49 78 67 103 103 135 c 1
 66 156 47 187 47 228 c 0
 47 301 101 352 173 352 c 0
 192 352 215 347 243 336 c 0
 254 332 266 330 277 330 c 2
 338 330 l 1
 338 285 l 1
EndSplineSet
MinimumDistance: x0,-1 
Back
223.145 211.914 m 0
 223.145 232.91 219.238 252.441 211.914 271.973 c 0
 202.148 300.781 186.035 314.941 164.062 314.941 c 0
 136.719 314.941 123.047 296.875 123.047 261.23 c 0
 123.047 188.965 143.066 152.832 183.105 152.832 c 0
 209.473 152.832 223.145 172.852 223.145 211.914 c 0
294.922 -19.043 m 0
 294.922 -13.6719 292.48 -8.78906 287.598 -4.88281 c 0
 282.715 -0.976562 276.367 1.95312 269.043 3.90625 c 0
 258.789 7.32422 248.047 9.27734 235.84 9.76562 c 0
 224.121 10.7422 212.402 11.2305 201.172 11.2305 c 2
 139.16 11.2305 l 2
 128.906 11.2305 120.117 12.207 112.793 14.1602 c 1
 95.2148 -9.76562 85.9375 -27.3438 85.9375 -38.0859 c 0
 85.9375 -64.4531 117.188 -78.125 179.199 -78.125 c 0
 191.895 -78.125 204.102 -76.6602 215.82 -74.2188 c 0
 228.027 -71.2891 240.234 -67.8711 251.953 -63.9648 c 0
 280.762 -54.1992 294.922 -39.0625 294.922 -19.043 c 0
337.891 285.156 m 1
 285.156 285.156 l 1
 291.504 267.09 294.922 248.535 294.922 229.98 c 0
 294.922 196.777 284.18 169.922 262.207 149.414 c 0
 240.234 129.395 211.914 119.141 178.223 119.141 c 0
 171.387 119.141 164.551 119.141 157.715 119.629 c 0
 150.391 119.629 144.531 120.605 140.137 122.07 c 2
 138.184 122.07 l 2
 135.254 122.07 132.812 120.605 130.371 118.164 c 0
 127.93 115.234 125.488 112.305 122.07 108.887 c 0
 112.793 99.1211 107.91 91.7969 107.91 87.8906 c 0
 107.91 82.5195 123.535 79.1016 154.785 77.1484 c 2
 241.211 71.7773 l 2
 267.09 70.8008 288.574 62.9883 306.152 48.3398 c 0
 323.242 34.1797 332.031 15.1367 332.031 -8.78906 c 0
 332.031 -29.7852 325.684 -47.8516 312.988 -63.4766 c 0
 300.293 -79.1016 284.668 -92.2852 265.625 -103.027 c 0
 246.582 -113.77 226.562 -121.582 205.566 -126.953 c 0
 184.57 -132.324 165.527 -134.766 147.949 -134.766 c 0
 136.23 -134.766 122.559 -133.789 107.91 -131.348 c 0
 93.2617 -129.395 79.5898 -125 66.4062 -119.141 c 0
 53.7109 -112.793 42.4805 -104.98 33.6914 -95.7031 c 0
 24.4141 -85.9375 20.0195 -73.7305 20.0195 -59.082 c 0
 20.0195 -35.1562 39.5508 -7.8125 79.1016 22.9492 c 1
 69.8242 29.7852 62.5 35.6445 57.1289 41.5039 c 0
 51.7578 47.3633 48.8281 53.7109 48.8281 61.0352 c 0
 48.8281 78.125 66.8945 103.027 103.027 134.766 c 1
 65.4297 155.762 46.875 186.523 46.875 228.027 c 0
 46.875 246.094 50.293 262.695 56.6406 277.832 c 0
 62.9883 293.457 71.7773 306.641 83.0078 317.383 c 0
 94.2383 328.613 107.91 336.914 123.047 342.773 c 0
 138.184 349.121 154.785 352.051 172.852 352.051 c 0
 182.129 352.051 192.871 350.586 204.59 348.145 c 0
 216.309 345.215 229.004 341.309 243.164 335.938 c 0
 254.395 332.031 265.625 330.078 276.855 330.078 c 2
 337.891 330.078 l 1
 337.891 285.156 l 1
EndSplineSet
EndChar
StartChar: h
Encoding: 104 104 73
OldEncoding: 104
Width: 394
Flags: HW
HStem: 0 21<24 197 197 197 215 384 384 384> 297 56<225.5 233> 434 20<54 56.5> 497 20<137 137>
VStem: 70 79<83 256 311 449> 263 80<83 228>
Fore
384 0 m 1
 215 0 l 1
 215 26 l 1
 260 31 263 34 263 83 c 2
 263 228 l 2
 263 274 248 297 218 297 c 0
 197 297 174 283 149 256 c 1
 149 83 l 2
 149 60 150 44 157 37 c 0
 160 34 170 32 197 25 c 1
 197 0 l 1
 24 0 l 1
 24 26 l 1
 47 29 60 34 65 43 c 0
 68 47 70 60 70 83 c 2
 70 449 l 1
 65 452 59 454 54 454 c 2
 25 452 l 1
 25 481 l 1
 137 517 l 1
 149 509 l 1
 149 311 l 1
 176 339 207 353 244 353 c 0
 310 353 343 312 343 229 c 2
 343 83 l 2
 343 62 344 48 347 43 c 0
 351 36 365 30 384 23 c 1
 384 0 l 1
EndSplineSet
MinimumDistance: x22,-1 
Back
383.789 0 m 1
 214.844 0 l 1
 214.844 25.8789 l 1
 226.562 27.3438 235.352 28.8086 241.699 30.7617 c 0
 248.047 33.2031 252.441 35.1562 255.859 38.0859 c 0
 259.277 40.5273 261.23 45.8984 262.207 54.1992 c 0
 262.695 62.0117 263.184 71.7773 263.184 83.0078 c 2
 263.184 228.027 l 2
 263.184 273.926 248.047 296.875 217.773 296.875 c 0
 197.266 296.875 174.316 283.203 148.926 255.859 c 1
 148.926 83.0078 l 2
 148.926 71.7773 149.414 62.0117 150.391 54.1992 c 0
 151.367 45.8984 153.809 40.5273 157.227 37.1094 c 0
 158.203 35.6445 162.109 34.1797 167.969 32.7148 c 0
 173.828 30.7617 183.594 28.3203 196.777 24.9023 c 1
 196.777 0 l 1
 23.9258 0 l 1
 23.9258 25.8789 l 1
 46.875 28.8086 60.5469 34.1797 64.9414 42.9688 c 0
 68.3594 46.875 69.8242 60.5469 69.8242 83.0078 c 2
 69.8242 449.219 l 1
 64.4531 452.148 59.5703 454.102 54.1992 454.102 c 2
 24.9023 452.148 l 1
 24.9023 480.957 l 1
 137.207 517.09 l 1
 148.926 508.789 l 1
 148.926 311.035 l 1
 175.781 338.867 207.52 353.027 244.141 353.027 c 0
 310.059 353.027 342.773 311.523 342.773 229.004 c 2
 342.773 83.0078 l 2
 342.773 61.5234 344.238 48.3398 347.168 42.9688 c 0
 349.121 39.5508 353.516 36.1328 359.863 33.2031 c 0
 366.699 29.7852 374.512 26.3672 383.789 22.9492 c 1
 383.789 0 l 1
EndSplineSet
EndChar
StartChar: i
Encoding: 105 105 74
OldEncoding: 105
Width: 205
Flags: HW
HStem: 0 21<13 193 13 13> 498 20<87.5 113.5>
VStem: 66 76<82 253 253 264.5>
Fore
193 0 m 1
 13 0 l 1
 13 27 l 1
 58 27 66 39 66 82 c 2
 66 253 l 2
 66 276 62 288 53 289 c 1
 16 284 l 1
 16 309 l 1
 131 355 l 1
 142 351 l 1
 142 82 l 2
 142 63 144 45 149 38 c 0
 152 34 166 30 193 26 c 1
 193 0 l 1
56 472 m 0
 56 499 74 518 101 518 c 0
 126 518 145 499 145 472 c 0
 145 445 126 425 101 425 c 0
 74 425 56 445 56 472 c 0
EndSplineSet
MinimumDistance: x0,-1 
Back
192.871 0 m 1
 192.871 25.8789 l 1
 166.504 29.7852 151.855 34.1797 148.926 38.0859 c 0
 146.484 41.5039 144.531 47.3633 143.555 55.6641 c 0
 142.578 63.9648 142.09 72.7539 142.09 82.0312 c 2
 142.09 351.074 l 1
 130.859 354.98 l 1
 16.1133 309.082 l 1
 16.1133 284.18 l 1
 53.2227 289.062 l 1
 61.5234 288.574 65.918 276.367 65.918 252.93 c 2
 65.918 82.0312 l 2
 65.918 60.5469 62.9883 46.3867 56.6406 38.5742 c 0
 50.293 30.7617 35.6445 26.8555 13.1836 26.8555 c 1
 13.1836 0 l 1
 192.871 0 l 1
56.1523 472.168 m 0
 56.1523 458.496 60.0586 447.266 68.3594 438.477 c 0
 76.6602 429.688 87.8906 424.805 101.074 424.805 c 0
 113.77 424.805 124.023 429.688 132.324 438.477 c 0
 140.625 447.266 145.02 458.496 145.02 472.168 c 0
 145.02 485.352 140.625 496.094 132.324 504.883 c 0
 124.023 513.672 113.77 518.066 101.074 518.066 c 0
 87.8906 518.066 76.6602 513.672 68.3594 504.883 c 0
 60.0586 496.094 56.1523 485.352 56.1523 472.168 c 0
EndSplineSet
EndChar
StartChar: j
Encoding: 106 106 75
OldEncoding: 106
Width: 232
Flags: HW
HStem: -159 21<49.5 114.5> 502 20<146.5 171.5>
VStem: 124 77<-22 2 2 255 255 266.5>
Fore
201 354 m 1
 201 2 l 2
 201 -106 156 -159 73 -159 c 0
 26 -159 2 -135 2 -108 c 0
 2 -97 6 -88 13 -81 c 0
 18 -76 33 -72 36 -72 c 0
 51 -72 64 -76 75 -95 c 0
 83 -110 96 -117 100 -117 c 0
 108 -117 117 -107 121 -94 c 0
 123 -87 124 -63 124 -22 c 2
 124 255 l 2
 124 278 120 290 111 291 c 1
 73 286 l 1
 73 312 l 1
 190 358 l 1
 201 354 l 1
114 475 m 0
 114 502 134 522 159 522 c 0
 184 522 204 502 204 475 c 0
 204 448 184 429 159 429 c 0
 134 429 114 448 114 475 c 0
EndSplineSet
MinimumDistance: x8,-1 
Back
201.172 354.004 m 1
 189.941 357.91 l 1
 73.2422 312.012 l 1
 73.2422 286.133 l 1
 110.84 291.016 l 1
 119.629 290.527 124.023 278.32 124.023 254.883 c 2
 124.023 -21.9727 l 2
 124.023 -63.4766 123.047 -87.4023 121.094 -94.2383 c 0
 119.141 -100.586 116.211 -105.957 111.816 -110.352 c 0
 107.91 -114.746 104.004 -117.188 100.098 -117.188 c 0
 98.1445 -117.188 94.2383 -115.234 88.8672 -111.328 c 0
 83.4961 -107.91 79.1016 -102.539 75.1953 -95.2148 c 0
 69.8242 -85.4492 63.4766 -79.5898 57.1289 -76.6602 c 0
 50.293 -73.7305 43.457 -71.7773 36.1328 -71.7773 c 0
 34.668 -71.7773 31.25 -72.7539 25.3906 -74.707 c 0
 20.0195 -76.1719 15.625 -78.125 13.1836 -81.0547 c 0
 5.85938 -88.3789 1.95312 -97.168 1.95312 -107.91 c 0
 1.95312 -121.094 7.8125 -133.301 20.0195 -143.555 c 0
 32.2266 -153.809 49.8047 -159.18 73.2422 -159.18 c 0
 114.258 -159.18 145.996 -145.508 167.969 -119.141 c 0
 189.941 -92.2852 201.172 -51.7578 201.172 1.95312 c 2
 201.172 354.004 l 1
113.77 475.098 m 0
 113.77 461.426 118.164 450.684 126.953 441.895 c 0
 135.742 433.105 146.484 429.199 159.18 429.199 c 0
 171.875 429.199 182.129 433.105 190.918 441.895 c 0
 199.707 450.684 204.102 461.426 204.102 475.098 c 0
 204.102 488.281 199.707 499.512 190.918 508.301 c 0
 182.129 517.578 171.875 521.973 159.18 521.973 c 0
 146.484 521.973 135.742 517.578 126.953 508.301 c 0
 118.164 499.512 113.77 488.281 113.77 475.098 c 0
EndSplineSet
EndChar
StartChar: k
Encoding: 107 107 76
OldEncoding: 107
Width: 405
Flags: HW
HStem: 0 29<225 243> 326 20<215 380 215 215> 435 20<57 62.5> 495 20<142 142>
VStem: 76 80<59.5 69 69 161 221 420>
Fore
399 0 m 1
 225 0 l 1
 225 29 l 1
 243 29 l 2
 248 29 250 30 250 32 c 0
 250 33 249 34 248 37 c 1
 156 161 l 1
 156 57 l 2
 156 41 166 32 187 30 c 2
 210 28 l 1
 210 0 l 1
 24 0 l 1
 24 28 l 1
 50 31 64 34 65 35 c 0
 72 42 76 50 76 69 c 2
 76 420 l 2
 76 435 75 444 73 447 c 0
 70 451 68 455 57 455 c 2
 24 452 l 1
 24 479 l 1
 142 515 l 1
 156 511 l 1
 156 221 l 1
 238 295 l 2
 246 303 251 307 251 311 c 0
 251 315 239 317 215 317 c 1
 215 346 l 1
 380 346 l 1
 380 316 l 1
 351 316 334 312 321 305 c 0
 310 300 290 285 267 266 c 2
 207 213 l 1
 313 78 l 2
 337 47 364 30 399 29 c 1
 399 0 l 1
EndSplineSet
MinimumDistance: x29,-1 
Back
398.926 0 m 1
 225.098 0 l 1
 225.098 28.8086 l 1
 243.164 28.8086 l 2
 247.559 28.8086 250 29.7852 250 32.2266 c 0
 250 32.7148 249.512 34.1797 248.047 37.1094 c 2
 155.762 161.133 l 1
 155.762 57.1289 l 2
 155.762 41.0156 166.504 32.2266 187.012 29.7852 c 2
 209.961 27.832 l 1
 209.961 0 l 1
 23.9258 0 l 1
 23.9258 27.832 l 1
 49.8047 31.25 63.4766 33.6914 64.9414 35.1562 c 0
 68.3594 38.5742 70.8008 42.4805 73.2422 47.3633 c 0
 75.1953 52.7344 76.1719 59.5703 76.1719 68.8477 c 2
 76.1719 419.922 l 2
 76.1719 435.547 75.1953 444.336 73.2422 446.777 c 0
 71.7773 449.219 69.8242 450.684 67.8711 452.637 c 0
 65.918 454.102 62.5 455.078 57.1289 455.078 c 2
 23.9258 452.148 l 1
 23.9258 479.004 l 1
 142.09 515.137 l 1
 155.762 511.23 l 1
 155.762 221.191 l 1
 237.793 294.922 l 2
 242.188 298.828 245.117 302.246 247.559 304.688 c 0
 250 306.641 250.977 309.082 250.977 311.035 c 0
 250.977 314.941 238.77 316.895 214.844 316.895 c 1
 214.844 346.191 l 1
 379.883 346.191 l 1
 379.883 315.918 l 1
 365.234 315.918 353.516 314.941 344.727 312.988 c 0
 335.449 311.035 327.637 308.105 320.801 305.176 c 0
 315.43 302.246 308.105 297.363 298.34 290.527 c 0
 289.062 283.691 278.32 275.391 267.09 266.113 c 2
 207.031 212.891 l 1
 312.988 78.125 l 2
 325.195 62.5 337.891 50.7812 352.051 42.4805 c 0
 366.211 34.1797 381.836 29.7852 398.926 28.8086 c 1
 398.926 0 l 1
EndSplineSet
EndChar
StartChar: l
Encoding: 108 108 77
OldEncoding: 108
Width: 209
Flags: HW
HStem: 0 21<17 195 195 195> 436 20<52 56> 501 20<144 144>
VStem: 69 75<71 72 72 420>
Fore
195 0 m 1
 17 0 l 1
 17 26 l 1
 56 31 69 41 69 72 c 2
 69 420 l 2
 69 437 68 446 67 449 c 0
 65 454 60 456 52 456 c 2
 15 453 l 1
 15 482 l 1
 37 487 125 516 144 521 c 1
 144 71 l 2
 144 42 161 27 195 27 c 1
 195 0 l 1
EndSplineSet
MinimumDistance: x0,-1 x10,0 x10,11 
Back
194.824 0 m 1
 17.0898 0 l 1
 17.0898 25.8789 l 1
 36.1328 28.8086 49.8047 33.2031 57.6172 39.5508 c 0
 64.9414 45.8984 68.8477 56.6406 68.8477 71.7773 c 2
 68.8477 419.922 l 2
 68.8477 436.523 68.3594 446.289 66.8945 449.219 c 0
 64.9414 453.613 60.0586 456.055 51.7578 456.055 c 2
 15.1367 453.125 l 1
 15.1367 481.934 l 1
 20.9961 483.398 29.7852 485.84 41.9922 489.258 c 0
 54.1992 493.164 66.8945 497.07 80.5664 501.465 c 0
 94.2383 505.859 106.934 509.766 119.141 513.672 c 0
 130.859 517.09 139.16 519.531 144.043 520.996 c 1
 144.043 70.8008 l 2
 144.043 41.5039 161.133 26.8555 194.824 26.8555 c 1
 194.824 0 l 1
EndSplineSet
EndChar
StartChar: m
Encoding: 109 109 78
OldEncoding: 109
Width: 625
Flags: HW
HStem: 0 27<28 45 191.5 210 225 243 387.5 408 422 438 583 601> 294 53<435.5 436>
VStem: 79 81<75 258 258 258.5> 275 81<75 226> 470 81<75 210 210 222>
Fore
601 0 m 1
 422 0 l 1
 422 27 l 1
 454 27 470 43 470 75 c 2
 470 222 l 2
 470 246 468 263 464 273 c 0
 457 287 445 294 427 294 c 0
 398 294 374 281 356 256 c 1
 356 75 l 2
 356 44 367 27 408 27 c 1
 408 0 l 1
 225 0 l 1
 225 27 l 1
 261 27 275 44 275 75 c 2
 275 226 l 2
 275 271 261 294 234 294 c 0
 213 294 195 288 180 275 c 0
 167 265 160 259 160 258 c 2
 160 75 l 2
 160 44 173 27 210 27 c 1
 210 0 l 1
 28 0 l 1
 28 27 l 1
 62 27 79 43 79 75 c 2
 79 263 l 2
 79 274 77 282 72 287 c 0
 71 288 69 288 66 288 c 0
 59 288 46 287 30 284 c 1
 30 313 l 1
 97 335 118 339 139 347 c 1
 156 347 l 1
 156 300 l 1
 199 327 217 336 224 339 c 0
 237 344 249 347 260 347 c 0
 298 347 325 330 342 296 c 1
 377 330 415 347 456 347 c 0
 519 347 551 301 551 210 c 2
 551 75 l 2
 551 44 565 27 601 27 c 1
 601 0 l 1
EndSplineSet
MinimumDistance: x35,-1 x0,0 x0,0 x17,15 x17,16 
Back
601.074 0 m 1
 421.875 0 l 1
 421.875 26.8555 l 1
 454.102 26.8555 470.215 42.9688 470.215 75.1953 c 2
 470.215 222.168 l 2
 470.215 246.094 467.773 263.184 463.867 272.949 c 0
 457.52 287.109 444.824 293.945 426.758 293.945 c 0
 397.461 293.945 374.023 281.25 355.957 255.859 c 1
 355.957 75.1953 l 2
 355.957 59.5703 359.375 47.8516 366.699 39.5508 c 0
 373.535 31.25 387.207 26.8555 408.203 26.8555 c 1
 408.203 0 l 1
 225.098 0 l 1
 225.098 26.8555 l 1
 243.164 26.8555 255.859 31.25 263.672 39.5508 c 0
 270.996 47.8516 274.902 59.5703 274.902 75.1953 c 2
 274.902 226.074 l 2
 274.902 271.484 261.23 293.945 233.887 293.945 c 0
 213.379 293.945 195.312 287.598 180.176 274.902 c 0
 166.504 265.137 160.156 259.277 160.156 257.812 c 2
 160.156 75.1953 l 2
 160.156 59.5703 163.574 47.8516 170.898 39.5508 c 0
 178.223 31.25 191.406 26.8555 209.961 26.8555 c 1
 209.961 0 l 1
 27.832 0 l 1
 27.832 26.8555 l 1
 62.0117 26.8555 79.1016 42.9688 79.1016 75.1953 c 2
 79.1016 263.184 l 2
 79.1016 274.414 76.6602 282.227 71.7773 287.109 c 0
 71.2891 287.598 69.3359 288.086 65.918 288.086 c 0
 62.5 288.086 57.6172 287.598 51.2695 287.109 c 0
 45.4102 286.133 38.0859 285.156 29.7852 284.18 c 1
 29.7852 312.988 l 1
 46.875 318.359 61.0352 322.754 72.2656 326.172 c 0
 83.9844 329.102 94.2383 332.52 102.051 334.961 c 0
 109.863 337.891 116.699 339.844 122.559 341.309 c 0
 127.93 343.262 133.789 345.215 139.16 347.168 c 1
 155.762 347.168 l 1
 155.762 299.805 l 1
 177.246 313.477 193.359 322.754 203.613 328.613 c 0
 213.867 333.984 220.703 337.891 224.121 338.867 c 0
 237.305 344.238 249.512 347.168 259.766 347.168 c 0
 297.852 347.168 325.195 330.078 341.797 295.898 c 1
 377.441 330.078 415.527 347.168 456.055 347.168 c 0
 519.531 347.168 550.781 301.27 550.781 209.961 c 2
 550.781 75.1953 l 2
 550.781 59.5703 554.688 47.8516 562.5 39.5508 c 0
 570.312 31.25 583.008 26.8555 601.074 26.8555 c 1
 601.074 0 l 1
EndSplineSet
EndChar
StartChar: n
Encoding: 110 110 79
OldEncoding: 110
Width: 413
Flags: HW
HStem: 0 21<32 201 201 201 217 382 382 382> 289 57
VStem: 77 78<61.5 73 73 251> 261 80
Fore
382 0 m 1
 217 0 l 1
 217 26 l 1
 235 29 246 32 250 35 c 0
 257 40 261 55 261 79 c 2
 261 229 l 2
 261 269 246 289 217 289 c 0
 200 289 180 278 155 255 c 1
 155 57 l 2
 155 40 170 30 201 26 c 1
 201 0 l 1
 32 0 l 1
 32 26 l 1
 41 26 52 27 60 31 c 0
 71 36 77 50 77 73 c 2
 77 251 l 2
 77 267 76 278 73 283 c 0
 72 286 65 286 57 286 c 0
 52 286 39 283 30 280 c 1
 30 313 l 1
 61 321 117 338 136 346 c 1
 153 346 l 1
 153 300 l 1
 166 315 178 323 187 330 c 0
 206 342 225 346 248 346 c 0
 309 346 340 307 340 230 c 2
 340 67 l 1
 340 47 l 1
 341 36 341 33 382 25 c 1
 382 0 l 1
EndSplineSet
MinimumDistance: x24,-1 
Back
381.836 0 m 1
 216.797 0 l 1
 216.797 25.8789 l 1
 234.863 28.8086 246.094 31.7383 250 35.1562 c 0
 257.324 40.5273 261.23 55.1758 261.23 79.1016 c 2
 261.23 229.004 l 2
 261.23 269.043 246.094 289.062 216.797 289.062 c 0
 200.195 289.062 179.688 277.832 154.785 254.883 c 1
 154.785 57.1289 l 2
 154.785 40.5273 170.41 29.7852 201.172 25.8789 c 1
 201.172 0 l 1
 32.2266 0 l 1
 32.2266 25.8789 l 1
 36.6211 25.8789 41.5039 26.3672 46.3867 26.8555 c 0
 51.2695 27.832 56.1523 28.8086 60.0586 30.7617 c 0
 71.2891 36.1328 77.1484 50.293 77.1484 73.2422 c 2
 77.1484 250.977 l 2
 77.1484 267.09 75.6836 277.832 73.2422 283.203 c 0
 72.2656 284.18 70.3125 285.156 67.3828 285.645 c 0
 64.4531 285.645 61.0352 286.133 57.1289 286.133 c 0
 54.1992 286.133 50.293 285.156 44.9219 284.18 c 0
 39.5508 282.715 34.668 281.25 29.7852 279.785 c 1
 29.7852 312.988 l 1
 38.0859 314.941 46.875 317.383 57.1289 319.824 c 0
 66.8945 322.754 77.1484 325.684 87.4023 329.102 c 0
 97.6562 332.52 107.422 335.449 116.211 338.379 c 0
 124.512 341.309 131.348 344.238 136.23 346.191 c 1
 152.832 346.191 l 1
 152.832 299.805 l 1
 159.668 307.129 166.016 313.477 171.387 317.871 c 0
 177.246 322.754 182.129 326.66 187.012 330.078 c 0
 196.289 335.938 206.055 340.332 215.82 342.285 c 0
 226.074 344.727 236.816 346.191 248.047 346.191 c 0
 309.57 346.191 339.844 307.129 339.844 229.98 c 2
 339.844 66.8945 l 2
 339.844 59.082 340.332 52.2461 340.332 46.875 c 0
 340.82 41.5039 342.773 37.5977 346.191 35.1562 c 0
 349.121 32.2266 361.328 28.8086 381.836 24.9023 c 1
 381.836 0 l 1
EndSplineSet
EndChar
StartChar: o
Encoding: 111 111 80
OldEncoding: 111
Width: 377
Flags: HW
HStem: -5 21<138 236> 327 20<138 236>
VStem: 270 84<131.5 208>
Fore
22 171 m 0
 22 267 89 347 187 347 c 0
 285 347 354 267 354 171 c 0
 354 75 285 -5 187 -5 c 0
 89 -5 22 75 22 171 c 0
104 170 m 0
 104 93 131 29 187 29 c 0
 247 29 270 93 270 170 c 0
 270 246 245 310 187 310 c 0
 131 310 104 246 104 170 c 0
EndSplineSet
MinimumDistance: x0,-1 
Back
21.9727 170.898 m 0
 21.9727 146.973 25.8789 124.512 34.1797 103.027 c 0
 41.9922 81.543 53.2227 62.9883 67.8711 46.875 c 0
 82.5195 30.7617 100.098 18.5547 120.117 8.78906 c 0
 140.137 -0.488281 162.109 -4.88281 187.012 -4.88281 c 0
 211.426 -4.88281 234.375 -0.488281 254.395 8.78906 c 0
 274.902 18.5547 292.48 30.7617 307.129 46.875 c 0
 321.777 62.9883 333.008 81.543 341.309 103.027 c 0
 349.609 124.512 354.004 146.973 354.004 170.898 c 0
 354.004 194.824 349.609 217.773 341.309 238.77 c 0
 333.008 260.254 321.777 278.809 307.129 294.922 c 0
 292.48 311.035 274.902 323.73 254.395 333.008 c 0
 234.375 342.285 211.426 347.168 187.012 347.168 c 0
 162.109 347.168 140.137 342.285 120.117 333.008 c 0
 100.098 323.73 82.5195 311.035 67.8711 294.922 c 0
 53.2227 278.809 41.9922 260.254 34.1797 238.77 c 0
 25.8789 217.773 21.9727 194.824 21.9727 170.898 c 0
104.004 169.922 m 0
 104.004 189.453 105.469 207.52 108.887 224.121 c 0
 112.305 240.723 117.676 255.371 124.512 268.555 c 0
 131.348 281.738 140.137 291.504 150.391 298.828 c 0
 160.645 306.152 172.852 310.059 187.012 310.059 c 0
 201.66 310.059 214.355 306.152 224.609 298.828 c 0
 234.863 291.504 243.164 281.738 250 268.555 c 0
 256.836 255.371 261.719 240.723 265.137 224.121 c 0
 268.555 207.52 270.02 189.453 270.02 169.922 c 0
 270.02 150.879 268.555 132.324 265.625 115.723 c 0
 262.695 98.6328 257.812 83.4961 250.977 70.3125 c 0
 244.141 57.6172 235.84 47.3633 225.098 40.0391 c 0
 214.355 32.7148 201.66 28.8086 187.012 28.8086 c 0
 172.852 28.8086 160.645 32.7148 150.391 40.0391 c 0
 140.137 47.3633 131.348 57.6172 124.512 70.3125 c 0
 117.676 83.4961 112.305 98.6328 108.887 115.723 c 0
 105.469 132.324 104.004 150.879 104.004 169.922 c 0
EndSplineSet
EndChar
StartChar: p
Encoding: 112 112 81
OldEncoding: 112
Width: 381
Flags: HW
HStem: -146 180<204.5 207> -5 39<204.5 224> 335 20
VStem: 67 78<-80 -74 -74 14 68 73 73 251> 288 79<146.5 193.5>
Fore
145 -74 m 2
 145 -92 148 -103 155 -108 c 0
 160 -113 178 -115 207 -115 c 1
 207 -146 l 1
 18 -146 l 1
 18 -117 l 1
 57 -117 67 -107 67 -80 c 2
 67 254 l 2
 67 267 66 277 65 282 c 0
 63 287 59 289 52 289 c 2
 20 287 l 1
 20 313 l 1
 61 326 101 340 141 355 c 1
 141 340 142 327 143 312 c 1
 172 340 204 352 241 352 c 0
 327 352 367 267 367 187 c 0
 367 88 310 -5 209 -5 c 0
 186 -5 164 1 145 14 c 1
 145 -74 l 2
288 164 m 0
 288 223 266 291 207 291 c 0
 180 291 150 274 145 251 c 1
 145 73 l 2
 145 63 153 54 169 46 c 0
 185 38 199 34 210 34 c 0
 238 34 258 48 271 76 c 0
 282 100 288 129 288 164 c 0
EndSplineSet
MinimumDistance: x0,-1 
Back
145.02 -74.2188 m 2
 145.02 14.1602 l 1
 164.551 1.46484 185.547 -4.88281 208.984 -4.88281 c 0
 234.375 -4.88281 256.836 0.488281 276.367 11.2305 c 0
 296.387 21.4844 312.5 36.1328 326.172 54.1992 c 0
 339.355 71.7773 349.609 92.2852 356.445 115.723 c 0
 363.281 138.672 367.188 162.109 367.188 187.012 c 0
 367.188 207.031 364.258 227.051 359.375 246.582 c 0
 354.492 266.113 346.68 283.691 336.426 299.316 c 0
 326.172 314.941 312.988 327.637 296.875 337.402 c 0
 280.762 347.168 262.207 352.051 241.211 352.051 c 0
 222.168 352.051 205.078 348.633 188.965 342.285 c 0
 172.852 335.938 157.715 326.172 143.066 312.012 c 1
 142.09 319.336 141.602 326.66 141.602 333.496 c 0
 141.113 340.332 141.113 347.656 141.113 354.98 c 1
 121.094 347.656 101.074 340.332 81.0547 333.496 c 0
 61.0352 326.66 40.5273 319.824 20.0195 312.988 c 1
 20.0195 287.109 l 1
 51.7578 289.062 l 2
 58.5938 289.062 62.9883 286.621 64.9414 282.227 c 0
 66.4062 276.855 66.8945 267.09 66.8945 253.906 c 2
 66.8945 -80.0781 l 2
 66.8945 -93.2617 63.4766 -103.027 57.1289 -108.398 c 0
 50.293 -114.258 37.1094 -117.188 18.0664 -117.188 c 1
 18.0664 -145.996 l 1
 207.031 -145.996 l 1
 207.031 -115.234 l 1
 177.734 -115.234 160.156 -112.793 154.785 -107.91 c 0
 148.438 -103.516 145.02 -91.7969 145.02 -74.2188 c 2
288.086 164.062 m 0
 288.086 129.395 282.227 100.098 270.996 76.1719 c 0
 258.301 47.8516 237.793 34.1797 209.961 34.1797 c 0
 198.73 34.1797 185.059 38.0859 168.945 45.8984 c 0
 152.832 54.1992 145.02 62.9883 145.02 73.2422 c 2
 145.02 250.977 l 1
 147.461 262.207 155.273 271.973 167.969 279.297 c 0
 180.664 287.109 193.848 291.016 207.031 291.016 c 0
 221.68 291.016 234.375 287.109 244.629 279.297 c 0
 254.883 271.973 263.184 261.719 269.531 249.512 c 0
 275.879 237.305 280.273 223.633 283.691 208.496 c 0
 286.621 193.359 288.086 178.711 288.086 164.062 c 0
EndSplineSet
EndChar
StartChar: q
Encoding: 113 113 82
OldEncoding: 113
Width: 381
Flags: HW
HStem: -155 31<174 195.5> -5 21<94 149.5> 315 37<146 193.5> 333 20<308 308>
VStem: 239 77<-77 33 33 33 104 252 252 273>
Fore
362 -155 m 1
 174 -155 l 1
 174 -124 l 1
 217 -124 239 -108 239 -77 c 2
 239 33 l 1
 230 26 219 19 208 12 c 0
 187 0 159 -5 140 -5 c 0
 48 -5 13 77 13 163 c 0
 13 265 78 352 181 352 c 0
 206 352 231 345 262 328 c 1
 298 351 l 1
 308 353 l 1
 316 345 l 1
 316 -93 l 2
 316 -110 331 -122 362 -127 c 1
 362 -155 l 1
234 76 m 1
 239 104 l 1
 239 252 l 2
 239 294 219 315 178 315 c 0
 114 315 93 244 93 183 c 0
 93 126 115 55 175 55 c 0
 202 55 222 62 234 76 c 1
EndSplineSet
MinimumDistance: x0,-1 x15,13 x15,14 
Back
361.816 -154.785 m 1
 361.816 -126.953 l 1
 331.543 -121.582 315.918 -110.352 315.918 -92.7734 c 2
 315.918 345.215 l 1
 308.105 353.027 l 1
 297.852 351.074 l 1
 262.207 328.125 l 1
 246.582 336.426 232.422 342.773 219.727 346.68 c 0
 206.543 350.098 193.848 352.051 181.152 352.051 c 0
 154.785 352.051 131.836 347.168 110.84 336.914 c 0
 90.332 327.148 72.7539 313.477 58.5938 295.898 c 0
 43.9453 278.809 33.2031 258.301 24.9023 235.352 c 0
 17.0898 212.402 13.1836 188.477 13.1836 163.086 c 0
 13.1836 141.602 15.1367 120.605 20.0195 100.586 c 0
 24.9023 80.0781 32.2266 62.0117 41.9922 46.3867 c 0
 51.7578 30.7617 64.9414 18.5547 81.0547 8.78906 c 0
 97.168 -0.488281 116.699 -4.88281 140.137 -4.88281 c 0
 149.414 -4.88281 160.156 -3.90625 172.852 -0.976562 c 0
 185.547 1.46484 197.266 5.85938 208.008 12.207 c 0
 213.379 15.1367 218.75 19.043 224.121 22.4609 c 0
 229.492 26.3672 234.375 29.7852 238.77 33.2031 c 1
 238.77 -77.1484 l 2
 238.77 -108.398 217.285 -124.023 173.828 -124.023 c 1
 173.828 -154.785 l 1
 361.816 -154.785 l 1
233.887 76.1719 m 1
 222.168 62.0117 202.148 55.1758 174.805 55.1758 c 0
 160.156 55.1758 147.461 59.082 137.207 66.8945 c 0
 126.465 75.1953 117.676 84.9609 111.328 97.6562 c 0
 104.98 109.863 100.586 123.535 97.6562 139.16 c 0
 94.7266 154.297 92.7734 168.945 92.7734 183.105 c 0
 92.7734 198.242 94.7266 213.867 97.6562 229.492 c 0
 100.586 245.117 104.98 259.277 111.328 271.973 c 0
 117.676 284.668 126.465 294.922 137.695 303.223 c 0
 148.438 311.035 162.109 314.941 178.223 314.941 c 0
 218.75 314.941 238.77 293.945 238.77 251.953 c 2
 238.77 104.004 l 1
 233.887 76.1719 l 1
EndSplineSet
EndChar
StartChar: r
Encoding: 114 114 83
OldEncoding: 114
Width: 287
Flags: HW
HStem: 0 27<187.5 207> 327 20<135 148 135 135 210.5 239.5>
VStem: 70 78<74 235 235 245>
Fore
271 300 m 0
 271 273 255 260 235 260 c 0
 222 260 211 265 202 274 c 0
 197 279 196 286 188 286 c 0
 172 286 148 255 148 235 c 2
 148 74 l 2
 148 43 168 27 207 27 c 1
 207 0 l 1
 21 0 l 1
 21 25 l 1
 45 30 61 34 65 37 c 0
 68 40 70 53 70 69 c 2
 70 249 l 2
 70 272 66 283 58 283 c 2
 23 280 l 1
 23 306 l 1
 67 322 110 336 135 347 c 1
 148 347 l 1
 148 301 l 1
 172 332 197 347 224 347 c 0
 255 347 271 331 271 300 c 0
EndSplineSet
MinimumDistance: x3,-1 x2,4 x2,3 
Back
270.996 299.805 m 0
 270.996 286.621 267.578 276.855 260.742 270.02 c 0
 253.418 263.184 245.117 259.766 234.863 259.766 c 0
 222.168 259.766 211.426 264.648 202.148 273.926 c 0
 199.219 276.855 197.266 279.297 195.801 282.227 c 0
 194.824 284.668 191.895 286.133 187.988 286.133 c 0
 180.176 286.133 171.387 279.785 162.109 268.066 c 0
 152.832 255.859 147.949 245.117 147.949 234.863 c 2
 147.949 74.2188 l 2
 147.949 42.4805 167.48 26.8555 207.031 26.8555 c 1
 207.031 0 l 1
 20.9961 0 l 1
 20.9961 24.9023 l 1
 33.2031 27.832 42.9688 29.7852 50.293 32.2266 c 0
 58.1055 34.1797 62.9883 35.6445 64.9414 37.1094 c 0
 66.4062 38.5742 67.3828 41.9922 68.3594 47.8516 c 0
 69.3359 54.1992 69.8242 61.0352 69.8242 68.8477 c 2
 69.8242 249.023 l 2
 69.8242 271.484 65.918 283.203 58.1055 283.203 c 2
 22.9492 279.785 l 1
 22.9492 306.152 l 1
 44.9219 313.965 65.918 321.289 85.9375 328.613 c 0
 105.957 335.449 122.559 341.797 134.766 347.168 c 1
 147.949 347.168 l 1
 147.949 300.781 l 1
 171.875 331.543 197.266 347.168 224.121 347.168 c 0
 255.371 347.168 270.996 331.543 270.996 299.805 c 0
EndSplineSet
EndChar
StartChar: s
Encoding: 115 115 84
OldEncoding: 115
Width: 283
Flags: HW
HStem: -5 31<137.5 154> 0 21<29 51 51 51> 322 20<205 228 205 205> 327 20<108 148>
VStem: 186 67<62 78>
Fore
253 94 m 0
 253 30 204 -5 143 -5 c 0
 132 -5 117 -3 97 1 c 2
 61 8 l 2
 58 8 55 5 51 0 c 1
 29 0 l 1
 29 127 l 1
 59 127 l 1
 64 94 68 84 80 57 c 0
 91 34 113 26 138 26 c 0
 170 26 186 40 186 69 c 0
 186 87 176 102 155 115 c 0
 83 163 65 172 57 183 c 0
 41 202 29 222 29 251 c 0
 29 309 80 347 136 347 c 0
 160 347 173 344 177 341 c 1
 200 332 l 1
 200 332 202 335 205 342 c 1
 228 342 l 1
 232 226 l 1
 203 226 l 1
 191 285 168 314 134 314 c 0
 109 314 90 302 90 274 c 0
 90 253 98 243 115 232 c 2
 191 186 l 2
 214 173 227 162 235 151 c 0
 247 136 253 117 253 94 c 0
EndSplineSet
MinimumDistance: x0,-1 
Back
252.93 94.2383 m 0
 252.93 62.0117 242.188 37.5977 221.191 20.5078 c 0
 199.707 3.41797 173.828 -4.88281 143.066 -4.88281 c 0
 132.324 -4.88281 117.188 -2.92969 97.168 0.976562 c 2
 61.0352 7.8125 l 2
 58.1055 7.8125 55.1758 5.37109 50.7812 0 c 1
 28.8086 0 l 1
 28.8086 126.953 l 1
 59.082 126.953 l 1
 61.5234 110.352 64.4531 97.6562 66.8945 89.3555 c 0
 69.8242 81.0547 74.2188 70.3125 80.0781 57.1289 c 0
 85.4492 45.8984 93.2617 37.5977 103.516 33.2031 c 0
 113.77 28.3203 125.488 25.8789 138.184 25.8789 c 0
 169.922 25.8789 186.035 40.5273 186.035 68.8477 c 0
 186.035 86.9141 175.781 102.539 154.785 115.234 c 0
 137.207 126.953 122.07 136.719 110.352 144.043 c 0
 98.6328 151.367 89.3555 157.715 82.0312 162.598 c 0
 74.707 167.48 69.3359 171.387 65.4297 174.316 c 0
 62.0117 177.734 59.082 180.176 57.1289 183.105 c 0
 48.8281 192.383 42.4805 202.148 37.1094 212.891 c 0
 31.7383 223.633 28.8086 236.328 28.8086 250.977 c 0
 28.8086 265.625 32.2266 278.809 38.0859 290.527 c 0
 43.9453 302.246 51.7578 312.012 61.5234 320.312 c 0
 71.2891 328.613 82.5195 335.449 95.7031 339.844 c 0
 108.398 344.727 122.07 347.168 136.23 347.168 c 0
 147.949 347.168 157.227 346.191 164.062 345.215 c 0
 170.898 343.75 174.805 342.285 176.758 340.82 c 2
 200.195 332.031 l 1
 200.195 332.031 201.66 335.449 205.078 341.797 c 1
 228.027 341.797 l 1
 231.934 226.074 l 1
 203.125 226.074 l 1
 190.918 284.668 167.969 313.965 133.789 313.965 c 0
 121.094 313.965 110.84 311.035 102.539 304.688 c 0
 94.2383 298.34 89.8438 288.086 89.8438 273.926 c 0
 89.8438 263.184 91.7969 254.883 96.1914 249.023 c 0
 100.098 243.164 106.445 237.305 115.234 231.934 c 2
 190.918 186.035 l 2
 202.148 179.199 211.426 173.34 218.262 167.48 c 0
 225.586 161.621 230.957 156.25 234.863 150.879 c 0
 247.07 136.23 252.93 117.188 252.93 94.2383 c 0
EndSplineSet
EndChar
StartChar: t
Encoding: 116 116 85
OldEncoding: 116
Width: 225
Flags: HW
HStem: -5 21<99.5 140.5> 303 41<127 197> 429 20<117 117>
VStem: 53 74<105 303>
Fore
214 59 m 1
 198 23 158 -5 123 -5 c 0
 76 -5 53 28 53 94 c 2
 53 303 l 1
 18 303 l 1
 11 319 l 1
 23 330 36 340 47 352 c 0
 70 376 90 405 117 449 c 1
 127 418 l 1
 127 344 l 1
 197 344 l 1
 197 303 l 1
 127 303 l 1
 127 105 l 2
 127 67 136 48 153 48 c 0
 164 48 178 58 195 78 c 1
 214 59 l 1
EndSplineSet
MinimumDistance: x10,-1 x9,11 x9,10 
Back
213.867 59.082 m 1
 206.055 41.0156 193.359 25.8789 175.293 13.6719 c 0
 157.715 0.976562 140.137 -4.88281 123.047 -4.88281 c 0
 76.1719 -4.88281 53.2227 27.832 53.2227 94.2383 c 2
 53.2227 303.223 l 1
 18.0664 303.223 l 1
 11.2305 318.848 l 1
 17.0898 324.219 22.9492 329.59 29.2969 334.961 c 0
 35.6445 340.332 41.5039 346.191 46.875 352.051 c 0
 58.1055 363.77 69.3359 377.441 80.5664 393.066 c 0
 91.3086 408.203 103.516 426.758 117.188 449.219 c 1
 126.953 417.969 l 1
 126.953 344.238 l 1
 196.777 344.238 l 1
 196.777 303.223 l 1
 126.953 303.223 l 1
 126.953 104.98 l 2
 126.953 66.8945 135.742 47.8516 152.832 47.8516 c 0
 164.551 47.8516 178.223 58.1055 194.824 78.125 c 1
 213.867 59.082 l 1
EndSplineSet
EndChar
StartChar: u
Encoding: 117 117 86
OldEncoding: 117
Width: 396
Flags: HW
HStem: -8 21<258 258> -5 21<148.5 176> 320 20<20 142 20 20 198 331 198 198>
VStem: 64 78<99 276> 251 80<97.5 105 105 275>
Fore
374 27 m 1
 362 24 344 22 325 15 c 2
 258 -8 l 1
 255 42 l 1
 240 27 l 2
 217 6 192 -5 160 -5 c 0
 137 -5 116 1 97 13 c 0
 72 29 64 60 64 95 c 2
 64 276 l 2
 64 291 61 301 54 306 c 0
 47 311 39 314 20 314 c 1
 20 340 l 1
 142 340 l 1
 142 99 l 2
 142 83 149 64 164 57 c 0
 171 54 181 53 189 53 c 0
 208 53 227 61 246 77 c 0
 249 80 251 90 251 105 c 2
 251 275 l 2
 251 306 238 311 198 311 c 1
 198 340 l 1
 331 340 l 1
 331 86 l 2
 331 59 338 54 374 54 c 1
 374 27 l 1
EndSplineSet
MinimumDistance: x20,-1 
Back
374.023 26.8555 m 1
 368.164 25.8789 360.84 23.9258 352.051 22.4609 c 0
 343.262 20.9961 334.473 18.5547 325.195 15.1367 c 2
 257.812 -7.8125 l 1
 254.883 41.9922 l 1
 240.234 26.8555 l 2
 228.516 16.1133 216.309 8.30078 203.613 2.92969 c 0
 190.43 -2.44141 175.781 -4.88281 160.156 -4.88281 c 0
 148.438 -4.88281 137.695 -3.41797 126.953 -0.488281 c 0
 116.211 2.44141 106.445 6.83594 97.168 13.1836 c 0
 84.4727 20.9961 75.6836 32.2266 70.8008 46.875 c 0
 66.4062 61.5234 63.9648 77.6367 63.9648 95.2148 c 2
 63.9648 275.879 l 2
 63.9648 290.527 60.5469 300.781 54.1992 306.152 c 0
 50.7812 308.594 46.3867 310.547 41.5039 312.012 c 0
 36.6211 313.477 29.2969 313.965 20.0195 313.965 c 1
 20.0195 339.844 l 1
 142.09 339.844 l 1
 142.09 99.1211 l 2
 142.09 90.8203 144.043 83.0078 147.461 74.707 c 0
 151.367 66.4062 156.738 60.5469 164.062 57.1289 c 0
 167.48 55.6641 171.387 54.6875 175.781 54.1992 c 0
 180.664 53.2227 185.059 53.2227 188.965 53.2227 c 0
 207.52 53.2227 226.562 61.0352 246.094 77.1484 c 0
 249.512 80.5664 250.977 89.8438 250.977 104.98 c 2
 250.977 274.902 l 2
 250.977 290.527 247.07 300.293 239.258 304.688 c 0
 231.934 308.594 217.773 311.035 198.242 311.035 c 1
 198.242 339.844 l 1
 331.055 339.844 l 1
 331.055 85.9375 l 2
 331.055 72.7539 333.496 63.9648 338.867 60.0586 c 0
 344.238 56.1523 355.957 54.1992 374.023 54.1992 c 1
 374.023 26.8555 l 1
EndSplineSet
EndChar
StartChar: v
Encoding: 118 118 87
OldEncoding: 118
Width: 365
Flags: HW
HStem: -13 21<198 198> 320 20<9 167 9 9 236 354 236 236>
Fore
354 312 m 1
 341 312 326 308 322 297 c 2
 198 -13 l 1
 170 4 l 1
 50 290 l 1
 47 294 44 301 39 304 c 0
 31 311 25 312 9 312 c 1
 9 340 l 1
 167 340 l 1
 167 313 l 1
 152 312 144 312 137 305 c 0
 135 303 134 300 134 296 c 0
 134 293 135 288 138 281 c 2
 204 116 l 1
 271 284 l 1
 272 288 273 291 273 293 c 0
 273 298 271 303 268 306 c 0
 263 313 256 312 236 312 c 1
 236 340 l 1
 354 340 l 1
 354 312 l 1
EndSplineSet
MinimumDistance: x0,-1 
Back
354.004 312.012 m 1
 347.168 312.012 340.82 311.035 334.473 308.594 c 0
 328.125 306.152 324.219 302.246 321.777 296.875 c 2
 198.242 -13.1836 l 1
 169.922 3.90625 l 1
 49.8047 290.039 l 1
 48.8281 291.992 47.3633 294.434 45.4102 297.363 c 0
 43.9453 300.293 41.5039 302.734 39.0625 304.199 c 0
 35.1562 307.129 30.7617 309.57 26.8555 310.547 c 0
 22.9492 311.523 17.0898 312.012 8.78906 312.012 c 1
 8.78906 339.844 l 1
 166.992 339.844 l 1
 166.992 312.988 l 1
 159.668 312.5 153.809 311.523 148.926 311.035 c 0
 144.531 310.547 140.137 308.105 137.207 305.176 c 0
 134.766 303.223 133.789 299.805 133.789 295.898 c 0
 133.789 292.48 135.254 287.598 138.184 280.762 c 2
 204.102 116.211 l 1
 270.996 284.18 l 2
 272.461 288.086 272.949 291.016 272.949 292.969 c 0
 272.949 298.34 271.484 302.734 268.066 306.152 c 0
 265.137 309.57 261.719 311.035 257.324 311.523 c 0
 252.93 312.012 246.094 312.012 235.84 312.012 c 1
 235.84 339.844 l 1
 354.004 339.844 l 1
 354.004 312.012 l 1
EndSplineSet
EndChar
StartChar: w
Encoding: 119 119 88
OldEncoding: 119
Width: 541
Flags: HW
HStem: -11 21 313 27<190 199.5 416 424.5>
Fore
523 314 m 1
 510 311 500 299 492 280 c 2
 375 -11 l 1
 349 10 l 1
 279 182 l 1
 190 -11 l 1
 160 10 l 1
 45 294 l 1
 40 305 31 311 17 313 c 1
 17 340 l 1
 166 340 l 1
 166 313 l 1
 143 311 132 306 132 297 c 0
 132 290 137 274 146 249 c 1
 199 113 l 1
 255 233 l 1
 233 294 l 2
 229 306 209 313 190 313 c 1
 190 340 l 1
 357 340 l 1
 357 314 l 1
 320 305 l 1
 317 302 315 298 315 294 c 0
 315 291 320 276 330 249 c 2
 379 113 l 1
 434 249 l 1
 438 260 442 276 442 287 c 0
 442 304 433 313 416 313 c 1
 416 340 l 1
 523 340 l 1
 523 314 l 1
EndSplineSet
MinimumDistance: x0,-1 
Back
522.949 313.965 m 1
 510.254 310.547 500 299.316 492.188 279.785 c 2
 375 -11.2305 l 1
 349.121 9.76562 l 1
 278.809 182.129 l 1
 189.941 -11.2305 l 1
 160.156 9.76562 l 1
 44.9219 293.945 l 2
 40.5273 304.688 30.7617 311.035 17.0898 312.988 c 1
 17.0898 339.844 l 1
 166.016 339.844 l 1
 166.016 312.988 l 1
 143.555 311.035 131.836 305.664 131.836 296.875 c 0
 131.836 290.527 136.719 274.414 145.996 249.023 c 1
 199.219 112.793 l 1
 254.883 232.91 l 1
 232.91 293.945 l 2
 230.957 299.805 225.586 304.688 216.797 308.105 c 0
 208.496 311.523 199.219 312.988 189.941 312.988 c 1
 189.941 339.844 l 1
 356.934 339.844 l 1
 356.934 313.965 l 1
 319.824 305.176 l 1
 316.895 301.758 314.941 297.852 314.941 293.945 c 0
 314.941 291.504 319.824 276.367 330.078 249.023 c 2
 378.906 112.793 l 1
 434.082 249.023 l 2
 436.035 254.395 437.988 260.742 439.453 268.066 c 0
 441.406 275.391 441.895 281.738 441.895 287.109 c 0
 441.895 304.199 433.105 312.988 416.016 312.988 c 1
 416.016 339.844 l 1
 522.949 339.844 l 1
 522.949 313.965 l 1
EndSplineSet
EndChar
StartChar: x
Encoding: 120 120 89
OldEncoding: 120
Width: 398
Flags: HW
HStem: 0 21<26 148 148 148 212 375 375 375> 312 28<187.5 198 210 219.5 327.5 341>
Fore
375 0 m 1
 212 0 l 1
 212 25 l 1
 235 29 l 2
 238 30 239 33 239 38 c 0
 239 41 238 47 231 56 c 1
 181 133 l 1
 132 57 l 2
 124 45 120 36 119 31 c 0
 118 27 129 25 148 25 c 1
 148 0 l 1
 26 0 l 1
 26 25 l 1
 42 28 50 30 54 33 c 0
 63 38 71 48 80 61 c 2
 158 175 l 1
 95 273 l 2
 86 288 76 305 63 308 c 2
 31 312 l 1
 31 340 l 1
 198 340 l 1
 198 312 l 1
 177 312 167 309 167 304 c 0
 167 297 178 277 201 242 c 1
 224 277 238 297 238 304 c 0
 238 309 229 312 210 312 c 1
 210 340 l 1
 341 340 l 1
 341 312 l 1
 314 312 294 303 282 285 c 2
 225 203 l 1
 315 66 l 2
 330 43 348 28 375 25 c 1
 375 0 l 1
EndSplineSet
MinimumDistance: x30,-1 
Back
375 0 m 1
 211.914 0 l 1
 211.914 24.9023 l 1
 234.863 28.8086 l 2
 237.793 29.7852 238.77 32.7148 238.77 38.0859 c 0
 238.77 39.5508 238.281 41.5039 237.305 44.4336 c 0
 236.328 47.3633 234.375 51.2695 230.957 56.1523 c 2
 181.152 132.812 l 1
 131.836 57.1289 l 2
 124.023 44.9219 119.629 36.1328 119.141 30.7617 c 0
 118.164 28.8086 120.605 27.3438 125.977 26.3672 c 0
 131.348 25.3906 138.672 24.9023 147.949 24.9023 c 1
 147.949 0 l 1
 25.8789 0 l 1
 25.8789 24.9023 l 1
 34.1797 26.3672 40.0391 27.832 44.4336 28.8086 c 0
 48.8281 30.2734 51.7578 31.7383 54.1992 33.2031 c 0
 62.5 38.5742 71.2891 47.8516 80.0781 61.0352 c 2
 158.203 174.805 l 1
 95.2148 272.949 l 2
 80.5664 294.922 l 0
 75.6836 302.246 69.8242 306.641 62.9883 308.105 c 2
 30.7617 312.012 l 1
 30.7617 339.844 l 1
 198.242 339.844 l 1
 198.242 312.012 l 1
 177.246 312.012 166.992 309.57 166.992 304.199 c 0
 166.992 297.363 178.223 276.855 201.172 242.188 c 1
 212.402 259.277 221.191 272.949 228.027 283.691 c 0
 234.863 293.945 237.793 300.781 237.793 304.199 c 0
 237.793 309.57 228.516 312.012 209.961 312.012 c 1
 209.961 339.844 l 1
 340.82 339.844 l 1
 340.82 312.012 l 1
 313.477 312.012 293.945 303.223 282.227 285.156 c 2
 225.098 203.125 l 1
 314.941 65.918 l 2
 322.266 54.6875 331.055 45.4102 340.332 38.0859 c 0
 350.098 30.7617 361.816 26.3672 375 24.9023 c 1
 375 0 l 1
EndSplineSet
EndChar
StartChar: y
Encoding: 121 121 90
OldEncoding: 121
Width: 381
Flags: HW
HStem: -163 21<73.5 120> 318 28<179 193 259 265.5 366.5 375>
Fore
229 -7 m 2
 190 -111 145 -163 95 -163 c 0
 52 -163 32 -143 32 -115 c 0
 32 -92 46 -69 77 -69 c 0
 90 -69 99 -72 110 -77 c 0
 117 -80 124 -83 129 -83 c 0
 144 -83 157 -67 169 -35 c 2
 190 19 l 1
 64 300 l 2
 60 308 48 314 27 318 c 1
 27 346 l 1
 193 346 l 1
 193 318 l 1
 165 318 151 314 151 305 c 0
 151 301 153 295 156 287 c 1
 231 119 l 1
 293 302 l 1
 293 307 291 310 287 313 c 0
 282 316 272 318 259 318 c 1
 259 346 l 1
 375 346 l 1
 375 318 l 1
 358 318 347 309 340 291 c 2
 229 -7 l 2
EndSplineSet
MinimumDistance: x19,-1 
Back
229.004 -6.83594 m 1
 339.844 291.016 l 2
 346.68 309.082 358.398 317.871 375 317.871 c 1
 375 346.191 l 1
 258.789 346.191 l 1
 258.789 317.871 l 1
 272.461 317.871 281.738 316.406 287.109 312.988 c 0
 291.016 310.547 292.969 306.641 292.969 301.758 c 1
 230.957 119.141 l 1
 155.762 287.109 l 2
 152.832 294.922 150.879 300.781 150.879 305.176 c 0
 150.879 313.477 165.039 317.871 192.871 317.871 c 1
 192.871 346.191 l 1
 26.8555 346.191 l 1
 26.8555 317.871 l 1
 47.8516 313.965 60.0586 308.105 63.9648 299.805 c 2
 189.941 19.043 l 1
 168.945 -35.1562 l 2
 157.227 -66.8945 143.555 -83.0078 128.906 -83.0078 c 0
 126.465 -83.0078 123.535 -82.5195 120.117 -81.0547 c 0
 116.699 -79.5898 113.281 -78.125 109.863 -77.1484 c 0
 104.492 -74.2188 99.6094 -72.2656 94.7266 -70.8008 c 0
 89.3555 -69.8242 83.4961 -68.8477 77.1484 -68.8477 c 0
 61.5234 -68.8477 50.293 -73.7305 42.9688 -83.4961 c 0
 35.6445 -93.2617 32.2266 -103.516 32.2266 -115.234 c 0
 32.2266 -128.906 37.1094 -140.625 47.3633 -149.414 c 0
 57.6172 -158.691 73.7305 -163.086 95.2148 -163.086 c 0
 145.02 -163.086 189.453 -110.84 229.004 -6.83594 c 1
EndSplineSet
EndChar
StartChar: z
Encoding: 122 122 91
OldEncoding: 122
Width: 351
Flags: HW
HStem: 0 39<128 209> 300 40<126 209 209 209>
Fore
322 110 m 1
 312 0 l 1
 27 0 l 1
 27 20 l 1
 209 300 l 1
 126 300 l 2
 87 300 79 273 76 237 c 1
 42 237 l 1
 46 340 l 1
 312 340 l 1
 312 318 l 1
 128 39 l 1
 209 39 l 2
 264 39 283 58 292 119 c 1
 322 110 l 1
EndSplineSet
MinimumDistance: x0,-1 
Back
321.777 109.863 m 1
 312.012 0 l 1
 26.8555 0 l 1
 26.8555 20.0195 l 1
 208.984 299.805 l 1
 125.977 299.805 l 2
 106.445 299.805 93.75 293.945 87.4023 282.227 c 0
 81.0547 270.02 77.1484 254.883 76.1719 236.816 c 1
 41.9922 236.816 l 1
 45.8984 339.844 l 1
 312.012 339.844 l 1
 312.012 317.871 l 1
 127.93 39.0625 l 1
 208.984 39.0625 l 2
 236.328 39.0625 255.859 44.4336 267.578 56.1523 c 0
 279.297 67.3828 287.109 88.3789 291.992 119.141 c 1
 321.777 109.863 l 1
EndSplineSet
EndChar
StartChar: braceleft
Encoding: 123 123 92
OldEncoding: 123
Width: 215
Flags: HW
HStem: -121 21<179.5 201> 460 20<179.5 201>
VStem: 79 65<-21 -17 -17 91 91 101 266 377>
Fore
201 -121 m 1
 158 -121 128 -117 111 -102 c 0
 90 -85 79 -57 79 -17 c 2
 79 101 l 2
 79 144 62 162 3 179 c 1
 60 195 79 215 79 255 c 2
 79 377 l 2
 79 417 90 445 111 460 c 0
 128 473 158 480 201 480 c 1
 201 456 l 1
 157 445 144 425 144 380 c 2
 144 266 l 2
 144 239 140 218 133 203 c 1
 125 192 115 184 103 179 c 1
 136 162 144 142 144 91 c 2
 144 -21 l 2
 144 -66 158 -85 201 -98 c 1
 201 -121 l 1
EndSplineSet
MinimumDistance: x8,-1 
Back
201.172 -121.094 m 1
 179.688 -121.094 161.621 -119.629 146.484 -117.188 c 0
 131.348 -114.258 119.629 -109.375 110.84 -102.051 c 0
 89.8438 -85.4492 79.1016 -57.1289 79.1016 -17.0898 c 2
 79.1016 101.074 l 2
 79.1016 122.559 73.7305 138.672 62.9883 149.414 c 0
 52.2461 160.645 32.2266 170.41 2.92969 179.199 c 1
 31.7383 187.012 51.2695 196.777 62.5 208.008 c 0
 73.7305 219.238 79.1016 234.863 79.1016 254.883 c 2
 79.1016 376.953 l 2
 79.1016 416.992 89.8438 444.824 110.84 459.961 c 0
 127.441 473.145 157.715 479.98 201.172 479.98 c 1
 201.172 456.055 l 1
 179.199 450.684 164.062 442.383 155.762 431.152 c 0
 147.949 419.434 144.043 402.832 144.043 379.883 c 2
 144.043 266.113 l 2
 144.043 238.77 140.137 217.773 132.812 203.125 c 1
 125 191.895 115.234 183.594 103.027 179.199 c 1
 119.629 170.41 130.859 159.668 136.23 147.461 c 0
 141.113 135.254 144.043 116.211 144.043 90.8203 c 2
 144.043 -20.9961 l 2
 144.043 -43.457 147.949 -60.5469 156.738 -71.2891 c 0
 165.039 -82.5195 179.688 -91.3086 201.172 -98.1445 c 1
 201.172 -121.094 l 1
EndSplineSet
EndChar
StartChar: bar
Encoding: 124 124 93
OldEncoding: 124
Width: 67
Flags: HW
HStem: -117 21<12 47 47 47> 457 20<12 47 12 12>
VStem: 12 35<-117 477>
Fore
47 -117 m 1
 12 -117 l 1
 12 477 l 1
 47 477 l 1
 47 -117 l 1
EndSplineSet
MinimumDistance: x0,-1 
Back
46.875 -117.188 m 1
 12.207 -117.188 l 1
 12.207 477.051 l 1
 46.875 477.051 l 1
 46.875 -117.188 l 1
EndSplineSet
EndChar
StartChar: braceright
Encoding: 125 125 94
OldEncoding: 125
Width: 188
Flags: HW
HStem: -121 21<11 33.5> 460 20<11 33.5>
VStem: 69 63<-17 91 255 266 266 376 376 380>
Fore
180 170 m 1
 144 159 132 142 132 101 c 2
 132 -17 l 2
 132 -57 122 -85 102 -102 c 0
 87 -115 56 -121 11 -121 c 1
 11 -98 l 1
 50 -87 69 -62 69 -21 c 2
 69 91 l 2
 69 119 73 139 80 152 c 1
 79 151 l 1
 85 162 95 171 108 178 c 1
 77 194 69 217 69 266 c 2
 69 380 l 2
 69 424 54 445 11 456 c 1
 11 480 l 1
 56 480 87 473 103 460 c 0
 122 445 132 417 132 376 c 2
 132 255 l 2
 132 220 148 197 180 187 c 1
 180 170 l 1
EndSplineSet
MinimumDistance: x0,-1 
Back
180.176 169.922 m 1
 162.109 164.551 149.414 157.227 142.578 146.973 c 0
 135.742 137.207 131.836 121.582 131.836 101.074 c 2
 131.836 -17.0898 l 2
 131.836 -57.1289 122.07 -85.4492 102.051 -102.051 c 0
 86.4258 -114.746 56.1523 -121.094 11.2305 -121.094 c 1
 11.2305 -98.1445 l 1
 49.8047 -87.4023 68.8477 -61.5234 68.8477 -20.9961 c 2
 68.8477 90.8203 l 2
 68.8477 119.141 72.7539 139.16 80.0781 151.855 c 2
 79.1016 150.879 l 1
 84.9609 162.109 94.7266 171.387 107.91 178.223 c 1
 92.7734 186.035 82.5195 196.289 77.1484 209.473 c 0
 71.7773 222.656 68.8477 241.211 68.8477 266.113 c 2
 68.8477 379.883 l 2
 68.8477 401.855 64.4531 418.945 56.1523 430.664 c 0
 47.3633 442.383 32.2266 450.684 11.2305 456.055 c 1
 11.2305 479.98 l 1
 56.1523 479.98 86.9141 473.145 103.027 459.961 c 0
 122.559 444.824 131.836 416.504 131.836 375.977 c 2
 131.836 254.883 l 2
 131.836 219.727 147.949 196.777 180.176 187.012 c 1
 180.176 169.922 l 1
EndSplineSet
EndChar
StartChar: asciitilde
Encoding: 126 126 95
OldEncoding: 126
Width: 368
Flags: HW
HStem: 101 21<57 57> 193 20<312 312>
Fore
347 169 m 1
 325 143 l 1
 310 129 l 1
 295 117 277 111 254 111 c 0
 238 111 213 116 180 131 c 0
 151 144 128 150 111 150 c 0
 94 150 76 134 57 101 c 1
 21 145 l 1
 44 184 75 204 114 204 c 0
 131 204 156 197 189 183 c 0
 220 171 242 165 255 164 c 0
 270 164 289 180 312 213 c 1
 347 169 l 1
EndSplineSet
Back
347.168 168.945 m 1
 325.195 143.066 l 1
 310.059 128.906 l 2
 295.41 117.188 276.855 110.84 253.906 110.84 c 0
 246.094 110.84 235.84 112.305 223.633 115.723 c 0
 210.938 118.652 196.777 123.535 180.176 130.859 c 0
 150.879 143.555 127.441 149.902 110.84 149.902 c 0
 94.2383 149.902 76.1719 133.789 57.1289 101.074 c 1
 20.9961 145.02 l 1
 44.4336 184.57 75.1953 204.102 113.77 204.102 c 0
 131.348 204.102 156.25 196.777 188.965 183.105 c 0
 204.102 176.758 217.285 172.363 228.516 169.434 c 0
 239.258 166.504 248.535 164.551 254.883 164.062 c 0
 270.508 164.062 289.551 180.176 312.012 212.891 c 1
 347.168 168.945 l 1
EndSplineSet
EndChar
StartChar: uni0E10.descless
Encoding: 128 -1 96
OldEncoding: 63232
Width: 359
Flags: HW
HStem: 0 21<180 253 180 180> 327 20<235.5 246.5> 365 20 380 21<271 309 309 309>
VStem: 180 73<0 35.5>
Fore
253 197 m 2
 253 0 l 1
 180 0 l 1
 180 71 170 119 153 152 c 1
 150 124 130 101 103 101 c 0
 75 101 54 135 54 163 c 0
 54 200 73 227 114 227 c 0
 141 227 163 217 180 197 c 1
 177 225 162 245 129 256 c 0
 104 263 67 267 20 267 c 1
 28 331 75 385 131 385 c 0
 150 385 168 384 187 373 c 2
 202 365 l 2
 217 357 232 347 239 347 c 0
 254 347 262 361 271 380 c 1
 309 380 l 1
 295 328 268 302 228 302 c 0
 215 302 187 309 164 316 c 0
 147 321 134 326 129 326 c 0
 104 326 87 319 76 304 c 1
 98 304 l 2
 137 304 170 298 197 282 c 0
 232 262 253 233 253 197 c 2
79 164 m 0
 79 145 88 131 103 131 c 0
 118 131 128 145 128 164 c 0
 128 183 118 197 103 197 c 0
 88 197 79 183 79 164 c 0
EndSplineSet
MinimumDistance: x8,-1 
Back
252.93 196.777 m 2
 252.93 214.844 248.047 230.957 237.793 245.605 c 0
 228.027 259.766 214.355 271.973 196.777 282.227 c 0
 183.594 290.039 168.457 295.898 151.855 298.828 c 0
 135.254 302.246 117.188 304.199 98.1445 304.199 c 2
 76.1719 304.199 l 1
 86.4258 318.848 104.492 326.172 128.906 326.172 c 0
 131.836 326.172 136.23 325.195 142.09 323.242 c 0
 147.949 320.801 155.273 318.848 164.062 315.918 c 0
 175.293 312.5 187.012 309.57 199.707 306.641 c 0
 211.914 303.711 221.191 301.758 228.027 301.758 c 0
 268.066 301.758 294.922 328.125 309.082 379.883 c 1
 270.996 379.883 l 1
 266.113 370.605 261.719 362.793 256.836 356.445 c 0
 252.441 350.098 246.094 347.168 238.77 347.168 c 0
 235.84 347.168 230.469 349.121 223.633 353.027 c 0
 216.309 356.934 209.473 360.84 202.148 365.234 c 2
 187.012 373.047 l 2
 177.734 378.418 168.457 381.836 159.18 382.812 c 0
 149.902 384.277 140.137 384.766 130.859 384.766 c 0
 117.188 384.766 103.516 381.836 90.8203 375.488 c 0
 78.125 369.141 67.3828 360.84 57.6172 350.098 c 0
 47.8516 339.355 39.5508 326.66 33.2031 312.5 c 0
 26.3672 298.34 21.9727 283.203 20.0195 267.09 c 1
 67.3828 267.09 103.516 263.184 128.906 255.859 c 0
 145.508 250.488 158.203 243.164 166.016 232.91 c 0
 173.828 223.145 178.711 210.938 180.176 196.777 c 1
 163.574 216.797 141.113 227.051 113.77 227.051 c 0
 93.2617 227.051 78.125 221.191 68.3594 208.984 c 0
 58.5938 196.777 54.1992 181.641 54.1992 163.086 c 0
 54.1992 148.926 58.5938 135.254 67.8711 121.582 c 0
 77.1484 107.91 88.8672 101.074 103.027 101.074 c 0
 116.211 101.074 127.441 105.957 137.207 116.211 c 0
 146.484 125.977 151.855 138.184 152.832 151.855 c 1
 161.621 135.254 168.457 114.746 172.852 89.8438 c 0
 177.734 65.4297 180.176 35.1562 180.176 0 c 1
 252.93 0 l 1
 252.93 196.777 l 2
79.1016 164.062 m 0
 79.1016 173.34 81.0547 181.152 85.4492 187.5 c 0
 89.8438 193.848 95.7031 196.777 103.027 196.777 c 0
 110.352 196.777 116.211 193.848 121.094 187.5 c 0
 125.488 181.152 127.93 173.34 127.93 164.062 c 0
 127.93 154.785 125.488 146.973 121.094 140.625 c 0
 116.211 134.277 110.352 130.859 103.027 130.859 c 0
 95.7031 130.859 89.8438 134.277 85.4492 140.625 c 0
 81.0547 146.973 79.1016 154.785 79.1016 164.062 c 0
EndSplineSet
KernsSLIF: 212 20 0 0 215 20 0 0 214 20 0 0 213 20 0 0
EndChar
StartChar: uni0E34.left
Encoding: 129 -1 97
OldEncoding: 63233
Width: 0
Flags: HW
HStem: 401 21<-150 -150> 537 20<-301.5 -254>
Fore
-241 477 m 0
 -222 472 -206 467 -191 460 c 1
 -211 484 -247 509 -284 509 c 0
 -303 509 -331 506 -331 490 c 0
 -331 483 -316 484 -304 484 c 0
 -277 484 -262 481 -241 477 c 0
-150 401 m 1
 -171 416 -203 427 -234 435 c 0
 -254 440 -278 445 -301 445 c 2
 -318 445 l 2
 -325 445 -331 445 -336 444 c 0
 -360 444 -374 446 -385 455 c 0
 -393 460 -400 472 -400 481 c 0
 -400 504 -376 532 -357 541 c 1
 -338 552 -315 557 -288 557 c 0
 -220 557 -135 492 -135 407 c 1
 -150 401 l 1
EndSplineSet
Back
-241.211 477.051 m 0
 -231.445 474.121 -222.656 471.68 -214.355 469.238 c 0
 -206.055 466.309 -198.242 463.379 -190.918 459.961 c 1
 -201.172 472.168 -214.355 483.398 -230.957 493.652 c 0
 -247.559 503.906 -265.137 508.789 -284.18 508.789 c 0
 -293.457 508.789 -303.711 507.812 -314.453 505.371 c 0
 -325.684 502.93 -331.055 498.047 -331.055 490.234 c 0
 -331.055 486.816 -328.125 484.863 -321.777 484.375 c 0
 -315.918 484.375 -310.059 483.887 -304.199 483.887 c 0
 -290.527 483.887 -279.297 483.398 -270.508 481.934 c 0
 -261.719 480.469 -251.465 479.004 -241.211 477.051 c 0
-149.902 400.879 m 1
 -160.645 408.203 -173.34 415.039 -188.477 420.41 c 0
 -203.613 426.27 -218.75 431.152 -233.887 435.059 c 0
 -244.141 437.5 -254.883 439.941 -266.602 441.895 c 0
 -278.32 443.848 -289.551 444.824 -300.781 444.824 c 0
 -306.152 444.824 -312.012 444.824 -317.871 444.824 c 0
 -324.707 444.824 -330.566 444.824 -335.938 443.848 c 0
 -348.145 443.848 -357.91 444.824 -365.723 445.801 c 0
 -373.047 447.266 -379.883 450.195 -384.766 455.078 c 0
 -389.16 457.52 -392.578 461.426 -395.508 466.309 c 0
 -398.438 471.68 -399.902 476.562 -399.902 480.957 c 0
 -399.902 492.188 -395.02 503.906 -385.742 516.113 c 0
 -375.977 527.832 -366.211 536.133 -356.934 541.016 c 0
 -337.891 551.758 -314.453 557.129 -288.086 557.129 c 0
 -271.484 557.129 -253.906 553.223 -235.352 545.41 c 0
 -217.285 537.598 -200.684 527.344 -186.035 514.16 c 0
 -171.387 500.488 -159.18 484.863 -149.414 466.309 c 0
 -139.648 448.242 -134.766 428.223 -134.766 407.227 c 1
 -149.902 400.879 l 1
EndSplineSet
EndChar
StartChar: uni0E35.left
Encoding: 130 -1 98
OldEncoding: 63234
Width: 0
Flags: HW
HStem: 398 21 433 20<-321.5 -318 -318 -301> 579 20<-204 -149 -149 -149>
Fore
-149 599 m 1
 -149 475 l 1
 -138 455 -135 431 -135 398 c 1
 -166 419 -203 434 -234 443 c 0
 -254 448 -278 453 -301 453 c 2
 -318 453 l 2
 -325 453 -331 453 -336 452 c 0
 -360 452 -374 454 -385 463 c 0
 -393 468 -400 481 -400 490 c 0
 -400 513 -376 540 -357 551 c 0
 -338 562 -315 567 -288 567 c 0
 -259 567 -231 556 -204 539 c 1
 -204 599 l 1
 -149 599 l 1
-241 486 m 0
 -222 481 -206 476 -191 468 c 1
 -211 493 -247 519 -284 519 c 0
 -303 519 -331 515 -331 499 c 0
 -331 492 -316 493 -304 493 c 0
 -277 493 -262 490 -241 486 c 0
EndSplineSet
MinimumDistance: x10,-1 
Back
-148.926 599.121 m 1
 -204.102 599.121 l 1
 -204.102 539.062 l 1
 -217.285 547.852 -230.957 554.688 -245.117 559.57 c 0
 -258.789 564.453 -273.438 566.895 -288.086 566.895 c 0
 -314.453 566.895 -337.891 561.523 -356.934 550.781 c 0
 -366.211 545.898 -375.977 537.109 -385.742 524.902 c 0
 -395.02 513.184 -399.902 501.465 -399.902 490.234 c 0
 -399.902 485.352 -398.438 480.469 -395.508 475.098 c 0
 -392.578 469.727 -389.16 465.82 -384.766 462.891 c 0
 -379.883 458.496 -373.047 455.566 -365.723 454.102 c 0
 -357.91 452.637 -348.145 452.148 -335.938 452.148 c 0
 -330.566 452.637 -324.707 453.125 -317.871 453.125 c 0
 -312.012 453.125 -306.152 453.125 -300.781 453.125 c 0
 -289.551 453.125 -278.32 452.148 -266.602 450.195 c 0
 -254.883 448.242 -244.141 445.801 -233.887 442.871 c 0
 -218.75 438.477 -202.148 432.129 -184.57 424.805 c 0
 -166.992 417.48 -150.391 408.691 -134.766 397.949 c 1
 -134.766 414.551 -136.23 429.199 -138.184 441.406 c 0
 -140.137 453.613 -143.555 464.844 -148.926 475.098 c 1
 -148.926 599.121 l 1
-241.211 485.84 m 0
 -251.465 487.793 -261.719 489.746 -270.508 491.211 c 0
 -279.297 492.188 -290.527 493.164 -304.199 493.164 c 0
 -310.059 493.164 -315.918 493.164 -321.777 493.652 c 0
 -328.125 493.652 -331.055 495.605 -331.055 499.023 c 0
 -331.055 506.836 -325.684 512.207 -314.453 515.137 c 0
 -303.711 517.578 -293.457 519.043 -284.18 519.043 c 0
 -265.137 519.043 -247.559 513.672 -230.957 502.93 c 0
 -214.355 492.188 -201.172 480.469 -190.918 467.773 c 1
 -198.242 472.168 -206.055 475.098 -214.355 478.027 c 0
 -222.656 480.469 -231.445 483.398 -241.211 485.84 c 0
EndSplineSet
EndChar
StartChar: uni0E36.left
Encoding: 131 -1 99
OldEncoding: 63235
Width: 0
Flags: HW
HStem: 408 21<-150 -150> 433 20<-321.5 -318 -318 -301> 579 20<-207.5 -179>
Fore
-135 414 m 1
 -150 408 l 1
 -171 423 -203 434 -234 443 c 0
 -254 448 -278 453 -301 453 c 2
 -318 453 l 2
 -325 453 -331 453 -336 452 c 0
 -360 452 -374 454 -385 463 c 0
 -393 468 -400 481 -400 490 c 0
 -400 513 -376 540 -357 551 c 0
 -338 562 -315 567 -288 567 c 0
 -276 567 -264 565 -252 561 c 1
 -243 584 -220 599 -195 599 c 0
 -163 599 -135 572 -135 540 c 0
 -135 521 -143 505 -159 493 c 1
 -143 470 -135 444 -135 414 c 1
-241 486 m 0
 -222 481 -206 476 -191 468 c 1
 -211 493 -247 519 -284 519 c 0
 -303 519 -331 515 -331 499 c 0
 -331 492 -316 493 -304 493 c 0
 -277 493 -262 490 -241 486 c 0
-214 540 m 0
 -214 529 -206 521 -195 521 c 0
 -184 521 -177 529 -177 540 c 0
 -177 551 -184 560 -195 560 c 0
 -206 560 -214 551 -214 540 c 0
EndSplineSet
MinimumDistance: x18,-1 
Back
-134.766 414.062 m 1
 -134.766 443.848 -143.066 470.215 -159.18 493.164 c 1
 -143.066 504.883 -134.766 520.508 -134.766 540.039 c 0
 -134.766 556.152 -141.113 569.824 -152.832 581.543 c 0
 -165.039 593.262 -179.199 599.121 -194.824 599.121 c 0
 -207.52 599.121 -219.238 595.703 -229.492 588.379 c 0
 -239.746 581.543 -247.559 572.266 -251.953 561.035 c 1
 -264.16 564.941 -275.879 566.895 -288.086 566.895 c 0
 -314.453 566.895 -337.891 561.523 -356.934 550.781 c 0
 -366.211 545.898 -375.977 537.109 -385.742 524.902 c 0
 -395.02 513.184 -399.902 501.465 -399.902 490.234 c 0
 -399.902 485.352 -398.438 480.469 -395.508 475.098 c 0
 -392.578 469.727 -389.16 465.82 -384.766 462.891 c 0
 -379.883 458.496 -373.047 455.566 -365.723 454.102 c 0
 -357.91 452.637 -348.145 452.148 -335.938 452.148 c 0
 -330.566 452.637 -324.707 453.125 -317.871 453.125 c 0
 -312.012 453.125 -306.152 453.125 -300.781 453.125 c 0
 -289.551 453.125 -278.32 452.148 -266.602 450.195 c 0
 -254.883 448.242 -244.141 445.801 -233.887 442.871 c 0
 -218.75 438.477 -203.613 433.105 -188.477 427.734 c 0
 -173.34 421.875 -160.645 415.527 -149.902 408.203 c 1
 -134.766 414.062 l 1
-241.211 485.84 m 0
 -251.465 487.793 -261.719 489.746 -270.508 491.211 c 0
 -279.297 492.188 -290.527 493.164 -304.199 493.164 c 0
 -310.059 493.164 -315.918 493.164 -321.777 493.652 c 0
 -328.125 493.652 -331.055 495.605 -331.055 499.023 c 0
 -331.055 506.836 -325.684 512.207 -314.453 515.137 c 0
 -303.711 517.578 -293.457 519.043 -284.18 519.043 c 0
 -265.137 519.043 -247.559 513.672 -230.957 502.93 c 0
 -214.355 492.188 -201.172 480.469 -190.918 467.773 c 1
 -198.242 472.168 -206.055 475.098 -214.355 478.027 c 0
 -222.656 480.469 -231.445 483.398 -241.211 485.84 c 0
-213.867 540.039 m 0
 -213.867 545.41 -212.402 549.805 -208.496 554.199 c 0
 -204.59 558.105 -200.195 560.059 -194.824 560.059 c 0
 -189.453 560.059 -185.547 558.105 -182.129 554.199 c 0
 -178.711 549.805 -176.758 545.41 -176.758 540.039 c 0
 -176.758 534.668 -178.711 530.273 -182.129 526.367 c 0
 -185.547 522.949 -189.453 520.996 -194.824 520.996 c 0
 -200.195 520.996 -204.59 522.949 -208.496 526.367 c 0
 -212.402 530.273 -213.867 534.668 -213.867 540.039 c 0
EndSplineSet
EndChar
StartChar: uni0E37.left
Encoding: 132 -1 100
OldEncoding: 63236
Width: 0
Flags: HW
HStem: 398 21 433 20<-306.5 -289.5> 579 20<-257 -213 -213 -213 -193 -149 -149 -149>
Fore
-288 567 m 2
 -272 566 l 1
 -257 563 l 1
 -257 599 l 1
 -213 599 l 1
 -213 545 l 1
 -209 542 -206 540 -205 539 c 2
 -193 530 l 1
 -193 599 l 1
 -149 599 l 1
 -149 475 l 1
 -138 455 -135 431 -135 398 c 1
 -166 419 -203 434 -234 443 c 0
 -254 448 -278 453 -301 453 c 0
 -312 453 -325 452 -336 452 c 0
 -360 452 -373 455 -385 463 c 0
 -393 468 -400 481 -400 490 c 0
 -400 513 -376 540 -357 551 c 0
 -338 562 -315 570 -288 567 c 2
-241 486 m 0
 -222 481 -206 476 -191 468 c 1
 -211 493 -247 519 -284 519 c 0
 -303 519 -331 515 -331 499 c 0
 -331 492 -316 493 -304 493 c 0
 -277 493 -262 491 -241 486 c 0
EndSplineSet
MinimumDistance: x20,-1 
Back
-288.086 566.895 m 2
 -301.27 568.359 -313.965 567.383 -325.684 563.965 c 0
 -337.402 560.547 -347.656 556.152 -356.934 550.781 c 0
 -366.211 545.898 -375.977 537.109 -385.742 524.902 c 0
 -395.02 513.184 -399.902 501.465 -399.902 490.234 c 0
 -399.902 485.352 -398.438 480.469 -395.508 475.098 c 0
 -392.578 469.727 -389.16 465.82 -384.766 462.891 c 0
 -378.906 458.984 -372.559 456.055 -365.234 454.59 c 0
 -357.91 452.637 -348.145 452.148 -335.938 452.148 c 0
 -330.566 452.148 -324.707 452.148 -318.359 452.637 c 0
 -312.012 452.637 -306.152 453.125 -300.781 453.125 c 0
 -289.551 453.125 -278.32 452.148 -266.602 450.195 c 0
 -254.883 448.242 -244.141 445.801 -233.887 442.871 c 0
 -218.75 438.477 -202.148 432.129 -184.57 424.805 c 0
 -166.992 417.48 -150.391 408.691 -134.766 397.949 c 1
 -134.766 414.551 -136.23 429.199 -138.184 441.406 c 0
 -140.137 453.613 -143.555 464.844 -148.926 475.098 c 1
 -148.926 599.121 l 1
 -192.871 599.121 l 1
 -192.871 529.785 l 1
 -205.078 539.062 l 2
 -206.543 540.527 -208.984 542.48 -212.891 544.922 c 1
 -212.891 599.121 l 1
 -256.836 599.121 l 1
 -256.836 562.988 l 1
 -271.973 565.918 l 1
 -288.086 566.895 l 2
-241.211 485.84 m 0
 -251.465 488.77 -261.719 490.723 -270.508 491.699 c 0
 -279.297 492.676 -290.527 493.164 -304.199 493.164 c 0
 -310.059 493.164 -315.918 493.164 -321.777 493.652 c 0
 -328.125 493.652 -331.055 495.605 -331.055 499.023 c 0
 -331.055 506.836 -325.684 512.207 -314.453 515.137 c 0
 -303.711 517.578 -293.457 519.043 -284.18 519.043 c 0
 -265.137 519.043 -247.559 513.672 -230.957 502.93 c 0
 -214.355 492.188 -201.172 480.469 -190.918 467.773 c 1
 -198.242 472.168 -206.055 475.098 -214.355 478.027 c 0
 -222.656 480.469 -231.445 483.398 -241.211 485.84 c 0
EndSplineSet
EndChar
StartChar: ellipsis
Encoding: 133 8230 101
OldEncoding: 8230
Width: 531
Flags: HW
HStem: -6 77<101.5 132.5 249.5 264 394.5 409>
VStem: 71 93<19.5 45>
Fore
309 32 m 0
 309 11 294 -2 264 -6 c 1
 235 -6 219 6 216 31 c 1
 216 58 232 71 263 71 c 0
 277 71 288 67 297 59 c 0
 305 52 309 43 309 32 c 0
455 32 m 0
 455 11 440 -2 409 -6 c 1
 380 -6 365 6 362 31 c 1
 362 58 377 71 408 71 c 0
 421 71 433 67 443 59 c 0
 450 52 454 43 455 32 c 0
164 32 m 0
 164 7 148 -6 117 -6 c 0
 86 -6 71 7 71 32 c 0
 71 58 86 71 117 71 c 0
 148 71 164 58 164 32 c 0
EndSplineSet
MinimumDistance: x1,-1 
Back
309.082 32.2266 m 0
 309.082 10.7422 293.945 -1.95312 264.16 -5.85938 c 1
 234.863 -5.85938 218.75 6.34766 215.82 30.7617 c 1
 215.82 57.6172 231.445 70.8008 263.184 70.8008 c 0
 276.855 70.8008 288.574 66.8945 296.875 59.082 c 0
 305.176 52.2461 309.082 43.457 309.082 32.2266 c 0
455.078 32.2266 m 0
 455.078 10.7422 439.453 -1.95312 409.18 -5.85938 c 1
 380.371 -5.85938 364.746 6.34766 361.816 30.7617 c 1
 361.816 57.6172 377.441 70.8008 408.203 70.8008 c 0
 421.387 70.8008 433.105 66.8945 442.871 59.082 c 0
 450.195 52.2461 454.102 43.457 455.078 32.2266 c 0
164.062 32.2266 m 0
 164.062 6.83594 148.438 -5.85938 117.188 -5.85938 c 0
 86.4258 -5.85938 70.8008 6.83594 70.8008 32.2266 c 0
 70.8008 58.1055 86.4258 70.8008 117.188 70.8008 c 0
 148.438 70.8008 164.062 58.1055 164.062 32.2266 c 0
EndSplineSet
EndChar
StartChar: uni0E48.low_left
Encoding: 134 -1 102
OldEncoding: 63237
Width: 0
Flags: HW
HStem: 428 21<-191.5 -183.5> 560 20<-216 -156 -216 -216>
Fore
-156 580 m 1
 -159 517 l 1
 -167 443 l 1
 -168 435 -180 428 -187 428 c 0
 -196 428 -206 435 -207 443 c 1
 -214 518 l 1
 -216 580 l 1
 -156 580 l 1
EndSplineSet
Back
-155.762 580.078 m 1
 -159.18 517.09 l 1
 -166.992 442.871 l 1
 -167.48 438.965 -170.41 435.547 -174.805 432.617 c 0
 -179.688 429.688 -183.594 428.223 -187.012 428.223 c 0
 -191.895 428.223 -195.801 429.688 -200.195 432.617 c 0
 -204.102 435.547 -206.543 438.965 -207.031 442.871 c 1
 -213.867 518.066 l 1
 -215.82 580.078 l 1
 -155.762 580.078 l 1
EndSplineSet
EndChar
StartChar: uni0E49.low_left
Encoding: 135 -1 103
OldEncoding: 63238
Width: 0
Flags: HW
HStem: 419 158<-310 -289>
VStem: -343 95<509.5 535.5> -197 62<557.5 577>
Fore
-135 577 m 1
 -135 524 -152 484 -187 456 c 0
 -216 433 -248 419 -289 419 c 2
 -347 419 l 1
 -347 451 l 1
 -331 452 -318 457 -308 466 c 1
 -331 471 -343 490 -343 522 c 0
 -343 549 -324 577 -296 577 c 0
 -269 577 -248 551 -248 523 c 0
 -248 496 -255 475 -268 458 c 1
 -247 462 -231 472 -220 489 c 1
 -205 508 -197 538 -197 577 c 1
 -135 577 l 1
-313 521 m 0
 -313 504 -306 490 -295 490 c 0
 -284 490 -278 504 -278 521 c 0
 -278 538 -284 552 -295 552 c 0
 -306 552 -313 538 -313 521 c 0
EndSplineSet
MinimumDistance: x8,-1 
Back
-134.766 577.148 m 1
 -196.777 577.148 l 1
 -196.777 537.598 -204.59 508.301 -220.215 488.77 c 1
 -230.469 472.168 -246.582 461.914 -268.066 458.008 c 1
 -254.883 474.609 -248.047 496.094 -248.047 522.949 c 0
 -248.047 537.109 -252.441 549.316 -262.207 560.547 c 0
 -271.484 571.289 -282.715 577.148 -295.898 577.148 c 0
 -310.059 577.148 -321.289 571.289 -330.078 559.57 c 0
 -338.867 547.852 -342.773 535.156 -342.773 521.973 c 0
 -342.773 490.234 -331.543 471.191 -308.105 465.82 c 1
 -317.871 457.52 -331.055 452.148 -347.168 451.172 c 1
 -347.168 418.945 l 1
 -289.062 418.945 l 2
 -268.555 418.945 -250 422.363 -233.398 429.199 c 0
 -217.285 435.547 -201.66 444.824 -187.012 456.055 c 0
 -152.344 483.887 -134.766 524.414 -134.766 577.148 c 1
-312.988 520.996 m 0
 -312.988 529.785 -311.523 537.109 -308.105 542.969 c 0
 -304.688 548.828 -300.293 551.758 -294.922 551.758 c 0
 -289.551 551.758 -285.645 548.828 -282.715 542.969 c 0
 -279.297 537.109 -277.832 529.785 -277.832 520.996 c 0
 -277.832 512.207 -279.297 504.883 -282.715 499.023 c 0
 -285.645 493.164 -289.551 490.234 -294.922 490.234 c 0
 -300.293 490.234 -304.688 493.164 -308.105 499.023 c 0
 -311.523 504.883 -312.988 512.207 -312.988 520.996 c 0
EndSplineSet
EndChar
StartChar: uni0E4A.low_left
Encoding: 136 -1 104
OldEncoding: 63239
Width: 0
Flags: HW
HStem: 412 137<-256 -231.5> 513 36<-318 -311.5 -253 -242.5> 531 20<-191 -131 -131 -131>
Fore
-131 551 m 1
 -131 458 -178 412 -271 412 c 1
 -271 444 l 1
 -250 449 -231 468 -231 487 c 0
 -231 504 -237 513 -248 513 c 0
 -258 513 -263 500 -263 475 c 1
 -294 475 l 1
 -294 500 -302 513 -318 513 c 1
 -305 506 -296 491 -296 463 c 0
 -296 442 -308 414 -343 414 c 0
 -370 414 -391 441 -391 468 c 0
 -391 483 -389 496 -382 509 c 0
 -371 529 -353 549 -318 549 c 0
 -305 549 -293 544 -282 533 c 1
 -274 542 -262 549 -250 549 c 0
 -213 549 -192 531 -189 496 c 1
 -189 525 l 1
 -191 551 l 1
 -131 551 l 1
-361 463 m 0
 -361 448 -353 439 -342 439 c 0
 -331 439 -326 448 -326 463 c 0
 -326 478 -331 488 -342 488 c 0
 -353 488 -361 478 -361 463 c 0
EndSplineSet
MinimumDistance: x14,-1 
Back
-130.859 550.781 m 1
 -190.918 550.781 l 1
 -188.965 524.902 l 1
 -188.965 496.094 l 1
 -192.383 531.25 -212.891 548.828 -250 548.828 c 0
 -255.859 548.828 -261.719 547.363 -267.578 544.434 c 0
 -272.949 541.504 -277.832 537.598 -282.227 533.203 c 1
 -292.48 543.457 -304.688 548.828 -317.871 548.828 c 0
 -335.449 548.828 -349.121 544.922 -358.887 536.621 c 0
 -369.141 528.32 -376.465 519.043 -381.836 508.789 c 0
 -385.254 502.441 -387.695 495.605 -389.16 488.77 c 0
 -390.137 482.422 -391.113 475.098 -391.113 467.773 c 0
 -391.113 454.59 -386.23 442.383 -376.953 431.152 c 0
 -367.676 419.434 -356.445 414.062 -342.773 414.062 c 0
 -325.684 414.062 -313.477 419.434 -306.641 430.664 c 0
 -299.316 441.406 -295.898 452.148 -295.898 462.891 c 0
 -295.898 477.051 -297.852 487.793 -301.758 496.094 c 0
 -306.152 503.906 -311.523 509.766 -317.871 513.184 c 1
 -301.758 513.184 -293.945 500.488 -293.945 475.098 c 1
 -263.184 475.098 l 1
 -263.184 500.488 -257.812 513.184 -248.047 513.184 c 0
 -236.816 513.184 -230.957 504.395 -230.957 486.816 c 0
 -230.957 477.539 -234.863 468.75 -243.164 460.449 c 0
 -250.977 452.148 -260.254 446.777 -270.996 443.848 c 1
 -270.996 412.109 l 1
 -177.734 412.109 -130.859 458.496 -130.859 550.781 c 1
-360.84 462.891 m 0
 -360.84 470.215 -359.375 476.562 -355.469 480.957 c 0
 -352.051 485.84 -347.168 487.793 -341.797 487.793 c 0
 -336.426 487.793 -332.52 485.84 -330.078 480.957 c 0
 -327.148 476.562 -326.172 470.215 -326.172 462.891 c 0
 -326.172 455.566 -327.148 449.707 -330.078 445.312 c 0
 -332.52 441.406 -336.426 438.965 -341.797 438.965 c 0
 -347.168 438.965 -352.051 441.406 -355.469 445.312 c 0
 -359.375 449.707 -360.84 455.566 -360.84 462.891 c 0
EndSplineSet
EndChar
StartChar: uni0E4B.low_left
Encoding: 137 -1 105
OldEncoding: 63240
Width: 0
Flags: HW
HStem: 419 21<-256 -200 -256 -256> 476 45<-312 -259 -195 -143> 557 20<-262 -193 -193 -193>
Fore
-262 577 m 1
 -193 577 l 1
 -195 521 l 1
 -143 521 l 1
 -143 476 l 1
 -197 476 l 1
 -200 419 l 1
 -256 419 l 1
 -258 476 l 1
 -312 476 l 1
 -312 521 l 1
 -259 521 l 1
 -262 577 l 1
EndSplineSet
Back
-262.207 577.148 m 1
 -258.789 520.996 l 1
 -312.012 520.996 l 1
 -312.012 476.074 l 1
 -257.812 476.074 l 1
 -255.859 418.945 l 1
 -200.195 418.945 l 1
 -196.777 476.074 l 1
 -143.066 476.074 l 1
 -143.066 520.996 l 1
 -194.824 520.996 l 1
 -192.871 577.148 l 1
 -262.207 577.148 l 1
EndSplineSet
EndChar
StartChar: uni0E4C.low_left
Encoding: 138 -1 106
OldEncoding: 63241
Width: 0
Flags: HW
HStem: 407 21<-241.5 -206.5> 600 20<-107 -107>
VStem: -287 118<454 484.5>
Fore
-154 543 m 0
 -167 538 -181 532 -192 525 c 1
 -177 516 -169 498 -169 471 c 0
 -169 434 -190 407 -223 407 c 0
 -260 407 -287 436 -287 472 c 0
 -287 519 -253 539 -193 564 c 0
 -184 567 -160 576 -160 587 c 0
 -160 594 -161 600 -164 607 c 1
 -107 620 l 1
 -106 614 -105 609 -105 606 c 2
 -105 596 l 2
 -105 573 -118 558 -154 543 c 0
-238 466 m 0
 -238 447 -232 434 -220 434 c 0
 -208 434 -201 447 -201 466 c 0
 -201 485 -207 500 -220 500 c 0
 -232 500 -238 485 -238 466 c 0
EndSplineSet
MinimumDistance: x2,-1 
Back
-153.809 542.969 m 0
 -136.23 550.293 -123.535 558.105 -116.211 566.406 c 0
 -108.887 574.707 -104.98 584.473 -104.98 596.191 c 0
 -104.98 599.121 -104.98 602.539 -104.98 605.957 c 0
 -104.98 609.375 -105.469 613.77 -106.934 620.117 c 1
 -164.062 606.934 l 1
 -162.598 603.516 -161.621 600.098 -161.133 597.168 c 0
 -160.156 593.75 -160.156 590.332 -160.156 586.914 c 0
 -160.156 581.543 -164.551 576.66 -172.852 572.266 c 0
 -181.641 568.359 -188.477 565.43 -192.871 563.965 c 0
 -223.145 551.27 -246.094 538.574 -262.695 525.879 c 0
 -278.809 513.184 -287.109 495.117 -287.109 472.168 c 0
 -287.109 454.102 -280.762 438.477 -269.043 425.781 c 0
 -256.836 413.574 -241.699 407.227 -223.145 407.227 c 0
 -206.543 407.227 -193.359 413.086 -183.594 424.805 c 0
 -173.828 437.012 -168.945 452.148 -168.945 471.191 c 0
 -168.945 497.559 -176.758 515.625 -191.895 524.902 c 1
 -186.523 528.32 -180.664 531.738 -173.828 534.668 c 0
 -167.48 537.598 -160.645 540.527 -153.809 542.969 c 0
-237.793 465.82 m 0
 -237.793 475.098 -236.328 483.398 -233.398 490.234 c 0
 -230.469 496.582 -226.074 500 -220.215 500 c 0
 -213.379 500 -208.496 496.582 -205.566 490.234 c 0
 -202.637 483.398 -201.172 475.098 -201.172 465.82 c 0
 -201.172 456.543 -202.637 449.219 -206.055 442.871 c 0
 -209.473 437.012 -213.867 434.082 -220.215 434.082 c 0
 -226.074 434.082 -230.469 437.012 -233.398 442.871 c 0
 -236.328 449.219 -237.793 456.543 -237.793 465.82 c 0
EndSplineSet
EndChar
StartChar: uni0E48.low
Encoding: 139 -1 107
OldEncoding: 63242
Width: 0
Flags: HW
HStem: 418 21<-115.5 -107.5> 550 20<-141 -80 -141 -141>
Fore
-80 570 m 1
 -83 507 l 1
 -91 433 l 1
 -94 425 -104 418 -111 418 c 0
 -120 418 -130 425 -131 433 c 1
 -138 508 l 1
 -141 570 l 1
 -80 570 l 1
EndSplineSet
Back
-80.0781 569.824 m 1
 -83.0078 506.836 l 1
 -90.8203 433.105 l 1
 -92.2852 429.199 -95.2148 425.293 -99.6094 422.363 c 0
 -104.004 419.434 -107.91 417.969 -110.84 417.969 c 0
 -115.723 417.969 -120.117 419.434 -124.023 422.363 c 0
 -127.93 425.293 -130.371 429.199 -130.859 433.105 c 1
 -138.184 507.812 l 1
 -141.113 569.824 l 1
 -80.0781 569.824 l 1
EndSplineSet
EndChar
StartChar: uni0E49.low
Encoding: 140 -1 108
OldEncoding: 63243
Width: 0
Flags: HW
HStem: 419 158<-212 -191>
VStem: -245 95<509.5 535.5> -99 62<557.5 577>
Fore
-37 577 m 1
 -37 524 -54 484 -89 456 c 0
 -118 433 -150 419 -191 419 c 2
 -249 419 l 1
 -249 451 l 1
 -233 452 -220 457 -210 466 c 1
 -233 471 -245 490 -245 522 c 0
 -245 549 -226 577 -198 577 c 0
 -171 577 -150 551 -150 523 c 0
 -150 496 -157 475 -170 458 c 1
 -149 462 -133 472 -122 489 c 1
 -107 508 -99 538 -99 577 c 1
 -37 577 l 1
-215 521 m 0
 -215 504 -208 490 -197 490 c 0
 -186 490 -180 504 -180 521 c 0
 -180 538 -186 552 -197 552 c 0
 -208 552 -215 538 -215 521 c 0
EndSplineSet
MinimumDistance: x8,-1 
Back
-37.1094 577.148 m 1
 -99.1211 577.148 l 1
 -99.1211 537.598 -106.445 508.301 -122.07 488.77 c 1
 -132.812 472.168 -148.438 461.914 -169.922 458.008 c 1
 -156.738 474.609 -149.902 496.094 -149.902 522.949 c 0
 -149.902 537.109 -154.785 549.316 -164.062 560.547 c 0
 -173.34 571.289 -184.57 577.148 -198.242 577.148 c 0
 -211.914 577.148 -223.145 571.289 -231.934 559.57 c 0
 -240.723 547.852 -245.117 535.156 -245.117 521.973 c 0
 -245.117 490.234 -233.398 471.191 -209.961 465.82 c 1
 -220.215 457.52 -232.91 452.148 -249.023 451.172 c 1
 -249.023 418.945 l 1
 -190.918 418.945 l 2
 -170.41 418.945 -151.855 422.363 -135.742 429.199 c 0
 -119.141 435.547 -103.516 444.824 -88.8672 456.055 c 0
 -54.1992 483.887 -37.1094 524.414 -37.1094 577.148 c 1
-214.844 520.996 m 0
 -214.844 529.785 -213.379 537.109 -209.961 542.969 c 0
 -206.543 548.828 -202.148 551.758 -196.777 551.758 c 0
 -191.895 551.758 -187.5 548.828 -184.57 542.969 c 0
 -181.641 537.109 -180.176 529.785 -180.176 520.996 c 0
 -180.176 512.207 -181.641 504.883 -184.57 499.023 c 0
 -187.5 493.164 -191.895 490.234 -196.777 490.234 c 0
 -202.148 490.234 -206.543 493.164 -209.961 499.023 c 0
 -213.379 504.883 -214.844 512.207 -214.844 520.996 c 0
EndSplineSet
EndChar
StartChar: uni0E4A.low
Encoding: 141 -1 109
OldEncoding: 63244
Width: 0
Flags: HW
HStem: 412 137<-154 -129.5> 513 36<-216 -209.5 -151 -140.5> 531 20<-89 -29 -29 -29>
Fore
-29 551 m 1
 -29 458 -76 412 -169 412 c 1
 -169 444 l 1
 -148 449 -129 468 -129 487 c 0
 -129 504 -135 513 -146 513 c 0
 -156 513 -161 500 -161 475 c 1
 -192 475 l 1
 -192 500 -200 513 -216 513 c 1
 -203 506 -194 491 -194 463 c 0
 -194 442 -206 414 -241 414 c 0
 -268 414 -289 441 -289 468 c 0
 -289 483 -287 496 -280 509 c 0
 -269 529 -251 549 -216 549 c 0
 -203 549 -191 544 -180 533 c 1
 -172 542 -160 549 -148 549 c 0
 -111 549 -90 531 -87 496 c 1
 -87 525 l 1
 -89 551 l 1
 -29 551 l 1
-259 463 m 0
 -259 448 -251 439 -240 439 c 0
 -229 439 -224 448 -224 463 c 0
 -224 478 -229 488 -240 488 c 0
 -251 488 -259 478 -259 463 c 0
EndSplineSet
MinimumDistance: x14,-1 
Back
-28.8086 550.781 m 1
 -88.8672 550.781 l 1
 -86.9141 524.902 l 1
 -86.9141 496.094 l 1
 -90.332 531.25 -110.84 548.828 -147.949 548.828 c 0
 -153.809 548.828 -159.668 547.363 -165.527 544.434 c 0
 -171.387 541.504 -175.781 537.598 -180.176 533.203 c 1
 -190.43 543.457 -202.637 548.828 -215.82 548.828 c 0
 -233.398 548.828 -247.07 544.922 -256.836 536.621 c 0
 -267.09 528.32 -274.902 519.043 -279.785 508.789 c 0
 -283.203 502.441 -285.645 495.605 -287.109 488.77 c 0
 -288.574 482.422 -289.062 475.098 -289.062 467.773 c 0
 -289.062 454.59 -284.18 442.383 -274.902 431.152 c 0
 -265.625 419.434 -254.395 414.062 -241.211 414.062 c 0
 -223.633 414.062 -211.426 419.434 -204.59 430.664 c 0
 -197.266 441.406 -193.848 452.148 -193.848 462.891 c 0
 -193.848 477.051 -195.801 487.793 -200.195 496.094 c 0
 -204.102 503.906 -209.473 509.766 -215.82 513.184 c 1
 -200.195 513.184 -191.895 500.488 -191.895 475.098 c 1
 -161.133 475.098 l 1
 -161.133 500.488 -155.762 513.184 -145.996 513.184 c 0
 -134.766 513.184 -128.906 504.395 -128.906 486.816 c 0
 -128.906 477.539 -132.812 468.75 -141.113 460.449 c 0
 -148.926 452.148 -158.203 446.777 -168.945 443.848 c 1
 -168.945 412.109 l 1
 -75.6836 412.109 -28.8086 458.496 -28.8086 550.781 c 1
-258.789 462.891 m 0
 -258.789 470.215 -257.324 476.562 -253.418 480.957 c 0
 -250 485.84 -245.117 487.793 -240.234 487.793 c 0
 -234.863 487.793 -230.469 485.84 -228.027 480.957 c 0
 -225.098 476.562 -224.121 470.215 -224.121 462.891 c 0
 -224.121 455.566 -225.098 449.707 -228.027 445.312 c 0
 -230.469 441.406 -234.863 438.965 -240.234 438.965 c 0
 -245.117 438.965 -250 441.406 -253.418 445.312 c 0
 -257.324 449.707 -258.789 455.566 -258.789 462.891 c 0
EndSplineSet
EndChar
StartChar: uni0E4B.low
Encoding: 142 -1 110
OldEncoding: 63245
Width: 0
Flags: HW
HStem: 460 21<-164 -107 -164 -164> 516 45<-220 -167 -103 -51> 598 20<-170 -101 -101 -101>
Fore
-170 618 m 1
 -101 618 l 1
 -103 561 l 1
 -51 561 l 1
 -51 516 l 1
 -105 516 l 1
 -107 460 l 1
 -164 460 l 1
 -165 516 l 1
 -220 516 l 1
 -220 561 l 1
 -167 561 l 1
 -170 618 l 1
EndSplineSet
Back
-169.922 618.164 m 1
 -166.992 561.035 l 1
 -220.215 561.035 l 1
 -220.215 516.113 l 1
 -165.039 516.113 l 1
 -164.062 459.961 l 1
 -106.934 459.961 l 1
 -104.98 516.113 l 1
 -50.7812 516.113 l 1
 -50.7812 561.035 l 1
 -103.027 561.035 l 1
 -101.074 618.164 l 1
 -169.922 618.164 l 1
EndSplineSet
EndChar
